{
.appVersion = "3309";
.formatVersion = 3;
axes = (
{
name = Weight;
tag = wght;
}
);
customParameters = (
{
name = panose;
value = (
3,
5,
9,
2,
4,
3,
2,
0,
0,
4
);
},
{
name = fsType;
value = (
);
},
{
name = "Use Typo Metrics";
value = 1;
}
);
date = "2013-08-22 21:28:00 +0000";
familyName = "Life Savers";
featurePrefixes = (
{
automatic = 1;
code = "languagesystem DFLT dflt;

languagesystem latn dflt;
languagesystem latn CAT;
";
name = Languagesystems;
}
);
features = (
{
automatic = 1;
code = "feature salt;
feature ss01;
feature locl;
feature subs;
feature sinf;
feature sups;
feature frac;
feature ordn;
";
tag = aalt;
},
{
automatic = 1;
code = "script latn;
language CAT;
lookup locl_latn_0 {
	sub  l' periodcentered' l by ldot;
	sub  L' periodcentered' L by Ldot;
} locl_latn_0;
";
tag = locl;
},
{
automatic = 1;
code = "sub zero by zeroinferior;
sub one by oneinferior;
sub two by twoinferior;
sub three by threeinferior;
sub four by fourinferior;
sub five by fiveinferior;
sub six by sixinferior;
sub seven by seveninferior;
sub eight by eightinferior;
sub nine by nineinferior;
";
tag = subs;
},
{
automatic = 1;
code = "sub zero by zeroinferior;
sub one by oneinferior;
sub two by twoinferior;
sub three by threeinferior;
sub four by fourinferior;
sub five by fiveinferior;
sub six by sixinferior;
sub seven by seveninferior;
sub eight by eightinferior;
sub nine by nineinferior;
";
tag = sinf;
},
{
automatic = 1;
code = "sub zero by zerosuperior;
sub one by onesuperior;
sub two by twosuperior;
sub three by threesuperior;
sub four by foursuperior;
sub five by fivesuperior;
sub six by sixsuperior;
sub seven by sevensuperior;
sub eight by eightsuperior;
sub nine by ninesuperior;
";
tag = sups;
},
{
automatic = 1;
code = "sub one slash eight by oneeighth;
sub one slash four by onequarter;
sub three slash eight by threeeighths;
sub one slash two by onehalf;
sub five slash eight by fiveeighths;
sub three slash four by threequarters;
sub seven slash eight by seveneighths;

glyphs = (
{
glyphname = A;
kernLeft = Aacute;
kernRight = Aacute;
lastChange = "2024-06-13 14:18:27 +0000";
layers = (
{
layerId = m01;
shapes = (
{
closed = 1;
nodes = (
(404,816,o),
(380,838,o),
(359,838,qs),
(333,838,o),
(312,815,o),
(305,792,qs),
(295,760,o),
(266,655,o),
(232,529,o),
(194,391,o),
(156,259,o),
(121,142,o),
(107,101,qs),
(100,81,o),
(76,65,o),
(58,63,qs),
(56,63,o),
(39,61,o),
(19,59,o),
(3,57,o),
(1,57,qs),
(-9,57,o),
(-28,43,o),
(-28,30,qs),
(-28,16,o),
(-14,0,o),
(-5,0,qs),
(273,0,ls),
(293,0,o),
(307,18,o),
(307,29,qs),
(307,47,o),
(290,61,o),
(274,61,qs),
(239,61,o),
(202,69,o),
(202,77,qs),
(202,85,o),
(208,117,o),
(218,156,o),
(231,197,o),
(238,214,q),
(470,214,l),
(473,203,o),
(489,150,o),
(505,92,o),
(517,42,o),
(517,35,qs),
(517,14,o),
(500,-1,o),
(481,-8,o),
(464,-17,o),
(464,-33,qs),
(464,-41,o),
(477,-55,o),
(495,-55,qs),
(742,-55,ls),
(759,-55,o),
(777,-43,o),
(777,-25,qs),
(777,-8,o),
(747,3,o),
(733,3,qs),
(697,3,o),
(652,6,o),
(626,14,o),
(615,26,o),
(613,35,qs),
(410,793,ls)
);
},
{
closed = 1;
nodes = (
(393,541,o),
(416,440,o),
(441,342,o),
(453,298,q),
(444,298,o),
(419,297,o),
(392,296,o),
(367,296,o),
(358,296,qs),
(343,296,o),
(320,296,o),
(300,297,o),
(277,298,o),
(262,298,q),
(273,338,o),
(301,451,o),
(330,565,o),
(355,664,o),
(362,691,q),
(371,643,o)
);
}
);
userData = {
assembly = "PUSHB[ ]	/* 6 values pushed */
69 1 8 7 1 66
MPPEM[ ]	/* MeasurePixelPerEm */
PUSHB[ ]	/* 1 value pushed */
45
LT[ ]	/* LessThan */
IF[ ]	/* If */
NPUSHB[ ]	/* 33 values pushed */
0 8 0 2 3 8 2 90 0 0 0 1 0 1 87 0 7 7 20 67 6 5 2 3 3 4 83 0 4 4 13 4 68
ELSE[ ]	/* Else */
NPUSHB[ ]	/* 33 values pushed */
0 7 8 7 106 0 8 0 2 3 8 2 90 0 0 0 1 0 1 87 6 5 2 3 3 4 83 0 4 4 13 4 68
EIF[ ]	/* EndIf */
NPUSHB[ ]	/* 11 values pushed */
168 44 19 36 52 39 28 52 51 9 24
CALL[ ]	/* CallFunction */";
};
width = 710;
},
{
layerId = "62092E79-60F6-4D0B-8A38-B9DDC6B60A9E";
shapes = (
{
closed = 1;
nodes = (
(382,837,o),
(353,837,qs),
(335,837,o),
(319,824,o),
(317,816,qs),
(307,783,o),
(276,673,o),
(240,540,o),
(199,393,o),
(160,253,o),
(123,131,o),
(108,89,qs),
(102,71,o),
(80,53,o),
(59,51,qs),
(56,51,o),
(39,49,o),
(17,47,o),
(-5,45,o),
(-12,45,qs),
(-22,45,o),
(-37,34,o),
(-37,24,qs),
(-37,13,o),
(-23,0,o),
(-14,0,qs),
(253,0,ls),
(273,0,o),
(287,15,o),
(287,24,qs),
(287,39,o),
(268,49,o),
(258,49,qs),
(247,49,o),
(220,49,o),
(197,52,o),
(182,59,o),
(182,65,qs),
(182,74,o),
(190,111,o),
(203,156,o),
(218,203,o),
(225,223,q),
(473,223,l),
(475,215,o),
(485,181,o),
(497,139,o),
(509,92,o),
(519,51,o),
(526,20,o),
(526,15,qs),
(526,-4,o),
(504,-18,o),
(477,-23,o),
(455,-28,o),
(455,-39,qs),
(455,-47,o),
(468,-55,o),
(486,-55,qs),
(719,-55,ls),
(736,-55,o),
(754,-45,o),
(754,-31,qs),
(754,-17,o),
(727,-9,o),
(713,-9,qs),
(665,-9,o),
(606,0,o),
(600,23,qs),
(388,816,ls)
);
},
{
closed = 1;
nodes = (
(393,553,o),
(420,441,o),
(446,335,o),
(458,289,q),
(435,288,o),
(386,288,o),
(363,288,qs),
(332,288,o),
(275,288,o),
(244,289,q),
(251,317,o),
(271,392,o),
(292,474,o),
(315,558,o),
(335,634,o),
(351,696,o),
(356,715,q),
(367,664,o)
);
}
);
userData = {
assembly = "PUSHB[ ]	/* 6 values pushed */
70 1 8 7 1 66
MPPEM[ ]	/* MeasurePixelPerEm */
PUSHB[ ]	/* 1 value pushed */
45
LT[ ]	/* LessThan */
IF[ ]	/* If */
NPUSHB[ ]	/* 33 values pushed */
0 8 0 2 3 8 2 90 0 0 0 1 0 1 87 0 7 7 20 67 6 5 2 3 3 4 83 0 4 4 13 4 68
ELSE[ ]	/* Else */
NPUSHB[ ]	/* 33 values pushed */
0 7 8 7 106 0 8 0 2 3 8 2 90 0 0 0 1 0 1 87 6 5 2 3 3 4 83 0 4 4 13 4 68
EIF[ ]	/* EndIf */
NPUSHB[ ]	/* 11 values pushed */
105 44 19 36 52 56 30 52 34 9 24
CALL[ ]	/* CallFunction */";
};
width = 698;
},
{
layerId = "E59D8378-1062-4241-9A8F-EEB295F00E05";
shapes = (
{
closed = 1;
nodes = (
(362,827,o),
(350,835,o),
(345,835,qs),
(337,835,o),
(326,824,o),
(324,816,qs),
(314,782,o),
(283,669,o),
(245,532,o),
(204,381,o),
(164,237,o),
(125,112,o),
(110,69,qs),
(103,51,o),
(83,33,o),
(61,31,qs),
(57,31,o),
(36,29,o),
(9,27,o),
(-20,25,o),
(-30,25,qs),
(-50,25,o),
(-50,14,qs),
(-50,6,o),
(-36,0,o),
(-27,0,qs),
(225,0,ls),
(245,0,o),
(259,10,o),
(259,15,qs),
(259,26,o),
(235,29,o),
(225,29,qs),
(214,29,o),
(189,29,o),
(168,32,o),
(154,38,o),
(154,45,qs),
(154,56,o),
(165,101,o),
(181,156,o),
(199,214,o),
(206,238,q),
(477,238,l),
(479,229,o),
(490,189,o),
(504,140,o),
(518,85,o),
(530,37,o),
(538,1,o),
(538,-5,qs),
(538,-17,o),
(508,-25,o),
(472,-27,o),
(442,-32,o),
(442,-41,qs),
(442,-49,o),
(455,-55,o),
(473,-55,qs),
(686,-55,ls),
(721,-55,o),
(721,-41,qs),
(721,-32,o),
(699,-29,o),
(685,-29,qs),
(637,-29,o),
(587,-17,o),
(582,3,qs),
(365,816,ls)
);
},
{
closed = 1;
nodes = (
(390,573,o),
(423,445,o),
(453,323,o),
(465,274,q),
(434,273,o),
(371,272,o),
(340,272,qs),
(309,272,o),
(249,273,o),
(218,274,q),
(225,304,o),
(246,388,o),
(271,481,o),
(297,578,o),
(321,664,o),
(339,735,o),
(343,755,q),
(358,700,o)
);
}
);
userData = {
assembly = "PUSHB[ ]	/* 6 values pushed */
69 1 9 8 1 66
MPPEM[ ]	/* MeasurePixelPerEm */
PUSHB[ ]	/* 1 value pushed */
45
LT[ ]	/* LessThan */
IF[ ]	/* If */
NPUSHB[ ]	/* 34 values pushed */
0 9 0 3 4 9 3 90 2 1 0 0 1 0 1 87 0 8 8 20 67 7 6 2 4 4 5 83 0 5 5 13 5 68
ELSE[ ]	/* Else */
NPUSHB[ ]	/* 34 values pushed */
0 8 9 8 106 0 9 0 3 4 9 3 90 2 1 0 0 1 0 1 87 7 6 2 4 4 5 83 0 5 5 13 5 68
EIF[ ]	/* EndIf */
NPUSHB[ ]	/* 13 values pushed */
82 76 44 18 51 52 56 25 20 51 34 10 24
CALL[ ]	/* CallFunction */";
};
width = 681;
}
);
note = A;
unicode = 65;
},
{
glyphname = Aacute;
kernLeft = Aacute;
kernRight = Aacute;
lastChange = "2024-06-13 14:18:27 +0000";
layers = (
{
layerId = m01;
shapes = (
{
closed = 1;
nodes = (
(428,972,o),
(408,972,qs),
(394,972,o),
(355,949,o),
(319,916,o),
(294,882,o),
(294,872,qs),
(294,860,o),
(314,841,o),
(329,841,qs),
(342,841,o),
(382,860,o),
(421,888,o),
(449,921,o),
(449,936,qs),
(449,949,o)
);
},
{
closed = 1;
nodes = (
(404,816,o),
(380,838,o),
(359,838,qs),
(333,838,o),
(312,815,o),
(305,792,qs),
(295,760,o),
(266,655,o),
(232,529,o),
(194,391,o),
(156,259,o),
(121,142,o),
(107,101,qs),
(100,81,o),
(76,65,o),
(58,63,qs),
(56,63,o),
(39,61,o),
(19,59,o),
(3,57,o),
(1,57,qs),
(-9,57,o),
(-28,43,o),
(-28,30,qs),
(-28,16,o),
(-14,0,o),
(-5,0,qs),
(273,0,ls),
(293,0,o),
(307,18,o),
(307,29,qs),
(307,47,o),
(290,61,o),
(274,61,qs),
(239,61,o),
(202,69,o),
(202,77,qs),
(202,85,o),
(208,117,o),
(218,156,o),
(231,197,o),
(238,214,q),
(470,214,l),
(473,203,o),
(489,150,o),
(505,92,o),
(517,42,o),
(517,35,qs),
(517,14,o),
(500,-1,o),
(481,-8,o),
(464,-17,o),
(464,-33,qs),
(464,-41,o),
(477,-55,o),
(495,-55,qs),
(742,-55,ls),
(759,-55,o),
(777,-43,o),
(777,-25,qs),
(777,-8,o),
(747,3,o),
(733,3,qs),
(697,3,o),
(652,6,o),
(626,14,o),
(615,26,o),
(613,35,qs),
(410,793,ls)
);
},
{
closed = 1;
nodes = (
(393,541,o),
(416,440,o),
(441,342,o),
(453,298,q),
(444,298,o),
(419,297,o),
(392,296,o),
(367,296,o),
(358,296,qs),
(343,296,o),
(320,296,o),
(300,297,o),
(277,298,o),
(262,298,q),
(273,338,o),
(301,451,o),
(330,565,o),
(355,664,o),
(362,691,q),
(371,643,o)
);
}
);
userData = {
assembly = "PUSHB[ ]	/* 6 values pushed */
85 1 10 9 1 66
MPPEM[ ]	/* MeasurePixelPerEm */
PUSHB[ ]	/* 1 value pushed */
45
LT[ ]	/* LessThan */
IF[ ]	/* If */
NPUSHB[ ]	/* 43 values pushed */
0 1 0 1 106 0 0 9 0 106 0 10 0 4 5 10 4 90 0 2 0 3 2 3 87 0 9 9 20 67 8 7 2 5 5 6 83 0 6 6 13 6 68
ELSE[ ]	/* Else */
NPUSHB[ ]	/* 43 values pushed */
0 1 0 1 106 0 0 9 0 106 0 9 10 9 106 0 10 0 4 5 10 4 90 0 2 0 3 2 3 87 8 7 2 5 5 6 83 0 6 6 13 6 68
EIF[ ]	/* EndIf */
NPUSHB[ ]	/* 15 values pushed */
100 90 82 80 19 36 52 39 28 52 53 38 36 11 24
CALL[ ]	/* CallFunction */";
};
width = 710;
},
{
layerId = "62092E79-60F6-4D0B-8A38-B9DDC6B60A9E";
shapes = (
{
closed = 1;
nodes = (
(412,972,o),
(397,972,qs),
(386,972,o),
(350,950,o),
(316,919,o),
(291,887,o),
(291,877,qs),
(291,867,o),
(304,854,o),
(315,854,qs),
(325,854,o),
(364,872,o),
(401,899,o),
(429,929,o),
(429,941,qs),
(429,955,o)
);
},
{
closed = 1;
nodes = (
(382,837,o),
(353,837,qs),
(335,837,o),
(319,824,o),
(317,816,qs),
(307,783,o),
(276,673,o),
(240,540,o),
(199,393,o),
(160,253,o),
(123,131,o),
(108,89,qs),
(102,71,o),
(80,53,o),
(59,51,qs),
(56,51,o),
(39,49,o),
(17,47,o),
(-5,45,o),
(-12,45,qs),
(-22,45,o),
(-37,34,o),
(-37,24,qs),
(-37,13,o),
(-23,0,o),
(-14,0,qs),
(253,0,ls),
(273,0,o),
(287,15,o),
(287,24,qs),
(287,39,o),
(268,49,o),
(258,49,qs),
(247,49,o),
(220,49,o),
(197,52,o),
(182,59,o),
(182,65,qs),
(182,74,o),
(190,111,o),
(203,156,o),
(218,203,o),
(225,223,q),
(473,223,l),
(475,215,o),
(485,181,o),
(497,139,o),
(509,92,o),
(519,51,o),
(526,20,o),
(526,15,qs),
(526,-4,o),
(504,-18,o),
(477,-23,o),
(455,-28,o),
(455,-39,qs),
(455,-47,o),
(468,-55,o),
(486,-55,qs),
(719,-55,ls),
(736,-55,o),
(754,-45,o),
(754,-31,qs),
(754,-17,o),
(727,-9,o),
(713,-9,qs),
(665,-9,o),
(606,0,o),
(600,23,qs),
(388,816,ls)
);
},
{
closed = 1;
nodes = (
(393,553,o),
(420,441,o),
(446,335,o),
(458,289,q),
(435,288,o),
(386,288,o),
(363,288,qs),
(332,288,o),
(275,288,o),
(244,289,q),
(251,317,o),
(271,392,o),
(292,474,o),
(315,558,o),
(335,634,o),
(351,696,o),
(356,715,q),
(367,664,o)
);
}
);
userData = {
assembly = "PUSHB[ ]	/* 6 values pushed */
86 1 10 9 1 66
MPPEM[ ]	/* MeasurePixelPerEm */
PUSHB[ ]	/* 1 value pushed */
45
LT[ ]	/* LessThan */
IF[ ]	/* If */
NPUSHB[ ]	/* 43 values pushed */
0 1 0 1 106 0 0 9 0 106 0 10 0 4 5 10 4 90 0 2 0 3 2 3 87 0 9 9 20 67 8 7 2 5 5 6 83 0 6 6 13 6 68
ELSE[ ]	/* Else */
NPUSHB[ ]	/* 43 values pushed */
0 1 0 1 106 0 0 9 0 106 0 9 10 9 106 0 10 0 4 5 10 4 90 0 2 0 3 2 3 87 8 7 2 5 5 6 83 0 6 6 13 6 68
EIF[ ]	/* EndIf */
NPUSHB[ ]	/* 15 values pushed */
99 93 84 82 19 36 52 56 30 52 36 38 36 11 24
CALL[ ]	/* CallFunction */";
};
width = 698;
},
{
layerId = "E59D8378-1062-4241-9A8F-EEB295F00E05";
shapes = (
{
closed = 1;
nodes = (
(390,972,o),
(382,972,qs),
(375,972,o),
(343,952,o),
(311,925,o),
(287,895,o),
(287,886,qs),
(287,875,o),
(295,875,qs),
(302,875,o),
(337,893,o),
(373,917,o),
(401,942,o),
(401,950,qs),
(401,964,o)
);
},
{
closed = 1;
nodes = (
(362,827,o),
(350,835,o),
(345,835,qs),
(337,835,o),
(326,824,o),
(324,816,qs),
(314,782,o),
(283,669,o),
(245,532,o),
(204,381,o),
(164,237,o),
(125,112,o),
(110,69,qs),
(103,51,o),
(83,33,o),
(61,31,qs),
(57,31,o),
(36,29,o),
(9,27,o),
(-20,25,o),
(-30,25,qs),
(-50,25,o),
(-50,14,qs),
(-50,6,o),
(-36,0,o),
(-27,0,qs),
(225,0,ls),
(245,0,o),
(259,10,o),
(259,15,qs),
(259,26,o),
(235,29,o),
(225,29,qs),
(214,29,o),
(189,29,o),
(168,32,o),
(154,38,o),
(154,45,qs),
(154,56,o),
(165,101,o),
(181,156,o),
(199,214,o),
(206,238,q),
(477,238,l),
(479,229,o),
(490,189,o),
(504,140,o),
(518,85,o),
(530,37,o),
(538,1,o),
(538,-5,qs),
(538,-17,o),
(508,-25,o),
(472,-27,o),
(442,-32,o),
(442,-41,qs),
(442,-49,o),
(455,-55,o),
(473,-55,qs),
(686,-55,ls),
(721,-55,o),
(721,-41,qs),
(721,-32,o),
(699,-29,o),
(685,-29,qs),
(637,-29,o),
(587,-17,o),
(582,3,qs),
(365,816,ls)
);
},
{
closed = 1;
nodes = (
(390,573,o),
(423,445,o),
(453,323,o),
(465,274,q),
(434,273,o),
(371,272,o),
(340,272,qs),
(309,272,o),
(249,273,o),
(218,274,q),
(225,304,o),
(246,388,o),
(271,481,o),
(297,578,o),
(321,664,o),
(339,735,o),
(343,755,q),
(358,700,o)
);
}
);
userData = {
assembly = "PUSHB[ ]	/* 6 values pushed */
84 1 11 10 1 66
MPPEM[ ]	/* MeasurePixelPerEm */
PUSHB[ ]	/* 1 value pushed */
45
LT[ ]	/* LessThan */
IF[ ]	/* If */
NPUSHB[ ]	/* 44 values pushed */
0 1 0 1 106 0 0 10 0 106 0 11 0 5 6 11 5 90 4 1 2 0 3 2 3 87 0 10 10 20 67 9 8 2 6 6 7 83 0 7 7 13 7 68
ELSE[ ]	/* Else */
NPUSHB[ ]	/* 44 values pushed */
0 1 0 1 106 0 0 10 0 106 0 10 11 10 106 0 11 0 5 6 11 5 90 4 1 2 0 3 2 3 87 9 8 2 6 6 7 83 0 7 7 13 7 68
EIF[ ]	/* EndIf */
NPUSHB[ ]	/* 17 values pushed */
97 91 81 79 67 66 51 52 56 25 20 51 36 37 36 12 24
CALL[ ]	/* CallFunction */";
};
width = 681;
}
);
note = Aacute;
unicode = 193;
},
{
glyphname = Abreve;
kernLeft = Aacute;
kernRight = Aacute;
lastChange = "2024-06-13 14:18:27 +0000";
layers = (
{
layerId = m01;
shapes = (
{
closed = 1;
nodes = (
(404,816,o),
(380,838,o),
(359,838,qs),
(333,838,o),
(312,815,o),
(305,792,qs),
(295,760,o),
(266,655,o),
(232,529,o),
(194,391,o),
(156,259,o),
(121,142,o),
(107,101,qs),
(100,81,o),
(76,65,o),
(58,63,qs),
(56,63,o),
(39,61,o),
(19,59,o),
(3,57,o),
(1,57,qs),
(-9,57,o),
(-28,43,o),
(-28,30,qs),
(-28,16,o),
(-14,0,o),
(-5,0,qs),
(273,0,ls),
(293,0,o),
(307,18,o),
(307,29,qs),
(307,47,o),
(290,61,o),
(274,61,qs),
(239,61,o),
(202,69,o),
(202,77,qs),
(202,85,o),
(208,117,o),
(218,156,o),
(231,197,o),
(238,214,q),
(470,214,l),
(473,203,o),
(489,150,o),
(505,92,o),
(517,42,o),
(517,35,qs),
(517,14,o),
(500,-1,o),
(481,-8,o),
(464,-17,o),
(464,-33,qs),
(464,-41,o),
(477,-55,o),
(495,-55,qs),
(742,-55,ls),
(759,-55,o),
(777,-43,o),
(777,-25,qs),
(777,-8,o),
(747,3,o),
(733,3,qs),
(697,3,o),
(652,6,o),
(626,14,o),
(615,26,o),
(613,35,qs),
(410,793,ls)
);
},
{
closed = 1;
nodes = (
(393,541,o),
(416,440,o),
(441,342,o),
(453,298,q),
(444,298,o),
(419,297,o),
(392,296,o),
(367,296,o),
(358,296,qs),
(343,296,o),
(320,296,o),
(300,297,o),
(277,298,o),
(262,298,q),
(273,338,o),
(301,451,o),
(330,565,o),
(355,664,o),
(362,691,q),
(371,643,o)
);
},
{
closed = 1;
nodes = (
(472,971,o),
(457,971,qs),
(444,971,o),
(425,953,o),
(425,942,qs),
(425,934,o),
(398,919,o),
(369,919,qs),
(360,919,o),
(339,921,o),
(321,927,o),
(310,936,o),
(310,942,qs),
(310,959,o),
(291,971,o),
(274,971,qs),
(257,971,o),
(242,954,o),
(242,941,qs),
(242,909,o),
(309,862,o),
(374,862,qs),
(393,862,o),
(436,872,o),
(472,892,o),
(495,921,o),
(495,941,qs),
(495,961,o)
);
}
);
userData = {
assembly = "PUSHB[ ]	/* 6 values pushed */
69 1 8 7 1 66
MPPEM[ ]	/* MeasurePixelPerEm */
PUSHB[ ]	/* 1 value pushed */
45
LT[ ]	/* LessThan */
IF[ ]	/* If */
NPUSHB[ ]	/* 47 values pushed */
12 1 10 11 10 106 0 11 0 9 7 11 9 91 0 8 0 2 3 8 2 90 0 0 0 1 0 1 87 0 7 7 20 67 6 5 2 3 3 4 83 0 4 4 13 4 68
ELSE[ ]	/* Else */
NPUSHB[ ]	/* 50 values pushed */
12 1 10 11 10 106 0 7 9 8 9 7 8 104 0 11 0 9 7 11 9 91 0 8 0 2 3 8 2 90 0 0 0 1 0 1 87 6 5 2 3 3 4 83 0 4 4 13 4 68
EIF[ ]	/* EndIf */
NPUSHB[ ]	/* 19 values pushed */
115 113 109 107 101 99 95 93 168 44 19 36 52 39 28 52 51 13 24
CALL[ ]	/* CallFunction */";
};
width = 710;
},
{
layerId = "62092E79-60F6-4D0B-8A38-B9DDC6B60A9E";
shapes = (
{
alignment = -1;
ref = .ttfautohint;
},
{
alignment = -1;
ref = A;
},
{
alignment = -1;
pos = (246,355);
ref = breve;
}
);
userData = {
assembly = "PUSHB[ ]	/* 6 values pushed */
71 1 8 7 1 66
MPPEM[ ]	/* MeasurePixelPerEm */
PUSHB[ ]	/* 1 value pushed */
45
LT[ ]	/* LessThan */
IF[ ]	/* If */
NPUSHB[ ]	/* 47 values pushed */
12 1 10 11 10 106 0 11 0 9 7 11 9 91 0 8 0 2 3 8 2 90 0 0 0 1 0 1 87 0 7 7 20 67 6 5 2 3 3 4 83 0 4 4 13 4 68
ELSE[ ]	/* Else */
NPUSHB[ ]	/* 50 values pushed */
12 1 10 11 10 106 0 7 9 8 9 7 8 104 0 11 0 9 7 11 9 91 0 8 0 2 3 8 2 90 0 0 0 1 0 1 87 6 5 2 3 3 4 83 0 4 4 13 4 68
EIF[ ]	/* EndIf */
NPUSHB[ ]	/* 19 values pushed */
114 112 108 106 100 98 95 93 105 44 19 36 52 56 30 52 35 13 35
CALL[ ]	/* CallFunction */";
};
width = 698;
},
{
layerId = "E59D8378-1062-4241-9A8F-EEB295F00E05";
shapes = (
{
closed = 1;
nodes = (
(447,972,o),
(439,972,qs),
(422,972,o),
(422,949,qs),
(422,939,o),
(409,921,o),
(387,908,o),
(360,900,o),
(347,900,qs),
(333,900,o),
(306,904,o),
(285,914,o),
(273,934,o),
(273,949,qs),
(273,961,o),
(267,972,o),
(256,972,qs),
(239,972,o),
(239,948,qs),
(239,918,o),
(302,875,o),
(347,875,qs),
(366,875,o),
(406,884,o),
(438,902,o),
(458,930,o),
(458,948,qs),
(458,964,o)
);
},
{
closed = 1;
nodes = (
(362,827,o),
(350,835,o),
(345,835,qs),
(337,835,o),
(326,824,o),
(324,816,qs),
(314,782,o),
(283,669,o),
(245,532,o),
(204,381,o),
(164,237,o),
(125,112,o),
(110,69,qs),
(103,51,o),
(83,33,o),
(61,31,qs),
(57,31,o),
(36,29,o),
(9,27,o),
(-20,25,o),
(-30,25,qs),
(-50,25,o),
(-50,14,qs),
(-50,6,o),
(-36,0,o),
(-27,0,qs),
(225,0,ls),
(245,0,o),
(259,10,o),
(259,15,qs),
(259,26,o),
(235,29,o),
(225,29,qs),
(214,29,o),
(189,29,o),
(168,32,o),
(154,38,o),
(154,45,qs),
(154,56,o),
(165,101,o),
(181,156,o),
(199,214,o),
(206,238,q),
(477,238,l),
(479,229,o),
(490,189,o),
(504,140,o),
(518,85,o),
(530,37,o),
(538,1,o),
(538,-5,qs),
(538,-17,o),
(508,-25,o),
(472,-27,o),
(442,-32,o),
(442,-41,qs),
(442,-49,o),
(455,-55,o),
(473,-55,qs),
(686,-55,ls),
(721,-55,o),
(721,-41,qs),
(721,-32,o),
(699,-29,o),
(685,-29,qs),
(637,-29,o),
(587,-17,o),
(582,3,qs),
(365,816,ls)
);
},
{
closed = 1;
nodes = (
(390,573,o),
(423,445,o),
(453,323,o),
(465,274,q),
(434,273,o),
(371,272,o),
(340,272,qs),
(309,272,o),
(249,273,o),
(218,274,q),
(225,304,o),
(246,388,o),
(271,481,o),
(297,578,o),
(321,664,o),
(339,735,o),
(343,755,q),
(358,700,o)
);
}
);
userData = {
assembly = "PUSHB[ ]	/* 6 values pushed */
97 1 13 12 1 66
MPPEM[ ]	/* MeasurePixelPerEm */
PUSHB[ ]	/* 1 value pushed */
45
LT[ ]	/* LessThan */
IF[ ]	/* If */
NPUSHB[ ]	/* 48 values pushed */
3 1 1 2 1 106 0 2 0 0 12 2 0 91 0 13 0 7 8 13 7 90 6 1 4 0 5 4 5 87 0 12 12 20 67 11 10 2 8 8 9 83 0 9 9 13 9 68
ELSE[ ]	/* Else */
NPUSHB[ ]	/* 51 values pushed */
3 1 1 2 1 106 0 12 0 13 0 12 13 104 0 2 0 0 12 2 0 91 0 13 0 7 8 13 7 90 6 1 4 0 5 4 5 87 11 10 2 8 8 9 83 0 9 9 13 9 68
EIF[ ]	/* EndIf */
NPUSHB[ ]	/* 21 values pushed */
110 104 94 92 80 79 77 74 71 68 56 25 20 51 36 37 38 35 36 14 24
CALL[ ]	/* CallFunction */";
};
width = 681;
}
);
note = Abreve;
unicode = 258;
},
{
glyphname = Acircumflex;
kernLeft = Aacute;
kernRight = Aacute;
lastChange = "2024-06-13 14:18:27 +0000";
layers = (
{
layerId = m01;
shapes = (
{
closed = 1;
nodes = (
(501,845,o),
(501,852,qs),
(501,868,o),
(466,910,o),
(420,947,o),
(377,972,o),
(368,972,qs),
(361,972,o),
(318,947,o),
(272,910,o),
(236,865,o),
(236,846,qs),
(236,841,o),
(242,832,o),
(249,832,qs),
(260,832,o),
(328,858,o),
(368,880,q),
(408,858,o),
(477,832,o),
(488,832,qs),
(496,832,o)
);
},
{
closed = 1;
nodes = (
(404,816,o),
(380,838,o),
(359,838,qs),
(333,838,o),
(312,815,o),
(305,792,qs),
(295,760,o),
(266,655,o),
(232,529,o),
(194,391,o),
(156,259,o),
(121,142,o),
(107,101,qs),
(100,81,o),
(76,65,o),
(58,63,qs),
(56,63,o),
(39,61,o),
(19,59,o),
(3,57,o),
(1,57,qs),
(-9,57,o),
(-28,43,o),
(-28,30,qs),
(-28,16,o),
(-14,0,o),
(-5,0,qs),
(273,0,ls),
(293,0,o),
(307,18,o),
(307,29,qs),
(307,47,o),
(290,61,o),
(274,61,qs),
(239,61,o),
(202,69,o),
(202,77,qs),
(202,85,o),
(208,117,o),
(218,156,o),
(231,197,o),
(238,214,q),
(470,214,l),
(473,203,o),
(489,150,o),
(505,92,o),
(517,42,o),
(517,35,qs),
(517,14,o),
(500,-1,o),
(481,-8,o),
(464,-17,o),
(464,-33,qs),
(464,-41,o),
(477,-55,o),
(495,-55,qs),
(742,-55,ls),
(759,-55,o),
(777,-43,o),
(777,-25,qs),
(777,-8,o),
(747,3,o),
(733,3,qs),
(697,3,o),
(652,6,o),
(626,14,o),
(615,26,o),
(613,35,qs),
(410,793,ls)
);
},
{
closed = 1;
nodes = (
(393,541,o),
(416,440,o),
(441,342,o),
(453,298,q),
(444,298,o),
(419,297,o),
(392,296,o),
(367,296,o),
(358,296,qs),
(343,296,o),
(320,296,o),
(300,297,o),
(277,298,o),
(262,298,q),
(273,338,o),
(301,451,o),
(330,565,o),
(355,664,o),
(362,691,q),
(371,643,o)
);
}
);
userData = {
assembly = "NPUSHB[ ]	/* 10 values pushed */
3 1 10 2 91 1 11 0 2 66
MPPEM[ ]	/* MeasurePixelPerEm */
PUSHB[ ]	/* 1 value pushed */
45
LT[ ]	/* LessThan */
IF[ ]	/* If */
NPUSHB[ ]	/* 48 values pushed */
0 2 10 2 106 1 12 2 0 10 11 10 0 11 104 0 11 0 5 6 11 5 90 0 3 0 4 3 4 87 0 10 10 20 67 9 8 2 6 6 7 83 0 7 7 13 7 68
ELSE[ ]	/* Else */
NPUSHB[ ]	/* 45 values pushed */
0 2 10 2 106 0 10 0 10 106 1 12 2 0 11 0 106 0 11 0 5 6 11 5 90 0 3 0 4 3 4 87 9 8 2 6 6 7 83 0 7 7 13 7 68
EIF[ ]	/* EndIf */
NPUSHB[ ]	/* 30 values pushed */
1 0 106 96 88 86 74 73 70 68 64 61 57 55 48 47 35 32 28 25 15 13 7 5 0 21 1 21 13 15
CALL[ ]	/* CallFunction */";
};
width = 710;
},
{
layerId = "62092E79-60F6-4D0B-8A38-B9DDC6B60A9E";
shapes = (
{
closed = 1;
nodes = (
(489,858,o),
(489,865,qs),
(489,878,o),
(455,915,o),
(410,949,o),
(367,972,o),
(358,972,qs),
(350,972,o),
(308,949,o),
(263,915,o),
(228,877,o),
(228,861,qs),
(228,848,o),
(239,848,qs),
(244,848,o),
(270,856,o),
(303,870,o),
(341,888,o),
(358,898,q),
(375,888,o),
(413,870,o),
(447,856,o),
(473,848,o),
(478,848,qs),
(484,848,o)
);
},
{
closed = 1;
nodes = (
(382,837,o),
(353,837,qs),
(335,837,o),
(319,824,o),
(317,816,qs),
(307,783,o),
(276,673,o),
(240,540,o),
(199,393,o),
(160,253,o),
(123,131,o),
(108,89,qs),
(102,71,o),
(80,53,o),
(59,51,qs),
(56,51,o),
(39,49,o),
(17,47,o),
(-5,45,o),
(-12,45,qs),
(-22,45,o),
(-37,34,o),
(-37,24,qs),
(-37,13,o),
(-23,0,o),
(-14,0,qs),
(253,0,ls),
(273,0,o),
(287,15,o),
(287,24,qs),
(287,39,o),
(268,49,o),
(258,49,qs),
(247,49,o),
(220,49,o),
(197,52,o),
(182,59,o),
(182,65,qs),
(182,74,o),
(190,111,o),
(203,156,o),
(218,203,o),
(225,223,q),
(473,223,l),
(475,215,o),
(485,181,o),
(497,139,o),
(509,92,o),
(519,51,o),
(526,20,o),
(526,15,qs),
(526,-4,o),
(504,-18,o),
(477,-23,o),
(455,-28,o),
(455,-39,qs),
(455,-47,o),
(468,-55,o),
(486,-55,qs),
(719,-55,ls),
(736,-55,o),
(754,-45,o),
(754,-31,qs),
(754,-17,o),
(727,-9,o),
(713,-9,qs),
(665,-9,o),
(606,0,o),
(600,23,qs),
(388,816,ls)
);
},
{
closed = 1;
nodes = (
(393,553,o),
(420,441,o),
(446,335,o),
(458,289,q),
(435,288,o),
(386,288,o),
(363,288,qs),
(332,288,o),
(275,288,o),
(244,289,q),
(251,317,o),
(271,392,o),
(292,474,o),
(315,558,o),
(335,634,o),
(351,696,o),
(356,715,q),
(367,664,o)
);
}
);
userData = {
assembly = "NPUSHB[ ]	/* 10 values pushed */
5 1 0 2 95 1 11 10 2 66
MPPEM[ ]	/* MeasurePixelPerEm */
PUSHB[ ]	/* 1 value pushed */
45
LT[ ]	/* LessThan */
IF[ ]	/* If */
NPUSHB[ ]	/* 45 values pushed */
0 2 0 2 106 1 12 2 0 10 0 106 0 11 0 5 6 11 5 90 0 3 0 4 3 4 87 0 10 10 20 67 9 8 2 6 6 7 83 0 7 7 13 7 68
ELSE[ ]	/* Else */
NPUSHB[ ]	/* 45 values pushed */
0 2 0 2 106 1 12 2 0 10 0 106 0 10 11 10 106 0 11 0 5 6 11 5 90 0 3 0 4 3 4 87 9 8 2 6 6 7 83 0 7 7 13 7 68
EIF[ ]	/* EndIf */
NPUSHB[ ]	/* 30 values pushed */
1 0 108 102 93 91 79 78 75 73 69 66 62 59 51 50 36 33 29 27 18 16 11 9 0 24 1 24 13 15
CALL[ ]	/* CallFunction */";
};
width = 698;
},
{
layerId = "E59D8378-1062-4241-9A8F-EEB295F00E05";
shapes = (
{
closed = 1;
nodes = (
(472,886,qs),
(472,895,o),
(439,925,o),
(396,952,o),
(353,972,o),
(344,972,qs),
(335,972,o),
(294,952,o),
(250,925,o),
(217,895,o),
(217,886,qs),
(217,875,o),
(225,875,qs),
(230,875,o),
(259,885,o),
(294,901,o),
(330,919,o),
(344,928,q),
(357,919,o),
(394,901,o),
(430,885,o),
(459,875,o),
(464,875,qs),
(472,875,o)
);
},
{
closed = 1;
nodes = (
(362,827,o),
(350,835,o),
(345,835,qs),
(337,835,o),
(326,824,o),
(324,816,qs),
(314,782,o),
(283,669,o),
(245,532,o),
(204,381,o),
(164,237,o),
(125,112,o),
(110,69,qs),
(103,51,o),
(83,33,o),
(61,31,qs),
(57,31,o),
(36,29,o),
(9,27,o),
(-20,25,o),
(-30,25,qs),
(-50,25,o),
(-50,14,qs),
(-50,6,o),
(-36,0,o),
(-27,0,qs),
(225,0,ls),
(245,0,o),
(259,10,o),
(259,15,qs),
(259,26,o),
(235,29,o),
(225,29,qs),
(214,29,o),
(189,29,o),
(168,32,o),
(154,38,o),
(154,45,qs),
(154,56,o),
(165,101,o),
(181,156,o),
(199,214,o),
(206,238,q),
(477,238,l),
(479,229,o),
(490,189,o),
(504,140,o),
(518,85,o),
(530,37,o),
(538,1,o),
(538,-5,qs),
(538,-17,o),
(508,-25,o),
(472,-27,o),
(442,-32,o),
(442,-41,qs),
(442,-49,o),
(455,-55,o),
(473,-55,qs),
(686,-55,ls),
(721,-55,o),
(721,-41,qs),
(721,-32,o),
(699,-29,o),
(685,-29,qs),
(637,-29,o),
(587,-17,o),
(582,3,qs),
(365,816,ls)
);
},
{
closed = 1;
nodes = (
(390,573,o),
(423,445,o),
(453,323,o),
(465,274,q),
(434,273,o),
(371,272,o),
(340,272,qs),
(309,272,o),
(249,273,o),
(218,274,q),
(225,304,o),
(246,388,o),
(271,481,o),
(297,578,o),
(321,664,o),
(339,735,o),
(343,755,q),
(358,700,o)
);
}
);
userData = {
assembly = "NPUSHB[ ]	/* 10 values pushed */
5 1 0 2 93 1 12 11 2 66
MPPEM[ ]	/* MeasurePixelPerEm */
PUSHB[ ]	/* 1 value pushed */
45
LT[ ]	/* LessThan */
IF[ ]	/* If */
NPUSHB[ ]	/* 46 values pushed */
0 2 0 2 106 1 13 2 0 11 0 106 0 12 0 6 7 12 6 90 5 1 3 0 4 3 4 87 0 11 11 20 67 10 9 2 7 7 8 83 0 8 8 13 8 68
ELSE[ ]	/* Else */
NPUSHB[ ]	/* 46 values pushed */
0 2 0 2 106 1 13 2 0 11 0 106 0 11 12 11 106 0 12 0 6 7 12 6 90 5 1 3 0 4 3 4 87 10 9 2 7 7 8 83 0 8 8 13 8 68
EIF[ ]	/* EndIf */
NPUSHB[ ]	/* 32 values pushed */
1 0 106 100 90 88 76 75 73 70 67 64 60 57 49 48 39 38 34 31 28 26 18 16 11 9 0 23 1 23 14 15
CALL[ ]	/* CallFunction */";
};
width = 681;
}
);
note = Acircumflex;
unicode = 194;
},
{
glyphname = Adieresis;
kernLeft = Aacute;
kernRight = Aacute;
lastChange = "2024-06-13 14:18:27 +0000";
layers = (
{
layerId = m01;
shapes = (
{
closed = 1;
nodes = (
(231,841,o),
(256,841,qs),
(267,841,o),
(291,847,o),
(310,863,o),
(323,890,o),
(323,911,qs),
(323,938,o),
(287,972,o),
(263,972,qs),
(245,972,o),
(220,958,o),
(204,938,o),
(197,915,o),
(197,907,qs),
(197,878,o)
);
},
{
closed = 1;
nodes = (
(438,830,o),
(463,830,qs),
(474,830,o),
(498,836,o),
(517,852,o),
(530,879,o),
(530,900,qs),
(530,928,o),
(494,961,o),
(470,961,qs),
(452,961,o),
(427,947,o),
(411,927,o),
(404,904,o),
(404,896,qs),
(404,867,o)
);
},
{
closed = 1;
nodes = (
(404,816,o),
(380,838,o),
(359,838,qs),
(333,838,o),
(312,815,o),
(305,792,qs),
(295,760,o),
(266,655,o),
(232,529,o),
(194,391,o),
(156,259,o),
(121,142,o),
(107,101,qs),
(100,81,o),
(76,65,o),
(58,63,qs),
(56,63,o),
(39,61,o),
(19,59,o),
(3,57,o),
(1,57,qs),
(-9,57,o),
(-28,43,o),
(-28,30,qs),
(-28,16,o),
(-14,0,o),
(-5,0,qs),
(273,0,ls),
(293,0,o),
(307,18,o),
(307,29,qs),
(307,47,o),
(290,61,o),
(274,61,qs),
(239,61,o),
(202,69,o),
(202,77,qs),
(202,85,o),
(208,117,o),
(218,156,o),
(231,197,o),
(238,214,q),
(470,214,l),
(473,203,o),
(489,150,o),
(505,92,o),
(517,42,o),
(517,35,qs),
(517,14,o),
(500,-1,o),
(481,-8,o),
(464,-17,o),
(464,-33,qs),
(464,-41,o),
(477,-55,o),
(495,-55,qs),
(742,-55,ls),
(759,-55,o),
(777,-43,o),
(777,-25,qs),
(777,-8,o),
(747,3,o),
(733,3,qs),
(697,3,o),
(652,6,o),
(626,14,o),
(615,26,o),
(613,35,qs),
(410,793,ls)
);
},
{
closed = 1;
nodes = (
(393,541,o),
(416,440,o),
(441,342,o),
(453,298,q),
(444,298,o),
(419,297,o),
(392,296,o),
(367,296,o),
(358,296,qs),
(343,296,o),
(320,296,o),
(300,297,o),
(277,298,o),
(262,298,q),
(273,338,o),
(301,451,o),
(330,565,o),
(355,664,o),
(362,691,q),
(371,643,o)
);
}
);
userData = {
assembly = "MPPEM[ ]	/* MeasurePixelPerEm */
PUSHB[ ]	/* 1 value pushed */
22
LT[ ]	/* LessThan */
IF[ ]	/* If */
PUSHB[ ]	/* 6 values pushed */
101 1 12 11 1 66
ELSE[ ]	/* Else */
PUSHB[ ]	/* 6 values pushed */
101 1 12 3 1 66
EIF[ ]	/* EndIf */
MPPEM[ ]	/* MeasurePixelPerEm */
PUSHB[ ]	/* 1 value pushed */
22
LT[ ]	/* LessThan */
IF[ ]	/* If */
NPUSHB[ ]	/* 43 values pushed */
2 1 0 3 1 1 11 0 1 91 0 12 0 6 7 12 6 90 0 4 0 5 4 5 87 0 11 11 20 67 10 9 2 7 7 8 83 0 8 8 13 8 68
ELSE[ ]	/* Else */
MPPEM[ ]	/* MeasurePixelPerEm */
PUSHB[ ]	/* 1 value pushed */
45
LT[ ]	/* LessThan */
IF[ ]	/* If */
NPUSHB[ ]	/* 49 values pushed */
0 0 0 1 11 0 1 91 0 2 0 3 12 2 3 91 0 12 0 6 7 12 6 90 0 4 0 5 4 5 87 0 11 11 20 67 10 9 2 7 7 8 83 0 8 8 13 8 68
ELSE[ ]	/* Else */
NPUSHB[ ]	/* 52 values pushed */
0 11 1 3 1 11 3 104 0 0 0 1 11 0 1 91 0 2 0 3 12 2 3 91 0 12 0 6 7 12 6 90 0 4 0 5 4 5 87 10 9 2 7 7 8 83 0 8 8 13 8 68
EIF[ ]	/* EndIf */
EIF[ ]	/* EndIf */
NPUSHB[ ]	/* 19 values pushed */
116 106 98 96 84 83 80 78 52 39 28 52 53 38 38 38 36 13 24
CALL[ ]	/* CallFunction */";
};
width = 710;
},
{
layerId = "62092E79-60F6-4D0B-8A38-B9DDC6B60A9E";
shapes = (
{
closed = 1;
nodes = (
(229,859,o),
(249,859,qs),
(268,859,o),
(305,884,o),
(305,920,qs),
(305,943,o),
(276,972,o),
(256,972,qs),
(241,972,o),
(220,960,o),
(206,942,o),
(200,923,o),
(200,916,qs),
(200,891,o)
);
},
{
closed = 1;
nodes = (
(436,847,o),
(456,847,qs),
(475,847,o),
(512,872,o),
(512,908,qs),
(512,931,o),
(483,960,o),
(463,960,qs),
(448,960,o),
(427,948,o),
(413,930,o),
(407,911,o),
(407,904,qs),
(407,879,o)
);
},
{
closed = 1;
nodes = (
(382,837,o),
(353,837,qs),
(335,837,o),
(319,824,o),
(317,816,qs),
(307,783,o),
(276,673,o),
(240,540,o),
(199,393,o),
(160,253,o),
(123,131,o),
(108,89,qs),
(102,71,o),
(80,53,o),
(59,51,qs),
(56,51,o),
(39,49,o),
(17,47,o),
(-5,45,o),
(-12,45,qs),
(-22,45,o),
(-37,34,o),
(-37,24,qs),
(-37,13,o),
(-23,0,o),
(-14,0,qs),
(253,0,ls),
(273,0,o),
(287,15,o),
(287,24,qs),
(287,39,o),
(268,49,o),
(258,49,qs),
(247,49,o),
(220,49,o),
(197,52,o),
(182,59,o),
(182,65,qs),
(182,74,o),
(190,111,o),
(203,156,o),
(218,203,o),
(225,223,q),
(473,223,l),
(475,215,o),
(485,181,o),
(497,139,o),
(509,92,o),
(519,51,o),
(526,20,o),
(526,15,qs),
(526,-4,o),
(504,-18,o),
(477,-23,o),
(455,-28,o),
(455,-39,qs),
(455,-47,o),
(468,-55,o),
(486,-55,qs),
(719,-55,ls),
(736,-55,o),
(754,-45,o),
(754,-31,qs),
(754,-17,o),
(727,-9,o),
(713,-9,qs),
(665,-9,o),
(606,0,o),
(600,23,qs),
(388,816,ls)
);
},
{
closed = 1;
nodes = (
(393,553,o),
(420,441,o),
(446,335,o),
(458,289,q),
(435,288,o),
(386,288,o),
(363,288,qs),
(332,288,o),
(275,288,o),
(244,289,q),
(251,317,o),
(271,392,o),
(292,474,o),
(315,558,o),
(335,634,o),
(351,696,o),
(356,715,q),
(367,664,o)
);
}
);
userData = {
assembly = "PUSHB[ ]	/* 6 values pushed */
98 1 12 11 1 66
MPPEM[ ]	/* MeasurePixelPerEm */
PUSHB[ ]	/* 1 value pushed */
45
LT[ ]	/* LessThan */
IF[ ]	/* If */
NPUSHB[ ]	/* 49 values pushed */
0 0 0 1 3 0 1 91 0 2 0 3 11 2 3 91 0 12 0 6 7 12 6 90 0 4 0 5 4 5 87 0 11 11 20 67 10 9 2 7 7 8 83 0 8 8 13 8 68
ELSE[ ]	/* Else */
NPUSHB[ ]	/* 52 values pushed */
0 11 3 12 3 11 12 104 0 0 0 1 3 0 1 91 0 2 0 3 11 2 3 91 0 12 0 6 7 12 6 90 0 4 0 5 4 5 87 10 9 2 7 7 8 83 0 8 8 13 8 68
EIF[ ]	/* EndIf */
NPUSHB[ ]	/* 19 values pushed */
111 105 96 94 82 81 78 76 52 56 30 52 36 36 38 36 36 13 24
CALL[ ]	/* CallFunction */";
};
width = 698;
},
{
layerId = "E59D8378-1062-4241-9A8F-EEB295F00E05";
shapes = (
{
closed = 1;
nodes = (
(225,889,o),
(239,889,qs),
(253,889,o),
(280,908,o),
(280,935,qs),
(280,952,o),
(260,972,o),
(246,972,qs),
(235,972,o),
(220,963,o),
(210,950,o),
(205,936,o),
(205,931,qs),
(205,913,o)
);
},
{
closed = 1;
nodes = (
(432,875,o),
(446,875,qs),
(460,875,o),
(487,894,o),
(487,921,qs),
(487,938,o),
(467,958,o),
(453,958,qs),
(442,958,o),
(427,949,o),
(417,936,o),
(412,922,o),
(412,917,qs),
(412,899,o)
);
},
{
closed = 1;
nodes = (
(362,827,o),
(350,835,o),
(345,835,qs),
(337,835,o),
(326,824,o),
(324,816,qs),
(314,782,o),
(283,669,o),
(245,532,o),
(204,381,o),
(164,237,o),
(125,112,o),
(110,69,qs),
(103,51,o),
(83,33,o),
(61,31,qs),
(57,31,o),
(36,29,o),
(9,27,o),
(-20,25,o),
(-30,25,qs),
(-50,25,o),
(-50,14,qs),
(-50,6,o),
(-36,0,o),
(-27,0,qs),
(225,0,ls),
(245,0,o),
(259,10,o),
(259,15,qs),
(259,26,o),
(235,29,o),
(225,29,qs),
(214,29,o),
(189,29,o),
(168,32,o),
(154,38,o),
(154,45,qs),
(154,56,o),
(165,101,o),
(181,156,o),
(199,214,o),
(206,238,q),
(477,238,l),
(479,229,o),
(490,189,o),
(504,140,o),
(518,85,o),
(530,37,o),
(538,1,o),
(538,-5,qs),
(538,-17,o),
(508,-25,o),
(472,-27,o),
(442,-32,o),
(442,-41,qs),
(442,-49,o),
(455,-55,o),
(473,-55,qs),
(686,-55,ls),
(721,-55,o),
(721,-41,qs),
(721,-32,o),
(699,-29,o),
(685,-29,qs),
(637,-29,o),
(587,-17,o),
(582,3,qs),
(365,816,ls)
);
},
{
closed = 1;
nodes = (
(390,573,o),
(423,445,o),
(453,323,o),
(465,274,q),
(434,273,o),
(371,272,o),
(340,272,qs),
(309,272,o),
(249,273,o),
(218,274,q),
(225,304,o),
(246,388,o),
(271,481,o),
(297,578,o),
(321,664,o),
(339,735,o),
(343,755,q),
(358,700,o)
);
}
);
userData = {
assembly = "PUSHB[ ]	/* 6 values pushed */
97 1 13 12 1 66
MPPEM[ ]	/* MeasurePixelPerEm */
PUSHB[ ]	/* 1 value pushed */
45
LT[ ]	/* LessThan */
IF[ ]	/* If */
NPUSHB[ ]	/* 50 values pushed */
0 0 0 1 3 0 1 91 0 2 0 3 12 2 3 91 0 13 0 7 8 13 7 90 6 1 4 0 5 4 5 87 0 12 12 20 67 11 10 2 8 8 9 83 0 9 9 13 9 68
ELSE[ ]	/* Else */
NPUSHB[ ]	/* 53 values pushed */
0 12 3 13 3 12 13 104 0 0 0 1 3 0 1 91 0 2 0 3 12 2 3 91 0 13 0 7 8 13 7 90 6 1 4 0 5 4 5 87 11 10 2 8 8 9 83 0 9 9 13 9 68
EIF[ ]	/* EndIf */
NPUSHB[ ]	/* 21 values pushed */
110 104 94 92 80 79 77 74 71 68 56 25 20 51 36 36 38 36 36 14 24
CALL[ ]	/* CallFunction */";
};
width = 681;
}
);
note = Adieresis;
unicode = 196;
},
{
glyphname = Agrave;
kernLeft = Aacute;
kernRight = Aacute;
lastChange = "2024-06-13 14:18:27 +0000";
layers = (
{
layerId = m01;
shapes = (
{
closed = 1;
nodes = (
(321,888,o),
(359,860,o),
(400,841,o),
(413,841,qs),
(428,841,o),
(448,860,o),
(448,872,qs),
(448,882,o),
(423,916,o),
(387,949,o),
(348,972,o),
(334,972,qs),
(314,972,o),
(293,949,o),
(293,936,qs),
(293,921,o)
);
},
{
closed = 1;
nodes = (
(404,816,o),
(380,838,o),
(359,838,qs),
(333,838,o),
(312,815,o),
(305,792,qs),
(295,760,o),
(266,655,o),
(232,529,o),
(194,391,o),
(156,259,o),
(121,142,o),
(107,101,qs),
(100,81,o),
(76,65,o),
(58,63,qs),
(56,63,o),
(39,61,o),
(19,59,o),
(3,57,o),
(1,57,qs),
(-9,57,o),
(-28,43,o),
(-28,30,qs),
(-28,16,o),
(-14,0,o),
(-5,0,qs),
(273,0,ls),
(293,0,o),
(307,18,o),
(307,29,qs),
(307,47,o),
(290,61,o),
(274,61,qs),
(239,61,o),
(202,69,o),
(202,77,qs),
(202,85,o),
(208,117,o),
(218,156,o),
(231,197,o),
(238,214,q),
(470,214,l),
(473,203,o),
(489,150,o),
(505,92,o),
(517,42,o),
(517,35,qs),
(517,14,o),
(500,-1,o),
(481,-8,o),
(464,-17,o),
(464,-33,qs),
(464,-41,o),
(477,-55,o),
(495,-55,qs),
(742,-55,ls),
(759,-55,o),
(777,-43,o),
(777,-25,qs),
(777,-8,o),
(747,3,o),
(733,3,qs),
(697,3,o),
(652,6,o),
(626,14,o),
(615,26,o),
(613,35,qs),
(410,793,ls)
);
},
{
closed = 1;
nodes = (
(393,541,o),
(416,440,o),
(441,342,o),
(453,298,q),
(444,298,o),
(419,297,o),
(392,296,o),
(367,296,o),
(358,296,qs),
(343,296,o),
(320,296,o),
(300,297,o),
(277,298,o),
(262,298,q),
(273,338,o),
(301,451,o),
(330,565,o),
(355,664,o),
(362,691,q),
(371,643,o)
);
}
);
userData = {
assembly = "PUSHB[ ]	/* 6 values pushed */
85 1 10 9 1 66
MPPEM[ ]	/* MeasurePixelPerEm */
PUSHB[ ]	/* 1 value pushed */
45
LT[ ]	/* LessThan */
IF[ ]	/* If */
NPUSHB[ ]	/* 43 values pushed */
0 0 1 0 106 0 1 9 1 106 0 10 0 4 5 10 4 90 0 2 0 3 2 3 87 0 9 9 20 67 8 7 2 5 5 6 83 0 6 6 13 6 68
ELSE[ ]	/* Else */
NPUSHB[ ]	/* 43 values pushed */
0 0 1 0 106 0 1 9 1 106 0 9 10 9 106 0 10 0 4 5 10 4 90 0 2 0 3 2 3 87 8 7 2 5 5 6 83 0 6 6 13 6 68
EIF[ ]	/* EndIf */
NPUSHB[ ]	/* 15 values pushed */
100 90 82 80 19 36 52 39 28 52 55 38 34 11 24
CALL[ ]	/* CallFunction */";
};
width = 710;
},
{
layerId = "62092E79-60F6-4D0B-8A38-B9DDC6B60A9E";
shapes = (
{
closed = 1;
nodes = (
(319,899,o),
(356,872,o),
(394,854,o),
(405,854,qs),
(416,854,o),
(429,867,o),
(429,877,qs),
(429,887,o),
(404,919,o),
(370,950,o),
(334,972,o),
(323,972,qs),
(308,972,o),
(291,955,o),
(291,941,qs),
(291,929,o)
);
},
{
closed = 1;
nodes = (
(382,837,o),
(353,837,qs),
(335,837,o),
(319,824,o),
(317,816,qs),
(307,783,o),
(276,673,o),
(240,540,o),
(199,393,o),
(160,253,o),
(123,131,o),
(108,89,qs),
(102,71,o),
(80,53,o),
(59,51,qs),
(56,51,o),
(39,49,o),
(17,47,o),
(-5,45,o),
(-12,45,qs),
(-22,45,o),
(-37,34,o),
(-37,24,qs),
(-37,13,o),
(-23,0,o),
(-14,0,qs),
(253,0,ls),
(273,0,o),
(287,15,o),
(287,24,qs),
(287,39,o),
(268,49,o),
(258,49,qs),
(247,49,o),
(220,49,o),
(197,52,o),
(182,59,o),
(182,65,qs),
(182,74,o),
(190,111,o),
(203,156,o),
(218,203,o),
(225,223,q),
(473,223,l),
(475,215,o),
(485,181,o),
(497,139,o),
(509,92,o),
(519,51,o),
(526,20,o),
(526,15,qs),
(526,-4,o),
(504,-18,o),
(477,-23,o),
(455,-28,o),
(455,-39,qs),
(455,-47,o),
(468,-55,o),
(486,-55,qs),
(719,-55,ls),
(736,-55,o),
(754,-45,o),
(754,-31,qs),
(754,-17,o),
(727,-9,o),
(713,-9,qs),
(665,-9,o),
(606,0,o),
(600,23,qs),
(388,816,ls)
);
},
{
closed = 1;
nodes = (
(393,553,o),
(420,441,o),
(446,335,o),
(458,289,q),
(435,288,o),
(386,288,o),
(363,288,qs),
(332,288,o),
(275,288,o),
(244,289,q),
(251,317,o),
(271,392,o),
(292,474,o),
(315,558,o),
(335,634,o),
(351,696,o),
(356,715,q),
(367,664,o)
);
}
);
userData = {
assembly = "PUSHB[ ]	/* 6 values pushed */
86 1 10 9 1 66
MPPEM[ ]	/* MeasurePixelPerEm */
PUSHB[ ]	/* 1 value pushed */
45
LT[ ]	/* LessThan */
IF[ ]	/* If */
NPUSHB[ ]	/* 43 values pushed */
0 0 1 0 106 0 1 9 1 106 0 10 0 4 5 10 4 90 0 2 0 3 2 3 87 0 9 9 20 67 8 7 2 5 5 6 83 0 6 6 13 6 68
ELSE[ ]	/* Else */
NPUSHB[ ]	/* 43 values pushed */
0 0 1 0 106 0 1 9 1 106 0 9 10 9 106 0 10 0 4 5 10 4 90 0 2 0 3 2 3 87 8 7 2 5 5 6 83 0 6 6 13 6 68
EIF[ ]	/* EndIf */
NPUSHB[ ]	/* 15 values pushed */
99 93 84 82 19 36 52 56 30 52 38 38 34 11 24
CALL[ ]	/* CallFunction */";
};
width = 698;
},
{
layerId = "E59D8378-1062-4241-9A8F-EEB295F00E05";
shapes = (
{
closed = 1;
nodes = (
(316,917,o),
(352,893,o),
(387,875,o),
(394,875,qs),
(402,875,o),
(402,886,qs),
(402,895,o),
(378,925,o),
(346,952,o),
(314,972,o),
(307,972,qs),
(299,972,o),
(288,964,o),
(288,950,qs),
(288,942,o)
);
},
{
closed = 1;
nodes = (
(362,827,o),
(350,835,o),
(345,835,qs),
(337,835,o),
(326,824,o),
(324,816,qs),
(314,782,o),
(283,669,o),
(245,532,o),
(204,381,o),
(164,237,o),
(125,112,o),
(110,69,qs),
(103,51,o),
(83,33,o),
(61,31,qs),
(57,31,o),
(36,29,o),
(9,27,o),
(-20,25,o),
(-30,25,qs),
(-50,25,o),
(-50,14,qs),
(-50,6,o),
(-36,0,o),
(-27,0,qs),
(225,0,ls),
(245,0,o),
(259,10,o),
(259,15,qs),
(259,26,o),
(235,29,o),
(225,29,qs),
(214,29,o),
(189,29,o),
(168,32,o),
(154,38,o),
(154,45,qs),
(154,56,o),
(165,101,o),
(181,156,o),
(199,214,o),
(206,238,q),
(477,238,l),
(479,229,o),
(490,189,o),
(504,140,o),
(518,85,o),
(530,37,o),
(538,1,o),
(538,-5,qs),
(538,-17,o),
(508,-25,o),
(472,-27,o),
(442,-32,o),
(442,-41,qs),
(442,-49,o),
(455,-55,o),
(473,-55,qs),
(686,-55,ls),
(721,-55,o),
(721,-41,qs),
(721,-32,o),
(699,-29,o),
(685,-29,qs),
(637,-29,o),
(587,-17,o),
(582,3,qs),
(365,816,ls)
);
},
{
closed = 1;
nodes = (
(390,573,o),
(423,445,o),
(453,323,o),
(465,274,q),
(434,273,o),
(371,272,o),
(340,272,qs),
(309,272,o),
(249,273,o),
(218,274,q),
(225,304,o),
(246,388,o),
(271,481,o),
(297,578,o),
(321,664,o),
(339,735,o),
(343,755,q),
(358,700,o)
);
}
);
userData = {
assembly = "PUSHB[ ]	/* 6 values pushed */
84 1 11 10 1 66
MPPEM[ ]	/* MeasurePixelPerEm */
PUSHB[ ]	/* 1 value pushed */
45
LT[ ]	/* LessThan */
IF[ ]	/* If */
NPUSHB[ ]	/* 44 values pushed */
0 0 1 0 106 0 1 10 1 106 0 11 0 5 6 11 5 90 4 1 2 0 3 2 3 87 0 10 10 20 67 9 8 2 6 6 7 83 0 7 7 13 7 68
ELSE[ ]	/* Else */
NPUSHB[ ]	/* 44 values pushed */
0 0 1 0 106 0 1 10 1 106 0 10 11 10 106 0 11 0 5 6 11 5 90 4 1 2 0 3 2 3 87 9 8 2 6 6 7 83 0 7 7 13 7 68
EIF[ ]	/* EndIf */
NPUSHB[ ]	/* 17 values pushed */
97 91 81 79 67 66 51 52 56 25 20 51 38 37 34 12 24
CALL[ ]	/* CallFunction */";
};
width = 681;
}
);
note = Agrave;
unicode = 192;
},
{
glyphname = Amacron;
kernLeft = Aacute;
kernRight = Aacute;
lastChange = "2024-06-13 14:18:27 +0000";
layers = (
{
layerId = m01;
shapes = (
{
closed = 1;
nodes = (
(404,816,o),
(380,838,o),
(359,838,qs),
(333,838,o),
(312,815,o),
(305,792,qs),
(295,760,o),
(266,655,o),
(232,529,o),
(194,391,o),
(156,259,o),
(121,142,o),
(107,101,qs),
(100,81,o),
(76,65,o),
(58,63,qs),
(56,63,o),
(39,61,o),
(19,59,o),
(3,57,o),
(1,57,qs),
(-9,57,o),
(-28,43,o),
(-28,30,qs),
(-28,16,o),
(-14,0,o),
(-5,0,qs),
(273,0,ls),
(293,0,o),
(307,18,o),
(307,29,qs),
(307,47,o),
(290,61,o),
(274,61,qs),
(239,61,o),
(202,69,o),
(202,77,qs),
(202,85,o),
(208,117,o),
(218,156,o),
(231,197,o),
(238,214,q),
(470,214,l),
(473,203,o),
(489,150,o),
(505,92,o),
(517,42,o),
(517,35,qs),
(517,14,o),
(500,-1,o),
(481,-8,o),
(464,-17,o),
(464,-33,qs),
(464,-41,o),
(477,-55,o),
(495,-55,qs),
(742,-55,ls),
(759,-55,o),
(777,-43,o),
(777,-25,qs),
(777,-8,o),
(747,3,o),
(733,3,qs),
(697,3,o),
(652,6,o),
(626,14,o),
(615,26,o),
(613,35,qs),
(410,793,ls)
);
},
{
closed = 1;
nodes = (
(393,541,o),
(416,440,o),
(441,342,o),
(453,298,q),
(444,298,o),
(419,297,o),
(392,296,o),
(367,296,o),
(358,296,qs),
(343,296,o),
(320,296,o),
(300,297,o),
(277,298,o),
(262,298,q),
(273,338,o),
(301,451,o),
(330,565,o),
(355,664,o),
(362,691,q),
(371,643,o)
);
},
{
closed = 1;
nodes = (
(421,957,o),
(379,957,qs),
(366,957,o),
(331,958,o),
(295,958,o),
(265,959,o),
(258,959,qs),
(241,959,o),
(225,934,o),
(225,920,qs),
(225,906,o),
(244,880,o),
(258,880,qs),
(276,880,o),
(340,880,o),
(412,881,o),
(479,881,o),
(499,881,qs),
(510,881,o),
(524,890,o),
(532,903,o),
(535,918,o),
(535,923,qs),
(535,938,o),
(518,960,o),
(507,960,qs),
(483,960,o)
);
}
);
userData = {
assembly = "PUSHB[ ]	/* 6 values pushed */
69 1 8 7 1 66
MPPEM[ ]	/* MeasurePixelPerEm */
PUSHB[ ]	/* 1 value pushed */
45
LT[ ]	/* LessThan */
IF[ ]	/* If */
NPUSHB[ ]	/* 42 values pushed */
11 1 9 0 10 7 9 10 91 0 8 0 2 3 8 2 90 0 0 0 1 0 1 87 0 7 7 20 67 6 5 2 3 3 4 83 0 4 4 13 4 68
ELSE[ ]	/* Else */
NPUSHB[ ]	/* 45 values pushed */
0 7 10 8 10 7 8 104 11 1 9 0 10 7 9 10 91 0 8 0 2 3 8 2 90 0 0 0 1 0 1 87 6 5 2 3 3 4 83 0 4 4 13 4 68
EIF[ ]	/* EndIf */
NPUSHB[ ]	/* 19 values pushed */
90 89 103 96 89 115 90 107 168 44 19 36 52 39 28 52 51 12 24
CALL[ ]	/* CallFunction */";
};
width = 710;
},
{
layerId = "62092E79-60F6-4D0B-8A38-B9DDC6B60A9E";
shapes = (
{
alignment = -1;
ref = .ttfautohint;
},
{
alignment = -1;
ref = A;
},
{
alignment = -1;
pos = (213,382);
ref = macron;
}
);
userData = {
assembly = "PUSHB[ ]	/* 6 values pushed */
71 1 8 7 1 66
MPPEM[ ]	/* MeasurePixelPerEm */
PUSHB[ ]	/* 1 value pushed */
45
LT[ ]	/* LessThan */
IF[ ]	/* If */
NPUSHB[ ]	/* 42 values pushed */
11 1 9 0 10 7 9 10 91 0 8 0 2 3 8 2 90 0 0 0 1 0 1 87 0 7 7 20 67 6 5 2 3 3 4 83 0 4 4 13 4 68
ELSE[ ]	/* Else */
NPUSHB[ ]	/* 45 values pushed */
0 7 10 8 10 7 8 104 11 1 9 0 10 7 9 10 91 0 8 0 2 3 8 2 90 0 0 0 1 0 1 87 6 5 2 3 3 4 83 0 4 4 13 4 68
EIF[ ]	/* EndIf */
NPUSHB[ ]	/* 19 values pushed */
90 89 101 94 89 113 90 105 105 44 19 36 52 56 30 52 35 12 35
CALL[ ]	/* CallFunction */";
};
width = 698;
},
{
layerId = "E59D8378-1062-4241-9A8F-EEB295F00E05";
shapes = (
{
closed = 1;
nodes = (
(362,827,o),
(350,835,o),
(345,835,qs),
(337,835,o),
(326,824,o),
(324,816,qs),
(314,782,o),
(283,669,o),
(245,532,o),
(204,381,o),
(164,237,o),
(125,112,o),
(110,69,qs),
(103,51,o),
(83,33,o),
(61,31,qs),
(57,31,o),
(36,29,o),
(9,27,o),
(-20,25,o),
(-30,25,qs),
(-50,25,o),
(-50,14,qs),
(-50,6,o),
(-36,0,o),
(-27,0,qs),
(225,0,ls),
(245,0,o),
(259,10,o),
(259,15,qs),
(259,26,o),
(235,29,o),
(225,29,qs),
(214,29,o),
(189,29,o),
(168,32,o),
(154,38,o),
(154,45,qs),
(154,56,o),
(165,101,o),
(181,156,o),
(199,214,o),
(206,238,q),
(477,238,l),
(479,229,o),
(490,189,o),
(504,140,o),
(518,85,o),
(530,37,o),
(538,1,o),
(538,-5,qs),
(538,-17,o),
(508,-25,o),
(472,-27,o),
(442,-32,o),
(442,-41,qs),
(442,-49,o),
(455,-55,o),
(473,-55,qs),
(686,-55,ls),
(721,-55,o),
(721,-41,qs),
(721,-32,o),
(699,-29,o),
(685,-29,qs),
(637,-29,o),
(587,-17,o),
(582,3,qs),
(365,816,ls)
);
},
{
closed = 1;
nodes = (
(390,573,o),
(423,445,o),
(453,323,o),
(465,274,q),
(434,273,o),
(371,272,o),
(340,272,qs),
(309,272,o),
(249,273,o),
(218,274,q),
(225,304,o),
(246,388,o),
(271,481,o),
(297,578,o),
(321,664,o),
(339,735,o),
(343,755,q),
(358,700,o)
);
},
{
closed = 1;
nodes = (
(399,904,o),
(357,904,qs),
(344,904,o),
(309,905,o),
(273,905,o),
(243,906,o),
(236,906,qs),
(228,906,o),
(220,896,o),
(220,891,qs),
(220,886,o),
(229,875,o),
(236,875,qs),
(254,875,o),
(318,875,o),
(390,876,o),
(457,876,o),
(477,876,qs),
(488,876,o),
(496,889,o),
(496,894,qs),
(496,899,o),
(489,907,o),
(485,907,qs),
(461,907,o)
);
}
);
userData = {
assembly = "PUSHB[ ]	/* 6 values pushed */
69 1 9 8 1 66
MPPEM[ ]	/* MeasurePixelPerEm */
PUSHB[ ]	/* 1 value pushed */
45
LT[ ]	/* LessThan */
IF[ ]	/* If */
NPUSHB[ ]	/* 43 values pushed */
12 1 10 0 11 8 10 11 91 0 9 0 3 4 9 3 90 2 1 0 0 1 0 1 87 0 8 8 20 67 7 6 2 4 4 5 83 0 5 5 13 5 68
ELSE[ ]	/* Else */
NPUSHB[ ]	/* 46 values pushed */
0 8 11 9 11 8 9 104 12 1 10 0 11 8 10 11 91 0 9 0 3 4 9 3 90 2 1 0 0 1 0 1 87 7 6 2 4 4 5 83 0 5 5 13 5 68
EIF[ ]	/* EndIf */
NPUSHB[ ]	/* 21 values pushed */
88 87 99 92 87 111 88 103 82 76 44 18 51 52 56 25 20 51 34 13 24
CALL[ ]	/* CallFunction */";
};
width = 681;
}
);
note = Amacron;
unicode = 256;
},
{
glyphname = Aogonek;
kernLeft = Aacute;
kernRight = Aacute;
lastChange = "2024-06-13 14:18:27 +0000";
layers = (
{
layerId = m01;
shapes = (
{
closed = 1;
nodes = (
(675,-201,o),
(695,-185,o),
(705,-167,o),
(705,-159,qs),
(705,-150,o),
(690,-135,o),
(680,-135,qs),
(672,-135,o),
(663,-143,o),
(652,-152,o),
(635,-159,o),
(620,-159,qs),
(609,-159,o),
(591,-149,o),
(591,-138,qs),
(591,-118,o),
(614,-66,o),
(636,-55,q),
(742,-55,ls),
(759,-55,o),
(777,-43,o),
(777,-25,qs),
(777,-8,o),
(747,3,o),
(733,3,qs),
(697,3,o),
(652,6,o),
(626,14,o),
(615,26,o),
(613,35,qs),
(410,793,ls),
(404,816,o),
(380,838,o),
(359,838,qs),
(333,838,o),
(312,815,o),
(305,792,qs),
(295,760,o),
(266,655,o),
(232,529,o),
(194,391,o),
(156,259,o),
(121,142,o),
(107,101,qs),
(100,81,o),
(76,65,o),
(58,63,qs),
(56,63,o),
(39,61,o),
(19,59,o),
(3,57,o),
(1,57,qs),
(-9,57,o),
(-28,43,o),
(-28,30,qs),
(-28,16,o),
(-14,0,o),
(-5,0,qs),
(273,0,ls),
(293,0,o),
(307,18,o),
(307,29,qs),
(307,47,o),
(290,61,o),
(274,61,qs),
(239,61,o),
(202,69,o),
(202,77,qs),
(202,85,o),
(208,117,o),
(218,156,o),
(231,197,o),
(238,214,q),
(470,214,l),
(473,203,o),
(489,150,o),
(505,92,o),
(517,42,o),
(517,35,qs),
(517,14,o),
(500,-1,o),
(481,-8,o),
(464,-17,o),
(464,-33,qs),
(464,-41,o),
(477,-55,o),
(495,-55,qs),
(579,-55,l),
(570,-60,o),
(547,-74,o),
(526,-95,o),
(512,-121,o),
(512,-137,qs),
(512,-156,o),
(532,-184,o),
(563,-203,o),
(602,-212,o),
(622,-212,qs),
(643,-212,o)
);
},
{
closed = 1;
nodes = (
(393,541,o),
(416,440,o),
(441,342,o),
(453,298,q),
(444,298,o),
(419,297,o),
(392,296,o),
(367,296,o),
(358,296,qs),
(343,296,o),
(320,296,o),
(300,297,o),
(277,298,o),
(262,298,q),
(273,338,o),
(301,451,o),
(330,565,o),
(355,664,o),
(362,691,q),
(371,643,o)
);
}
);
userData = {
assembly = "PUSHB[ ]	/* 6 values pushed */
99 1 12 7 1 66
MPPEM[ ]	/* MeasurePixelPerEm */
PUSHB[ ]	/* 1 value pushed */
20
LT[ ]	/* LessThan */
IF[ ]	/* If */
NPUSHB[ ]	/* 54 values pushed */
0 11 1 10 1 11 10 104 0 12 0 2 3 12 2 90 0 8 9 1 1 11 8 1 91 0 7 7 20 67 6 5 2 3 3 4 83 0 4 4 13 67 0 10 10 0 83 13 1 0 0 17 0 68
ELSE[ ]	/* Else */
MPPEM[ ]	/* MeasurePixelPerEm */
PUSHB[ ]	/* 1 value pushed */
45
LT[ ]	/* LessThan */
IF[ ]	/* If */
NPUSHB[ ]	/* 51 values pushed */
0 11 1 10 1 11 10 104 0 12 0 2 3 12 2 90 0 8 9 1 1 11 8 1 91 0 10 13 1 0 10 0 87 0 7 7 20 67 6 5 2 3 3 4 83 0 4 4 13 4 68
ELSE[ ]	/* Else */
NPUSHB[ ]	/* 51 values pushed */
0 7 12 7 106 0 11 1 10 1 11 10 104 0 12 0 2 3 12 2 90 0 8 9 1 1 11 8 1 91 0 10 13 1 0 10 0 87 6 5 2 3 3 4 83 0 4 4 13 4 68
EIF[ ]	/* EndIf */
EIF[ ]	/* EndIf */
NPUSHB[ ]	/* 32 values pushed */
1 0 114 104 92 90 87 85 80 78 74 71 65 63 51 50 47 45 41 38 34 32 25 24 12 10 0 98 1 98 14 15
CALL[ ]	/* CallFunction */";
};
width = 710;
},
{
layerId = "62092E79-60F6-4D0B-8A38-B9DDC6B60A9E";
shapes = (
{
alignment = -1;
ref = .ttfautohint;
},
{
alignment = -1;
ref = A;
},
{
alignment = -1;
pos = (488,-52);
ref = ogonek;
}
);
userData = {
assembly = "PUSHB[ ]	/* 6 values pushed */
71 1 8 7 1 66
MPPEM[ ]	/* MeasurePixelPerEm */
PUSHB[ ]	/* 1 value pushed */
24
LT[ ]	/* LessThan */
IF[ ]	/* If */
NPUSHB[ ]	/* 60 values pushed */
0 0 4 12 12 0 96 0 10 1 9 1 10 9 104 0 8 0 2 3 8 2 90 13 1 12 0 1 10 12 1 92 0 7 7 20 67 6 5 2 3 3 4 83 0 4 4 13 67 0 9 9 11 83 0 11 11 17 11 68
ELSE[ ]	/* Else */
MPPEM[ ]	/* MeasurePixelPerEm */
PUSHB[ ]	/* 1 value pushed */
41
LT[ ]	/* LessThan */
IF[ ]	/* If */
NPUSHB[ ]	/* 57 values pushed */
0 0 4 12 12 0 96 0 10 1 9 1 10 9 104 0 8 0 2 3 8 2 90 13 1 12 0 1 10 12 1 92 0 9 0 11 9 11 87 0 7 7 20 67 6 5 2 3 3 4 83 0 4 4 13 4 68
ELSE[ ]	/* Else */
MPPEM[ ]	/* MeasurePixelPerEm */
PUSHB[ ]	/* 1 value pushed */
45
LT[ ]	/* LessThan */
IF[ ]	/* If */
NPUSHB[ ]	/* 58 values pushed */
0 0 4 12 4 0 12 104 0 10 1 9 1 10 9 104 0 8 0 2 3 8 2 90 13 1 12 0 1 10 12 1 92 0 9 0 11 9 11 87 0 7 7 20 67 6 5 2 3 3 4 83 0 4 4 13 4 68
ELSE[ ]	/* Else */
NPUSHB[ ]	/* 58 values pushed */
0 7 8 7 106 0 0 4 12 4 0 12 104 0 10 1 9 1 10 9 104 0 8 0 2 3 8 2 90 13 1 12 0 1 10 12 1 92 0 9 0 11 9 11 87 6 5 2 3 3 4 83 0 4 4 13 4 68
EIF[ ]	/* EndIf */
EIF[ ]	/* EndIf */
EIF[ ]	/* EndIf */
NPUSHB[ ]	/* 23 values pushed */
89 89 89 118 89 118 111 109 103 101 98 96 105 44 19 36 52 56 30 52 35 14 35
CALL[ ]	/* CallFunction */";
};
width = 698;
},
{
layerId = "E59D8378-1062-4241-9A8F-EEB295F00E05";
shapes = (
{
closed = 1;
nodes = (
(362,827,o),
(350,835,o),
(345,835,qs),
(337,835,o),
(326,824,o),
(324,816,qs),
(314,782,o),
(283,669,o),
(245,532,o),
(204,381,o),
(164,237,o),
(125,112,o),
(110,69,qs),
(103,51,o),
(83,33,o),
(61,31,qs),
(57,31,o),
(36,29,o),
(9,27,o),
(-20,25,o),
(-30,25,qs),
(-50,25,o),
(-50,14,qs),
(-50,6,o),
(-36,0,o),
(-27,0,qs),
(225,0,ls),
(245,0,o),
(259,10,o),
(259,15,qs),
(259,26,o),
(235,29,o),
(225,29,qs),
(214,29,o),
(189,29,o),
(168,32,o),
(154,38,o),
(154,45,qs),
(154,56,o),
(165,101,o),
(181,156,o),
(199,214,o),
(206,238,q),
(477,238,l),
(479,229,o),
(490,189,o),
(504,140,o),
(518,85,o),
(530,37,o),
(538,1,o),
(538,-5,qs),
(538,-17,o),
(508,-25,o),
(472,-27,o),
(442,-32,o),
(442,-41,qs),
(442,-49,o),
(455,-55,o),
(473,-55,qs),
(540,-55,l),
(526,-66,o),
(499,-103,o),
(499,-129,qs),
(499,-161,o),
(545,-202,o),
(580,-202,qs),
(598,-202,o),
(626,-189,o),
(647,-172,o),
(658,-155,o),
(658,-151,qs),
(658,-145,o),
(653,-135,o),
(644,-135,qs),
(637,-135,o),
(626,-148,o),
(613,-163,o),
(595,-175,o),
(582,-175,qs),
(570,-175,o),
(555,-165,o),
(546,-150,o),
(543,-134,o),
(543,-128,qs),
(543,-123,o),
(546,-105,o),
(553,-85,o),
(566,-64,o),
(576,-55,q),
(686,-55,ls),
(721,-55,o),
(721,-41,qs),
(721,-32,o),
(699,-29,o),
(685,-29,qs),
(637,-29,o),
(587,-17,o),
(582,3,qs),
(365,816,ls)
);
},
{
closed = 1;
nodes = (
(390,573,o),
(423,445,o),
(453,323,o),
(465,274,q),
(434,273,o),
(371,272,o),
(340,272,qs),
(309,272,o),
(249,273,o),
(218,274,q),
(225,304,o),
(246,388,o),
(271,481,o),
(297,578,o),
(321,664,o),
(339,735,o),
(343,755,q),
(358,700,o)
);
}
);
userData = {
assembly = "PUSHB[ ]	/* 6 values pushed */
99 1 13 12 1 66
MPPEM[ ]	/* MeasurePixelPerEm */
PUSHB[ ]	/* 1 value pushed */
39
LT[ ]	/* LessThan */
IF[ ]	/* If */
NPUSHB[ ]	/* 54 values pushed */
0 3 1 2 1 3 2 104 0 13 0 7 8 13 7 90 6 1 0 5 1 1 3 0 1 91 0 12 12 20 67 11 10 2 8 8 9 83 0 9 9 13 67 0 2 2 4 83 0 4 4 17 4 68
ELSE[ ]	/* Else */
MPPEM[ ]	/* MeasurePixelPerEm */
PUSHB[ ]	/* 1 value pushed */
45
LT[ ]	/* LessThan */
IF[ ]	/* If */
NPUSHB[ ]	/* 51 values pushed */
0 3 1 2 1 3 2 104 0 13 0 7 8 13 7 90 6 1 0 5 1 1 3 0 1 91 0 2 0 4 2 4 87 0 12 12 20 67 11 10 2 8 8 9 83 0 9 9 13 9 68
ELSE[ ]	/* Else */
NPUSHB[ ]	/* 51 values pushed */
0 12 13 12 106 0 3 1 2 1 3 2 104 0 13 0 7 8 13 7 90 6 1 0 5 1 1 3 0 1 91 0 2 0 4 2 4 87 11 10 2 8 8 9 83 0 9 9 13 9 68
EIF[ ]	/* EndIf */
EIF[ ]	/* EndIf */
NPUSHB[ ]	/* 21 values pushed */
112 106 96 94 82 81 79 76 73 70 56 25 20 37 38 35 41 35 34 14 24
CALL[ ]	/* CallFunction */";
};
width = 681;
}
);
note = Aogonek;
unicode = 260;
},
{
glyphname = Aring;
kernLeft = Aacute;
kernRight = Aacute;
lastChange = "2024-06-13 14:18:27 +0000";
layers = (
{
layerId = m01;
shapes = (
{
closed = 1;
nodes = (
(371,972,qs),
(340,972,o),
(297,934,o),
(297,905,qs),
(297,876,o),
(342,840,o),
(376,840,qs),
(406,840,o),
(449,873,o),
(449,907,qs),
(449,972,o)
);
},
{
closed = 1;
nodes = (
(394,922,o),
(394,906,qs),
(394,891,o),
(381,882,o),
(376,882,qs),
(369,882,o),
(352,891,o),
(352,905,qs),
(352,922,o),
(369,930,o),
(373,930,qs),
(378,930,o)
);
},
{
closed = 1;
nodes = (
(404,816,o),
(380,838,o),
(359,838,qs),
(333,838,o),
(312,815,o),
(305,792,qs),
(295,760,o),
(266,655,o),
(232,529,o),
(194,391,o),
(156,259,o),
(121,142,o),
(107,101,qs),
(100,81,o),
(76,65,o),
(58,63,qs),
(56,63,o),
(39,61,o),
(19,59,o),
(3,57,o),
(1,57,qs),
(-9,57,o),
(-28,43,o),
(-28,30,qs),
(-28,16,o),
(-14,0,o),
(-5,0,qs),
(273,0,ls),
(293,0,o),
(307,18,o),
(307,29,qs),
(307,47,o),
(290,61,o),
(274,61,qs),
(239,61,o),
(202,69,o),
(202,77,qs),
(202,85,o),
(208,117,o),
(218,156,o),
(231,197,o),
(238,214,q),
(470,214,l),
(473,203,o),
(489,150,o),
(505,92,o),
(517,42,o),
(517,35,qs),
(517,14,o),
(500,-1,o),
(481,-8,o),
(464,-17,o),
(464,-33,qs),
(464,-41,o),
(477,-55,o),
(495,-55,qs),
(742,-55,ls),
(759,-55,o),
(777,-43,o),
(777,-25,qs),
(777,-8,o),
(747,3,o),
(733,3,qs),
(697,3,o),
(652,6,o),
(626,14,o),
(615,26,o),
(613,35,qs),
(410,793,ls)
);
},
{
closed = 1;
nodes = (
(393,541,o),
(416,440,o),
(441,342,o),
(453,298,q),
(444,298,o),
(419,297,o),
(392,296,o),
(367,296,o),
(358,296,qs),
(343,296,o),
(320,296,o),
(300,297,o),
(277,298,o),
(262,298,q),
(273,338,o),
(301,451,o),
(330,565,o),
(355,664,o),
(362,691,q),
(371,643,o)
);
}
);
userData = {
assembly = "PUSHB[ ]	/* 6 values pushed */
92 1 12 11 1 66
MPPEM[ ]	/* MeasurePixelPerEm */
PUSHB[ ]	/* 1 value pushed */
14
LT[ ]	/* LessThan */
IF[ ]	/* If */
NPUSHB[ ]	/* 55 values pushed */
13 1 2 1 3 0 2 96 0 3 0 1 3 94 0 1 0 0 11 1 0 91 0 12 0 6 7 12 6 90 0 4 0 5 4 5 87 0 11 11 20 67 10 9 2 7 7 8 83 0 8 8 13 8 68
ELSE[ ]	/* Else */
MPPEM[ ]	/* MeasurePixelPerEm */
PUSHB[ ]	/* 1 value pushed */
45
LT[ ]	/* LessThan */
IF[ ]	/* If */
NPUSHB[ ]	/* 57 values pushed */
13 1 2 1 3 1 2 3 104 0 3 0 1 3 0 102 0 1 0 0 11 1 0 91 0 12 0 6 7 12 6 90 0 4 0 5 4 5 87 0 11 11 20 67 10 9 2 7 7 8 83 0 8 8 13 8 68
ELSE[ ]	/* Else */
NPUSHB[ ]	/* 60 values pushed */
13 1 2 1 3 1 2 3 104 0 3 0 1 3 0 102 0 11 0 12 0 11 12 104 0 1 0 0 11 1 0 91 0 12 0 6 7 12 6 90 0 4 0 5 4 5 87 10 9 2 7 7 8 83 0 8 8 13 8 68
EIF[ ]	/* EndIf */
EIF[ ]	/* EndIf */
NPUSHB[ ]	/* 30 values pushed */
12 11 107 97 89 87 75 74 71 69 65 62 58 56 49 48 36 33 29 26 18 16 11 22 12 22 36 34 14 17
CALL[ ]	/* CallFunction */";
};
width = 710;
},
{
layerId = "62092E79-60F6-4D0B-8A38-B9DDC6B60A9E";
shapes = (
{
closed = 1;
nodes = (
(362,972,qs),
(332,972,o),
(291,938,o),
(291,912,qs),
(291,886,o),
(333,853,o),
(363,853,qs),
(390,853,o),
(433,883,o),
(433,914,qs),
(433,972,o)
);
},
{
closed = 1;
nodes = (
(388,927,o),
(388,913,qs),
(388,897,o),
(368,887,o),
(363,887,qs),
(357,887,o),
(336,897,o),
(336,912,qs),
(336,927,o),
(354,938,o),
(362,938,qs),
(372,938,o)
);
},
{
closed = 1;
nodes = (
(382,837,o),
(353,837,qs),
(335,837,o),
(319,824,o),
(317,816,qs),
(307,783,o),
(276,673,o),
(240,540,o),
(199,393,o),
(160,253,o),
(123,131,o),
(108,89,qs),
(102,71,o),
(80,53,o),
(59,51,qs),
(56,51,o),
(39,49,o),
(17,47,o),
(-5,45,o),
(-12,45,qs),
(-22,45,o),
(-37,34,o),
(-37,24,qs),
(-37,13,o),
(-23,0,o),
(-14,0,qs),
(253,0,ls),
(273,0,o),
(287,15,o),
(287,24,qs),
(287,39,o),
(268,49,o),
(258,49,qs),
(247,49,o),
(220,49,o),
(197,52,o),
(182,59,o),
(182,65,qs),
(182,74,o),
(190,111,o),
(203,156,o),
(218,203,o),
(225,223,q),
(473,223,l),
(475,215,o),
(485,181,o),
(497,139,o),
(509,92,o),
(519,51,o),
(526,20,o),
(526,15,qs),
(526,-4,o),
(504,-18,o),
(477,-23,o),
(455,-28,o),
(455,-39,qs),
(455,-47,o),
(468,-55,o),
(486,-55,qs),
(719,-55,ls),
(736,-55,o),
(754,-45,o),
(754,-31,qs),
(754,-17,o),
(727,-9,o),
(713,-9,qs),
(665,-9,o),
(606,0,o),
(600,23,qs),
(388,816,ls)
);
},
{
closed = 1;
nodes = (
(393,553,o),
(420,441,o),
(446,335,o),
(458,289,q),
(435,288,o),
(386,288,o),
(363,288,qs),
(332,288,o),
(275,288,o),
(244,289,q),
(251,317,o),
(271,392,o),
(292,474,o),
(315,558,o),
(335,634,o),
(351,696,o),
(356,715,q),
(367,664,o)
);
}
);
userData = {
assembly = "PUSHB[ ]	/* 6 values pushed */
93 1 12 11 1 66
MPPEM[ ]	/* MeasurePixelPerEm */
PUSHB[ ]	/* 1 value pushed */
14
LT[ ]	/* LessThan */
IF[ ]	/* If */
NPUSHB[ ]	/* 55 values pushed */
13 1 2 1 3 0 2 96 0 3 0 1 3 94 0 1 0 0 11 1 0 91 0 12 0 6 7 12 6 90 0 4 0 5 4 5 87 0 11 11 20 67 10 9 2 7 7 8 83 0 8 8 13 8 68
ELSE[ ]	/* Else */
MPPEM[ ]	/* MeasurePixelPerEm */
PUSHB[ ]	/* 1 value pushed */
45
LT[ ]	/* LessThan */
IF[ ]	/* If */
NPUSHB[ ]	/* 57 values pushed */
13 1 2 1 3 1 2 3 104 0 3 0 1 3 0 102 0 1 0 0 11 1 0 91 0 12 0 6 7 12 6 90 0 4 0 5 4 5 87 0 11 11 20 67 10 9 2 7 7 8 83 0 8 8 13 8 68
ELSE[ ]	/* Else */
NPUSHB[ ]	/* 60 values pushed */
13 1 2 1 3 1 2 3 104 0 3 0 1 3 0 102 0 11 0 12 0 11 12 104 0 1 0 0 11 1 0 91 0 12 0 6 7 12 6 90 0 4 0 5 4 5 87 10 9 2 7 7 8 83 0 8 8 13 8 68
EIF[ ]	/* EndIf */
EIF[ ]	/* EndIf */
NPUSHB[ ]	/* 30 values pushed */
12 11 106 100 91 89 77 76 73 71 67 64 60 57 49 48 34 31 27 25 18 16 11 22 12 22 36 34 14 17
CALL[ ]	/* CallFunction */";
};
width = 698;
},
{
layerId = "E59D8378-1062-4241-9A8F-EEB295F00E05";
shapes = (
{
closed = 1;
nodes = (
(379,972,o),
(349,972,qs),
(320,972,o),
(283,944,o),
(283,923,qs),
(283,902,o),
(319,875,o),
(345,875,qs),
(356,875,o),
(379,881,o),
(398,893,o),
(410,912,o),
(410,925,qs),
(410,944,o)
);
},
{
closed = 1;
nodes = (
(380,933,o),
(380,924,qs),
(380,895,o),
(345,895,qs),
(328,895,o),
(313,912,o),
(313,923,qs),
(313,932,o),
(328,951,o),
(347,951,qs),
(367,951,o)
);
},
{
closed = 1;
nodes = (
(362,827,o),
(350,835,o),
(345,835,qs),
(337,835,o),
(326,824,o),
(324,816,qs),
(314,782,o),
(283,669,o),
(245,532,o),
(204,381,o),
(164,237,o),
(125,112,o),
(110,69,qs),
(103,51,o),
(83,33,o),
(61,31,qs),
(57,31,o),
(36,29,o),
(9,27,o),
(-20,25,o),
(-30,25,qs),
(-50,25,o),
(-50,14,qs),
(-50,6,o),
(-36,0,o),
(-27,0,qs),
(225,0,ls),
(245,0,o),
(259,10,o),
(259,15,qs),
(259,26,o),
(235,29,o),
(225,29,qs),
(214,29,o),
(189,29,o),
(168,32,o),
(154,38,o),
(154,45,qs),
(154,56,o),
(165,101,o),
(181,156,o),
(199,214,o),
(206,238,q),
(477,238,l),
(479,229,o),
(490,189,o),
(504,140,o),
(518,85,o),
(530,37,o),
(538,1,o),
(538,-5,qs),
(538,-17,o),
(508,-25,o),
(472,-27,o),
(442,-32,o),
(442,-41,qs),
(442,-49,o),
(455,-55,o),
(473,-55,qs),
(686,-55,ls),
(721,-55,o),
(721,-41,qs),
(721,-32,o),
(699,-29,o),
(685,-29,qs),
(637,-29,o),
(587,-17,o),
(582,3,qs),
(365,816,ls)
);
},
{
closed = 1;
nodes = (
(390,573,o),
(423,445,o),
(453,323,o),
(465,274,q),
(434,273,o),
(371,272,o),
(340,272,qs),
(309,272,o),
(249,273,o),
(218,274,q),
(225,304,o),
(246,388,o),
(271,481,o),
(297,578,o),
(321,664,o),
(339,735,o),
(343,755,q),
(358,700,o)
);
}
);
userData = {
assembly = "PUSHB[ ]	/* 6 values pushed */
94 1 13 12 1 66
MPPEM[ ]	/* MeasurePixelPerEm */
PUSHB[ ]	/* 1 value pushed */
45
LT[ ]	/* LessThan */
IF[ ]	/* If */
NPUSHB[ ]	/* 51 values pushed */
0 1 14 1 2 3 1 2 91 0 3 0 0 12 3 0 91 0 13 0 7 8 13 7 90 6 1 4 0 5 4 5 87 0 12 12 20 67 11 10 2 8 8 9 83 0 9 9 13 9 68
ELSE[ ]	/* Else */
NPUSHB[ ]	/* 54 values pushed */
0 12 0 13 0 12 13 104 0 1 14 1 2 3 1 2 91 0 3 0 0 12 3 0 91 0 13 0 7 8 13 7 90 6 1 4 0 5 4 5 87 11 10 2 8 8 9 83 0 9 9 13 9 68
EIF[ ]	/* EndIf */
NPUSHB[ ]	/* 32 values pushed */
15 14 107 101 91 89 77 76 74 71 68 65 61 58 50 49 40 39 35 32 29 27 21 19 14 24 15 24 36 36 15 17
CALL[ ]	/* CallFunction */";
};
width = 681;
}
);
note = Aring;
unicode = 197;
},
{
glyphname = Aringacute;
kernLeft = Aacute;
kernRight = Aacute;
lastChange = "2024-06-13 14:18:27 +0000";
layers = (
{
layerId = m01;
shapes = (
{
closed = 1;
nodes = (
(397,853,q),
(411,860,o),
(440,879,o),
(464,902,o),
(479,925,o),
(479,936,qs),
(479,949,o),
(458,972,o),
(438,972,qs),
(424,972,o),
(385,949,o),
(349,916,o),
(324,882,o),
(324,872,qs),
(324,862,o),
(330,855,q),
(309,847,o),
(282,814,o),
(282,792,qs),
(282,770,o),
(307,740,o),
(327,732,q),
(318,727,o),
(316,717,q),
(308,693,o),
(278,602,o),
(242,488,o),
(200,361,o),
(160,240,o),
(123,135,o),
(110,101,qs),
(102,81,o),
(80,65,o),
(61,63,qs),
(59,63,o),
(42,61,o),
(23,59,o),
(6,57,o),
(4,57,qs),
(-6,57,o),
(-24,43,o),
(-24,30,qs),
(-24,16,o),
(-10,0,o),
(-1,0,qs),
(36,0,o),
(108,4,o),
(145,4,qs),
(178,4,o),
(244,0,o),
(276,0,qs),
(296,0,o),
(310,18,o),
(310,29,qs),
(310,47,o),
(295,61,o),
(285,61,qs),
(237,61,o),
(206,73,o),
(206,77,qs),
(206,79,o),
(216,110,o),
(231,152,o),
(247,197,o),
(254,214,q),
(464,214,l),
(468,203,o),
(487,148,o),
(507,86,o),
(521,34,o),
(521,27,qs),
(521,4,o),
(504,-13,o),
(485,-20,o),
(468,-26,o),
(468,-38,qs),
(468,-46,o),
(481,-58,o),
(499,-58,qs),
(533,-58,o),
(596,-53,o),
(634,-53,qs),
(657,-53,o),
(722,-55,o),
(746,-55,qs),
(763,-55,o),
(781,-43,o),
(781,-25,qs),
(781,-8,o),
(750,3,o),
(736,3,qs),
(683,3,o),
(623,14,o),
(616,35,qs),
(408,717,ls),
(405,726,o),
(395,732,q),
(412,740,o),
(434,771,o),
(434,794,qs),
(434,840,o)
);
},
{
closed = 1;
nodes = (
(394,482,o),
(415,400,o),
(437,324,o),
(447,298,q),
(433,297,o),
(389,297,o),
(375,297,qs),
(348,297,o),
(305,297,o),
(278,298,q),
(282,313,o),
(297,363,o),
(315,421,o),
(334,484,o),
(351,539,o),
(365,582,o),
(369,592,q),
(376,562,o)
);
},
{
closed = 1;
nodes = (
(382,809,o),
(382,793,qs),
(382,777,o),
(366,767,o),
(361,767,qs),
(356,767,o),
(335,776,o),
(335,792,qs),
(335,809,o),
(353,818,o),
(358,818,qs),
(365,818,o)
);
}
);
userData = {
assembly = "NPUSHB[ ]	/* 81 values pushed */
99 84 2 10 8 114 101 78 3 4 9 11 2 66 0 8 10 8 106 12 1 10 11 10 106 0 11 9 11 106 0 9 0 3 4 9 3 90 0 0 2 1 1 0 1 87 7 6 2 4 4 5 83 0 5 5 13 5 68 120 119 126 124 119 130 120 130 113 108 92 90 19 36 132 39 28 33 84 40 13 23
CALL[ ]	/* CallFunction */";
};
width = 716;
},
{
layerId = "62092E79-60F6-4D0B-8A38-B9DDC6B60A9E";
shapes = (
{
closed = 1;
nodes = (
(385,737,o),
(356,737,qs),
(338,737,o),
(322,724,o),
(320,716,qs),
(310,688,o),
(279,594,o),
(243,480,o),
(202,353,o),
(163,232,o),
(126,126,o),
(111,89,qs),
(105,71,o),
(83,53,o),
(62,51,qs),
(59,51,o),
(42,49,o),
(20,47,o),
(-2,45,o),
(-9,45,qs),
(-19,45,o),
(-34,34,o),
(-34,24,qs),
(-34,13,o),
(-20,0,o),
(-11,0,qs),
(256,0,ls),
(276,0,o),
(290,15,o),
(290,24,qs),
(290,39,o),
(271,49,o),
(261,49,qs),
(250,49,o),
(223,49,o),
(200,52,o),
(185,59,o),
(185,65,qs),
(186,73,o),
(197,110,o),
(212,155,o),
(230,203,o),
(238,223,q),
(466,223,l),
(469,215,o),
(480,181,o),
(494,139,o),
(509,92,o),
(521,51,o),
(529,20,o),
(529,15,qs),
(529,-4,o),
(507,-18,o),
(480,-23,o),
(458,-28,o),
(458,-39,qs),
(458,-47,o),
(471,-55,o),
(489,-55,qs),
(722,-55,ls),
(739,-55,o),
(757,-45,o),
(757,-31,qs),
(757,-17,o),
(730,-9,o),
(716,-9,qs),
(668,-9,o),
(610,0,o),
(603,23,qs),
(391,716,ls)
);
},
{
closed = 1;
nodes = (
(392,490,o),
(416,404,o),
(440,323,o),
(451,289,q),
(430,288,o),
(387,288,o),
(366,288,qs),
(337,288,o),
(286,288,o),
(257,289,q),
(265,320,o),
(294,414,o),
(326,510,o),
(353,594,o),
(359,615,q),
(369,576,o)
);
},
{
closed = 1;
nodes = (
(437,970,o),
(422,972,q),
(410,972,o),
(375,952,o),
(341,923,o),
(316,892,o),
(315,882,qs),
(315,873,o),
(321,860,o),
(330,859,q),
(314,851,o),
(296,824,o),
(296,807,qs),
(296,781,o),
(338,748,o),
(368,748,qs),
(395,748,o),
(438,778,o),
(438,809,qs),
(438,867,o),
(367,867,qs),
(363,867,l),
(377,873,o),
(409,890,o),
(435,909,o),
(452,930,o),
(452,939,qs),
(452,953,o)
);
},
{
closed = 1;
nodes = (
(393,822,o),
(393,808,qs),
(393,792,o),
(373,782,o),
(368,782,qs),
(362,782,o),
(341,792,o),
(341,807,qs),
(341,822,o),
(359,833,o),
(367,833,qs),
(377,833,o)
);
}
);
userData = {
assembly = "NPUSHB[ ]	/* 18 values pushed */
106 1 9 11 103 1 12 9 70 1 8 7 31 1 3 2 4 66
MPPEM[ ]	/* MeasurePixelPerEm */
PUSHB[ ]	/* 1 value pushed */
14
LT[ ]	/* LessThan */
IF[ ]	/* If */
NPUSHB[ ]	/* 63 values pushed */
0 11 9 11 106 14 1 12 9 13 10 12 96 0 13 10 9 13 94 0 7 10 8 10 7 8 104 0 9 0 10 7 9 10 91 0 8 0 2 3 8 2 90 0 0 0 1 0 1 87 6 5 2 3 3 4 83 0 4 4 13 4 68
ELSE[ ]	/* Else */
NPUSHB[ ]	/* 65 values pushed */
0 11 9 11 106 14 1 12 9 13 9 12 13 104 0 13 10 9 13 10 102 0 7 10 8 10 7 8 104 0 9 0 10 7 9 10 91 0 8 0 2 3 8 2 90 0 0 0 1 0 1 87 6 5 2 3 3 4 83 0 4 4 13 4 68
EIF[ ]	/* EndIf */
NPUSHB[ ]	/* 25 values pushed */
115 114 121 119 114 125 115 125 111 110 98 96 93 91 103 44 19 36 52 56 30 52 34 15 24
CALL[ ]	/* CallFunction */";
};
width = 703;
},
{
layerId = "E59D8378-1062-4241-9A8F-EEB295F00E05";
shapes = (
{
closed = 1;
nodes = (
(364,725,o),
(352,733,o),
(347,733,qs),
(339,733,o),
(328,722,o),
(326,714,qs),
(316,680,o),
(285,582,o),
(247,468,o),
(206,343,o),
(166,222,o),
(127,112,o),
(112,69,qs),
(105,51,o),
(85,33,o),
(63,31,qs),
(59,31,o),
(38,29,o),
(11,27,o),
(-18,25,o),
(-28,25,qs),
(-48,25,o),
(-48,14,qs),
(-48,6,o),
(-34,0,o),
(-25,0,qs),
(7,1,o),
(69,2,o),
(101,2,qs),
(133,2,o),
(195,0,o),
(227,0,qs),
(247,0,o),
(261,10,o),
(261,15,qs),
(261,26,o),
(237,29,o),
(227,29,qs),
(216,29,o),
(191,29,o),
(170,32,o),
(156,38,o),
(156,45,qs),
(156,56,o),
(169,101,o),
(188,156,o),
(208,214,o),
(215,238,q),
(469,238,l),
(471,229,o),
(484,189,o),
(499,140,o),
(516,85,o),
(531,37,o),
(540,1,o),
(540,-5,qs),
(540,-17,o),
(510,-25,o),
(474,-27,o),
(444,-32,o),
(444,-41,qs),
(444,-49,o),
(457,-55,o),
(475,-55,qs),
(501,-55,o),
(554,-53,o),
(581,-53,qs),
(607,-53,o),
(662,-55,o),
(688,-55,qs),
(723,-55,o),
(723,-41,qs),
(723,-32,o),
(701,-29,o),
(687,-29,qs),
(639,-29,o),
(590,-17,o),
(584,3,qs),
(367,714,ls)
);
},
{
closed = 1;
nodes = (
(389,503,o),
(418,413,o),
(445,323,o),
(457,274,q),
(426,273,o),
(373,272,o),
(342,272,qs),
(311,272,o),
(258,273,o),
(227,274,q),
(237,320,o),
(272,427,o),
(308,530,o),
(339,622,o),
(345,653,q),
(360,598,o)
);
},
{
closed = 1;
nodes = (
(381,856,o),
(351,856,qs),
(322,856,o),
(285,828,o),
(285,807,qs),
(285,786,o),
(321,759,o),
(347,759,qs),
(358,759,o),
(381,765,o),
(400,777,o),
(412,796,o),
(412,809,qs),
(412,828,o)
);
},
{
closed = 1;
nodes = (
(377,817,o),
(377,808,qs),
(377,794,o),
(364,782,o),
(347,782,qs),
(330,782,o),
(319,796,o),
(319,807,qs),
(319,816,o),
(330,833,o),
(349,833,qs),
(369,833,o)
);
},
{
closed = 1;
nodes = (
(402,972,o),
(394,972,qs),
(387,972,o),
(355,952,o),
(323,925,o),
(299,895,o),
(299,886,qs),
(299,875,o),
(307,875,qs),
(314,875,o),
(349,893,o),
(385,917,o),
(413,942,o),
(413,950,qs),
(413,964,o)
);
}
);
userData = {
assembly = "PUSHB[ ]	/* 6 values pushed */
79 1 9 8 1 66
MPPEM[ ]	/* MeasurePixelPerEm */
PUSHB[ ]	/* 1 value pushed */
27
LT[ ]	/* LessThan */
IF[ ]	/* If */
NPUSHB[ ]	/* 66 values pushed */
0 15 14 15 106 0 14 11 14 106 0 8 10 9 10 8 9 104 0 13 0 10 8 13 10 91 0 9 0 3 4 9 3 90 2 1 0 0 1 0 1 87 16 1 12 12 11 83 0 11 11 20 67 7 6 2 4 4 5 83 0 5 5 13 5 68
ELSE[ ]	/* Else */
NPUSHB[ ]	/* 64 values pushed */
0 15 14 15 106 0 14 11 14 106 0 8 10 9 10 8 9 104 0 11 16 1 12 13 11 12 91 0 13 0 10 8 13 10 91 0 9 0 3 4 9 3 90 2 1 0 0 1 0 1 87 7 6 2 4 4 5 83 0 5 5 13 5 68
EIF[ ]	/* EndIf */
NPUSHB[ ]	/* 29 values pushed */
110 109 134 132 127 125 116 114 109 120 110 120 107 105 101 99 90 84 44 18 51 132 56 25 20 131 34 17 24
CALL[ ]	/* CallFunction */";
};
width = 685;
}
);
note = Aringacute;
unicode = 506;
},
{
glyphname = Atilde;
kernLeft = Aacute;
kernRight = Aacute;
lastChange = "2024-06-13 14:18:27 +0000";
layers = (
{
layerId = m01;
shapes = (
{
closed = 1;
nodes = (
(404,816,o),
(380,838,o),
(359,838,qs),
(333,838,o),
(312,815,o),
(305,792,qs),
(295,760,o),
(266,655,o),
(232,529,o),
(194,391,o),
(156,259,o),
(121,142,o),
(107,101,qs),
(100,81,o),
(76,65,o),
(58,63,qs),
(56,63,o),
(39,61,o),
(19,59,o),
(3,57,o),
(1,57,qs),
(-9,57,o),
(-28,43,o),
(-28,30,qs),
(-28,16,o),
(-14,0,o),
(-5,0,qs),
(273,0,ls),
(293,0,o),
(307,18,o),
(307,29,qs),
(307,47,o),
(290,61,o),
(274,61,qs),
(239,61,o),
(202,69,o),
(202,77,qs),
(202,85,o),
(208,117,o),
(218,156,o),
(231,197,o),
(238,214,q),
(470,214,l),
(473,203,o),
(489,150,o),
(505,92,o),
(517,42,o),
(517,35,qs),
(517,14,o),
(500,-1,o),
(481,-8,o),
(464,-17,o),
(464,-33,qs),
(464,-41,o),
(477,-55,o),
(495,-55,qs),
(742,-55,ls),
(759,-55,o),
(777,-43,o),
(777,-25,qs),
(777,-8,o),
(747,3,o),
(733,3,qs),
(697,3,o),
(652,6,o),
(626,14,o),
(615,26,o),
(613,35,qs),
(410,793,ls)
);
},
{
closed = 1;
nodes = (
(393,541,o),
(416,440,o),
(441,342,o),
(453,298,q),
(444,298,o),
(419,297,o),
(392,296,o),
(367,296,o),
(358,296,qs),
(343,296,o),
(320,296,o),
(300,297,o),
(277,298,o),
(262,298,q),
(273,338,o),
(301,451,o),
(330,565,o),
(355,664,o),
(362,691,q),
(371,643,o)
);
},
{
closed = 1;
nodes = (
(190,861,o),
(199,861,qs),
(206,861,o),
(224,869,o),
(244,878,o),
(268,886,o),
(283,886,qs),
(297,886,o),
(329,878,o),
(364,869,o),
(401,862,o),
(420,862,qs),
(431,862,o),
(469,869,o),
(505,886,o),
(531,915,o),
(531,937,qs),
(531,953,o),
(514,972,o),
(509,972,qs),
(502,972,o),
(479,959,qs),
(465,951,o),
(433,942,o),
(419,942,qs),
(404,942,o),
(368,951,o),
(332,961,o),
(297,970,o),
(282,970,qs),
(245,970,o),
(214,952,qs),
(200,944,o),
(180,919,o),
(180,897,qs),
(180,882,o)
);
}
);
userData = {
assembly = "PUSHB[ ]	/* 6 values pushed */
69 1 8 7 1 66
MPPEM[ ]	/* MeasurePixelPerEm */
PUSHB[ ]	/* 1 value pushed */
45
LT[ ]	/* LessThan */
IF[ ]	/* If */
NPUSHB[ ]	/* 51 values pushed */
11 1 9 0 13 12 9 13 91 0 10 14 1 12 7 10 12 91 0 8 0 2 3 8 2 90 0 0 0 1 0 1 88 0 7 7 20 67 6 5 2 3 3 4 83 0 4 4 13 4 68
ELSE[ ]	/* Else */
NPUSHB[ ]	/* 54 values pushed */
0 7 12 8 12 7 8 104 11 1 9 0 13 12 9 13 91 0 10 14 1 12 7 10 12 91 0 8 0 2 3 8 2 90 0 0 0 1 0 1 88 6 5 2 3 3 4 83 0 4 4 13 4 68
EIF[ ]	/* EndIf */
NPUSHB[ ]	/* 23 values pushed */
123 121 118 116 113 111 105 103 100 98 95 93 168 44 19 36 52 39 28 52 51 15 24
CALL[ ]	/* CallFunction */";
};
width = 710;
},
{
layerId = "62092E79-60F6-4D0B-8A38-B9DDC6B60A9E";
shapes = (
{
alignment = -1;
ref = .ttfautohint;
},
{
alignment = -1;
ref = A;
},
{
alignment = -1;
pos = (183,372);
ref = tilde;
}
);
userData = {
assembly = "PUSHB[ ]	/* 6 values pushed */
71 1 8 7 1 66
MPPEM[ ]	/* MeasurePixelPerEm */
PUSHB[ ]	/* 1 value pushed */
45
LT[ ]	/* LessThan */
IF[ ]	/* If */
NPUSHB[ ]	/* 51 values pushed */
11 1 9 0 13 12 9 13 91 0 10 14 1 12 7 10 12 91 0 8 0 2 3 8 2 90 0 0 0 1 0 1 88 0 7 7 20 67 6 5 2 3 3 4 83 0 4 4 13 4 68
ELSE[ ]	/* Else */
NPUSHB[ ]	/* 54 values pushed */
0 7 12 8 12 7 8 104 11 1 9 0 13 12 9 13 91 0 10 14 1 12 7 10 12 91 0 8 0 2 3 8 2 90 0 0 0 1 0 1 88 6 5 2 3 3 4 83 0 4 4 13 4 68
EIF[ ]	/* EndIf */
NPUSHB[ ]	/* 23 values pushed */
123 121 118 116 113 111 105 103 100 98 95 93 105 44 19 36 52 56 30 52 35 15 35
CALL[ ]	/* CallFunction */";
};
width = 698;
},
{
layerId = "E59D8378-1062-4241-9A8F-EEB295F00E05";
shapes = (
{
closed = 1;
nodes = (
(362,827,o),
(350,835,o),
(345,835,qs),
(337,835,o),
(326,824,o),
(324,816,qs),
(314,782,o),
(283,669,o),
(245,532,o),
(204,381,o),
(164,237,o),
(125,112,o),
(110,69,qs),
(103,51,o),
(83,33,o),
(61,31,qs),
(57,31,o),
(36,29,o),
(9,27,o),
(-20,25,o),
(-30,25,qs),
(-50,25,o),
(-50,14,qs),
(-50,6,o),
(-36,0,o),
(-27,0,qs),
(225,0,ls),
(245,0,o),
(259,10,o),
(259,15,qs),
(259,26,o),
(235,29,o),
(225,29,qs),
(214,29,o),
(189,29,o),
(168,32,o),
(154,38,o),
(154,45,qs),
(154,56,o),
(165,101,o),
(181,156,o),
(199,214,o),
(206,238,q),
(477,238,l),
(479,229,o),
(490,189,o),
(504,140,o),
(518,85,o),
(530,37,o),
(538,1,o),
(538,-5,qs),
(538,-17,o),
(508,-25,o),
(472,-27,o),
(442,-32,o),
(442,-41,qs),
(442,-49,o),
(455,-55,o),
(473,-55,qs),
(686,-55,ls),
(721,-55,o),
(721,-41,qs),
(721,-32,o),
(699,-29,o),
(685,-29,qs),
(637,-29,o),
(587,-17,o),
(582,3,qs),
(365,816,ls)
);
},
{
closed = 1;
nodes = (
(390,573,o),
(423,445,o),
(453,323,o),
(465,274,q),
(434,273,o),
(371,272,o),
(340,272,qs),
(309,272,o),
(249,273,o),
(218,274,q),
(225,304,o),
(246,388,o),
(271,481,o),
(297,578,o),
(321,664,o),
(339,735,o),
(343,755,q),
(358,700,o)
);
},
{
closed = 1;
nodes = (
(188,888,o),
(193,888,qs),
(198,888,o),
(214,896,o),
(236,905,o),
(262,913,o),
(277,913,qs),
(291,913,o),
(323,905,o),
(358,896,o),
(395,889,o),
(414,889,qs),
(435,889,o),
(472,896,o),
(500,909,o),
(516,925,o),
(516,934,qs),
(516,941,o),
(508,951,o),
(503,951,qs),
(498,951,o),
(487,946,o),
(473,938,qs),
(439,921,o),
(413,921,qs),
(398,921,o),
(362,930,o),
(326,940,o),
(291,949,o),
(276,949,qs),
(239,949,o),
(208,931,qs),
(179,914,o),
(179,903,qs),
(179,898,o)
);
}
);
userData = {
assembly = "PUSHB[ ]	/* 6 values pushed */
69 1 9 8 1 66
MPPEM[ ]	/* MeasurePixelPerEm */
PUSHB[ ]	/* 1 value pushed */
45
LT[ ]	/* LessThan */
IF[ ]	/* If */
NPUSHB[ ]	/* 52 values pushed */
12 1 10 0 14 13 10 14 91 0 11 15 1 13 8 11 13 91 0 9 0 3 4 9 3 90 2 1 0 0 1 0 1 88 0 8 8 20 67 7 6 2 4 4 5 83 0 5 5 13 5 68
ELSE[ ]	/* Else */
NPUSHB[ ]	/* 55 values pushed */
0 8 13 9 13 8 9 104 12 1 10 0 14 13 10 14 91 0 11 15 1 13 8 11 13 91 0 9 0 3 4 9 3 90 2 1 0 0 1 0 1 88 7 6 2 4 4 5 83 0 5 5 13 5 68
EIF[ ]	/* EndIf */
NPUSHB[ ]	/* 25 values pushed */
120 118 115 113 110 108 102 100 97 95 92 90 82 76 44 18 51 52 56 25 20 51 34 16 24
CALL[ ]	/* CallFunction */";
};
width = 681;
}
);
note = Atilde;
unicode = 195;
},
{
glyphname = AE;
kernLeft = AE;
kernRight = AE;
lastChange = "2024-06-13 14:18:27 +0000";
layers = (
{
layerId = m01;
shapes = (
{
closed = 1;
nodes = (
(957,293,o),
(956,273,qs),
(955,255,o),
(951,207,o),
(947,162,o),
(943,126,o),
(943,121,qs),
(942,108,o),
(934,93,o),
(922,86,o),
(907,84,o),
(900,84,qs),
(622,84,l),
(622,377,l),
(638,378,o),
(669,379,o),
(685,379,qs),
(714,379,o),
(750,378,o),
(764,378,qs),
(779,378,o),
(798,364,o),
(808,343,o),
(812,319,o),
(812,309,qs),
(812,296,o),
(832,270,o),
(853,270,qs),
(877,270,o),
(895,293,o),
(895,307,qs),
(895,335,o),
(893,391,o),
(893,420,qs),
(893,449,o),
(895,504,o),
(895,533,qs),
(895,544,o),
(877,570,o),
(854,570,qs),
(837,570,o),
(810,556,o),
(810,530,qs),
(810,499,o),
(803,464,o),
(793,464,qs),
(788,464,o),
(764,463,o),
(733,462,o),
(699,461,o),
(685,461,qs),
(668,461,o),
(638,463,o),
(622,464,q),
(622,737,l),
(874,737,ls),
(892,737,o),
(911,726,o),
(911,709,qs),
(911,645,ls),
(911,638,o),
(913,622,o),
(922,608,o),
(940,599,o),
(955,599,qs),
(980,599,o),
(999,632,o),
(999,651,qs),
(999,785,ls),
(999,806,o),
(985,821,o),
(971,821,qs),
(917,821,o),
(850,820,o),
(796,820,o),
(738,819,o),
(693,819,qs),
(674,819,o),
(619,820,o),
(555,820,o),
(485,821,o),
(452,821,qs),
(444,821,o),
(424,820,o),
(406,813,o),
(394,798,o),
(394,785,qs),
(394,776,o),
(403,765,o),
(416,759,o),
(430,757,o),
(434,757,qs),
(445,757,o),
(472,756,o),
(483,751,q),
(463,713,o),
(412,610,o),
(355,491,o),
(294,365,o),
(234,245,o),
(179,140,o),
(155,101,qs),
(144,83,o),
(120,65,o),
(98,63,qs),
(95,63,o),
(72,61,o),
(42,59,o),
(9,57,o),
(-3,57,qs),
(-19,57,o),
(-42,43,o),
(-42,27,qs),
(-42,12,o),
(-22,0,o),
(-5,0,qs),
(27,0,o),
(97,2,o),
(129,2,qs),
(161,2,o),
(216,0,o),
(248,0,qs),
(268,0,o),
(293,11,o),
(293,31,qs),
(293,46,o),
(280,59,o),
(270,60,qs),
(258,61,o),
(242,64,o),
(242,68,qs),
(242,71,o),
(257,102,o),
(280,145,o),
(308,193,o),
(321,214,q),
(529,214,l),
(529,186,o),
(528,135,o),
(528,96,qs),
(528,75,o),
(494,60,o),
(447,60,qs),
(427,60,o),
(408,49,o),
(408,32,qs),
(408,14,o),
(439,0,o),
(454,0,qs),
(515,0,o),
(636,2,o),
(697,2,qs),
(771,2,o),
(911,0,o),
(985,0,qs),
(1007,0,o),
(1025,16,o),
(1027,33,qs),
(1031,63,o),
(1037,141,o),
(1041,213,o),
(1043,268,o),
(1043,277,qs),
(1043,283,o),
(1040,300,o),
(1032,315,o),
(1015,326,o),
(1002,326,qs),
(976,326,o)
);
},
{
closed = 1;
nodes = (
(358,297,o),
(341,298,q),
(357,341,o),
(410,445,o),
(465,546,o),
(513,635,o),
(524,664,q),
(524,660,ls),
(524,626,o),
(526,586,o),
(528,543,o),
(530,481,o),
(530,425,qs),
(530,382,o),
(530,321,o),
(529,297,q),
(500,296,o),
(442,296,o),
(413,296,qs),
(395,296,o)
);
}
);
userData = {
assembly = "NPUSHB[ ]	/* 14 values pushed */
73 1 10 7 181 1 9 10 161 1 15 3 3 66
MPPEM[ ]	/* MeasurePixelPerEm */
PUSHB[ ]	/* 1 value pushed */
9
LT[ ]	/* LessThan */
IF[ ]	/* If */
NPUSHB[ ]	/* 85 values pushed */
0 7 8 10 10 7 96 0 9 10 12 10 9 96 17 1 0 14 16 14 0 16 104 0 12 0 13 3 12 13 91 18 1 16 0 3 15 16 3 89 0 10 10 8 84 0 8 8 12 67 0 14 14 11 83 0 11 11 23 67 0 15 15 1 84 4 1 1 1 13 67 6 5 2 2 2 1 83 4 1 1 1 13 1 68
ELSE[ ]	/* Else */
MPPEM[ ]	/* MeasurePixelPerEm */
PUSHB[ ]	/* 1 value pushed */
20
LT[ ]	/* LessThan */
IF[ ]	/* If */
NPUSHB[ ]	/* 86 values pushed */
0 7 8 10 10 7 96 0 9 10 12 10 9 12 104 17 1 0 14 16 14 0 16 104 0 12 0 13 3 12 13 91 18 1 16 0 3 15 16 3 89 0 10 10 8 84 0 8 8 12 67 0 14 14 11 83 0 11 11 23 67 0 15 15 1 84 4 1 1 1 13 67 6 5 2 2 2 1 83 4 1 1 1 13 1 68
ELSE[ ]	/* Else */
MPPEM[ ]	/* MeasurePixelPerEm */
PUSHB[ ]	/* 1 value pushed */
45
LT[ ]	/* LessThan */
IF[ ]	/* If */
NPUSHB[ ]	/* 84 values pushed */
0 7 8 10 10 7 96 0 9 10 12 10 9 12 104 17 1 0 14 16 14 0 16 104 0 11 0 14 0 11 14 91 0 12 0 13 3 12 13 91 18 1 16 0 3 15 16 3 89 0 10 10 8 84 0 8 8 12 67 0 15 15 1 84 4 1 1 1 13 67 6 5 2 2 2 1 83 4 1 1 1 13 1 68
ELSE[ ]	/* Else */
NPUSHB[ ]	/* 84 values pushed */
0 7 8 10 10 7 96 0 9 10 12 10 9 12 104 17 1 0 14 16 14 0 16 104 0 11 0 14 0 11 14 91 0 12 0 13 3 12 13 91 18 1 16 0 3 15 16 3 89 0 10 10 8 84 0 8 8 14 67 0 15 15 1 84 4 1 1 1 13 67 6 5 2 2 2 1 83 4 1 1 1 13 1 68
EIF[ ]	/* EndIf */
EIF[ ]	/* EndIf */
EIF[ ]	/* EndIf */
NPUSHB[ ]	/* 44 values pushed */
172 169 1 0 169 188 172 186 157 155 154 147 141 139 129 127 123 114 113 111 104 102 97 84 77 74 63 62 61 57 53 45 32 31 26 24 20 12 0 168 1 168 19 15
CALL[ ]	/* CallFunction */";
};
width = 1076;
},
{
layerId = "62092E79-60F6-4D0B-8A38-B9DDC6B60A9E";
shapes = (
{
closed = 1;
nodes = (
(954,293,o),
(953,273,qs),
(952,255,o),
(949,207,o),
(945,157,o),
(941,115,o),
(940,103,qs),
(939,90,o),
(931,75,o),
(919,68,o),
(904,66,o),
(897,66,qs),
(598,66,l),
(598,386,l),
(619,387,o),
(661,388,o),
(682,388,qs),
(711,388,o),
(747,387,o),
(761,387,qs),
(776,387,o),
(795,371,o),
(805,347,o),
(809,320,o),
(809,309,qs),
(809,296,o),
(825,274,o),
(840,274,qs),
(856,274,o),
(871,292,o),
(871,307,qs),
(871,335,o),
(869,391,o),
(869,420,qs),
(869,449,o),
(871,504,o),
(871,533,qs),
(871,544,o),
(858,566,o),
(841,566,qs),
(826,566,o),
(807,551,o),
(807,530,qs),
(807,522,o),
(806,497,o),
(803,473,o),
(796,455,o),
(790,455,qs),
(785,455,o),
(761,454,o),
(730,453,o),
(696,452,o),
(682,452,qs),
(660,452,o),
(619,454,o),
(598,455,q),
(598,755,l),
(871,755,ls),
(876,755,o),
(889,754,o),
(900,749,o),
(908,737,o),
(908,727,qs),
(908,645,ls),
(908,638,o),
(910,623,o),
(916,610,o),
(930,601,o),
(942,601,qs),
(962,601,o),
(975,632,o),
(975,651,qs),
(975,785,ls),
(975,806,o),
(961,821,o),
(947,821,qs),
(897,821,o),
(835,820,o),
(785,820,o),
(732,819,o),
(690,819,qs),
(671,819,o),
(616,820,o),
(552,820,o),
(482,821,o),
(449,821,qs),
(441,821,o),
(424,820,o),
(408,814,o),
(398,802,o),
(398,792,qs),
(398,776,o),
(426,769,o),
(438,769,qs),
(449,769,o),
(476,768,o),
(487,763,q),
(467,725,o),
(414,618,o),
(353,494,o),
(289,362,o),
(226,238,o),
(169,129,o),
(145,89,qs),
(134,71,o),
(110,53,o),
(88,51,qs),
(84,51,o),
(61,49,o),
(32,47,o),
(2,45,o),
(-9,45,qs),
(-23,45,o),
(-41,34,o),
(-41,22,qs),
(-41,10,o),
(-25,0,o),
(-11,0,qs),
(21,0,o),
(87,2,o),
(119,2,qs),
(151,2,o),
(210,0,o),
(242,0,qs),
(262,0,o),
(284,11,o),
(284,25,qs),
(284,41,o),
(258,49,o),
(248,49,qs),
(236,50,o),
(217,51,o),
(217,65,qs),
(217,71,o),
(233,105,o),
(257,150,o),
(286,201,o),
(299,223,q),
(526,223,l),
(526,190,o),
(525,130,o),
(525,84,qs),
(525,63,o),
(491,48,o),
(444,48,qs),
(424,48,o),
(405,39,o),
(405,24,qs),
(405,10,o),
(436,0,o),
(451,0,qs),
(512,1,o),
(633,2,o),
(694,2,qs),
(763,2,o),
(892,0,o),
(961,0,qs),
(982,0,o),
(1001,13,o),
(1003,33,qs),
(1006,63,o),
(1012,141,o),
(1017,213,o),
(1019,268,o),
(1019,277,qs),
(1019,283,o),
(1018,298,o),
(1012,311,o),
(1001,320,o),
(991,320,qs),
(970,320,o)
);
},
{
closed = 1;
nodes = (
(342,289,o),
(319,289,q),
(331,318,o),
(365,391,o),
(405,469,o),
(446,547,o),
(483,619,o),
(513,678,o),
(521,698,q),
(521,694,ls),
(521,660,o),
(523,609,o),
(525,554,o),
(527,481,o),
(527,425,qs),
(527,379,o),
(527,314,o),
(526,288,q),
(497,287,o),
(439,287,o),
(410,287,qs),
(386,287,o)
);
}
);
userData = {
assembly = "NPUSHB[ ]	/* 10 values pushed */
73 1 12 9 183 1 11 12 2 66
MPPEM[ ]	/* MeasurePixelPerEm */
PUSHB[ ]	/* 1 value pushed */
20
LT[ ]	/* LessThan */
IF[ ]	/* If */
NPUSHB[ ]	/* 88 values pushed */
0 9 10 12 12 9 96 0 11 12 14 12 11 14 104 19 1 0 16 18 16 0 18 104 0 14 0 15 3 14 15 91 20 1 18 0 3 17 18 3 89 0 12 12 10 84 0 10 10 12 67 0 16 16 13 83 0 13 13 15 67 0 17 17 1 84 6 1 1 1 13 67 8 7 5 4 4 2 2 1 83 6 1 1 1 13 1 68
ELSE[ ]	/* Else */
MPPEM[ ]	/* MeasurePixelPerEm */
PUSHB[ ]	/* 1 value pushed */
45
LT[ ]	/* LessThan */
IF[ ]	/* If */
NPUSHB[ ]	/* 86 values pushed */
0 9 10 12 12 9 96 0 11 12 14 12 11 14 104 19 1 0 16 18 16 0 18 104 0 13 0 16 0 13 16 91 0 14 0 15 3 14 15 91 20 1 18 0 3 17 18 3 89 0 12 12 10 84 0 10 10 12 67 0 17 17 1 84 6 1 1 1 13 67 8 7 5 4 4 2 2 1 83 6 1 1 1 13 1 68
ELSE[ ]	/* Else */
NPUSHB[ ]	/* 86 values pushed */
0 9 10 12 12 9 96 0 11 12 14 12 11 14 104 19 1 0 16 18 16 0 18 104 0 13 0 16 0 13 16 91 0 14 0 15 3 14 15 91 20 1 18 0 3 17 18 3 89 0 12 12 10 84 0 10 10 14 67 0 17 17 1 84 6 1 1 1 13 67 8 7 5 4 4 2 2 1 83 6 1 1 1 13 1 68
EIF[ ]	/* EndIf */
EIF[ ]	/* EndIf */
NPUSHB[ ]	/* 48 values pushed */
174 171 1 0 171 192 174 190 159 157 156 149 143 141 131 129 123 114 113 111 102 100 95 82 77 74 63 62 61 57 53 45 41 40 39 38 32 31 26 24 20 12 0 170 1 170 21 15
CALL[ ]	/* CallFunction */";
};
width = 1054;
},
{
layerId = "E59D8378-1062-4241-9A8F-EEB295F00E05";
shapes = (
{
closed = 1;
nodes = (
(950,293,o),
(949,273,qs),
(948,252,o),
(945,195,o),
(941,137,o),
(937,86,o),
(936,73,qs),
(935,60,o),
(927,45,o),
(915,38,o),
(900,36,o),
(893,36,qs),
(564,36,l),
(564,401,l),
(593,402,o),
(649,403,o),
(678,403,qs),
(707,403,o),
(743,402,o),
(757,402,qs),
(772,402,o),
(791,383,o),
(801,355,o),
(805,322,o),
(805,309,qs),
(805,296,o),
(815,280,o),
(822,280,qs),
(826,280,o),
(837,290,o),
(837,307,qs),
(837,335,o),
(835,391,o),
(835,420,qs),
(835,449,o),
(837,504,o),
(837,533,qs),
(837,544,o),
(832,560,o),
(820,560,qs),
(814,560,o),
(807,552,o),
(804,541,o),
(803,531,o),
(803,530,qs),
(803,521,o),
(802,490,o),
(799,461,o),
(792,440,o),
(786,440,qs),
(781,440,o),
(757,439,o),
(726,438,o),
(692,437,o),
(678,437,qs),
(649,437,o),
(593,439,o),
(564,440,q),
(564,785,l),
(867,785,ls),
(877,785,o),
(904,776,o),
(904,757,qs),
(904,645,ls),
(904,631,o),
(909,605,o),
(924,605,qs),
(935,605,o),
(941,632,o),
(941,651,qs),
(941,785,ls),
(941,806,o),
(927,821,o),
(913,821,qs),
(869,821,o),
(815,820,o),
(770,820,o),
(723,819,o),
(686,819,qs),
(667,819,o),
(612,820,o),
(548,820,o),
(478,821,o),
(445,821,qs),
(430,821,o),
(404,815,o),
(404,804,qs),
(404,793,o),
(427,789,o),
(444,789,qs),
(455,789,o),
(482,788,o),
(493,783,q),
(473,744,o),
(417,631,o),
(352,499,o),
(282,358,o),
(215,226,o),
(154,110,o),
(131,69,qs),
(120,51,o),
(96,33,o),
(74,31,qs),
(70,31,o),
(49,29,o),
(22,27,o),
(-7,25,o),
(-18,25,qs),
(-40,25,o),
(-40,14,qs),
(-40,0,o),
(-20,0,qs),
(12,1,o),
(73,2,o),
(105,2,qs),
(137,2,o),
(202,0,o),
(234,0,qs),
(254,0,o),
(271,10,o),
(271,15,qs),
(271,26,o),
(250,29,o),
(240,29,qs),
(229,29,o),
(205,29,o),
(186,32,o),
(173,38,o),
(173,45,qs),
(173,51,o),
(193,95,o),
(223,152,o),
(256,214,o),
(268,238,q),
(522,238,l),
(522,217,o),
(522,180,o),
(521,139,o),
(521,93,o),
(521,64,qs),
(521,43,o),
(487,28,o),
(440,28,qs),
(420,28,o),
(401,22,o),
(401,11,qs),
(401,3,o),
(432,0,o),
(447,0,qs),
(508,1,o),
(629,2,o),
(690,2,qs),
(751,2,o),
(866,0,o),
(927,0,qs),
(947,0,o),
(967,8,o),
(969,33,qs),
(972,63,o),
(977,141,o),
(982,213,o),
(985,268,o),
(985,277,qs),
(985,289,o),
(980,310,o),
(966,310,qs),
(961,310,o)
);
},
{
closed = 1;
nodes = (
(318,274,o),
(288,274,q),
(301,304,o),
(341,388,o),
(386,481,o),
(432,577,o),
(474,663,o),
(508,734,o),
(517,754,q),
(517,750,ls),
(517,716,o),
(519,648,o),
(521,571,o),
(523,481,o),
(523,425,qs),
(523,374,o),
(523,302,o),
(522,273,q),
(493,272,o),
(435,272,o),
(406,272,qs),
(374,272,o)
);
}
);
userData = {
assembly = "PUSHB[ ]	/* 7 values pushed */
179 73 2 10 8 1 66
MPPEM[ ]	/* MeasurePixelPerEm */
PUSHB[ ]	/* 1 value pushed */
20
LT[ ]	/* LessThan */
IF[ ]	/* If */
NPUSHB[ ]	/* 81 values pushed */
0 10 8 13 8 10 13 104 18 1 0 15 14 15 0 14 104 0 13 0 14 17 13 14 91 19 1 17 0 3 16 17 3 89 11 1 8 8 9 83 0 9 9 12 67 0 15 15 12 83 0 12 12 15 67 0 16 16 1 83 5 1 1 1 13 67 7 6 4 3 2 2 1 83 5 1 1 1 13 1 68
ELSE[ ]	/* Else */
MPPEM[ ]	/* MeasurePixelPerEm */
PUSHB[ ]	/* 1 value pushed */
45
LT[ ]	/* LessThan */
IF[ ]	/* If */
NPUSHB[ ]	/* 79 values pushed */
0 10 8 13 8 10 13 104 18 1 0 15 14 15 0 14 104 0 12 0 15 0 12 15 91 0 13 0 14 17 13 14 91 19 1 17 0 3 16 17 3 89 11 1 8 8 9 83 0 9 9 12 67 0 16 16 1 83 5 1 1 1 13 67 7 6 4 3 2 2 1 83 5 1 1 1 13 1 68
ELSE[ ]	/* Else */
NPUSHB[ ]	/* 79 values pushed */
0 10 8 13 8 10 13 104 18 1 0 15 14 15 0 14 104 0 12 0 15 0 12 15 91 0 13 0 14 17 13 14 91 19 1 17 0 3 16 17 3 89 11 1 8 8 9 83 0 9 9 14 67 0 16 16 1 83 5 1 1 1 13 67 7 6 4 3 2 2 1 83 5 1 1 1 13 1 68
EIF[ ]	/* EndIf */
EIF[ ]	/* EndIf */
NPUSHB[ ]	/* 46 values pushed */
170 167 1 0 167 188 170 186 155 153 152 145 139 137 127 125 117 108 107 105 100 98 93 81 77 74 63 62 60 57 55 47 43 40 32 31 24 22 18 10 0 166 1 166 20 15
CALL[ ]	/* CallFunction */";
};
width = 1023;
}
);
note = AE;
unicode = 198;
},
{
glyphname = AEacute;
kernLeft = AE;
kernRight = AE;
lastChange = "2024-06-13 14:18:27 +0000";
layers = (
{
layerId = m01;
shapes = (
{
closed = 1;
nodes = (
(650,972,o),
(630,972,qs),
(616,972,o),
(577,948,o),
(541,916,o),
(516,881,o),
(516,871,qs),
(516,860,o),
(536,841,o),
(552,841,qs),
(565,841,o),
(605,860,o),
(643,888,o),
(671,921,o),
(671,936,qs),
(671,949,o)
);
},
{
closed = 1;
nodes = (
(957,293,o),
(956,273,qs),
(955,255,o),
(951,207,o),
(947,162,o),
(943,126,o),
(943,121,qs),
(942,108,o),
(934,93,o),
(922,86,o),
(907,84,o),
(900,84,qs),
(622,84,l),
(622,377,l),
(638,378,o),
(669,379,o),
(685,379,qs),
(714,379,o),
(750,378,o),
(764,378,qs),
(779,378,o),
(798,364,o),
(808,343,o),
(812,319,o),
(812,309,qs),
(812,296,o),
(832,270,o),
(853,270,qs),
(877,270,o),
(895,293,o),
(895,307,qs),
(895,335,o),
(893,391,o),
(893,420,qs),
(893,449,o),
(895,504,o),
(895,533,qs),
(895,544,o),
(877,570,o),
(854,570,qs),
(837,570,o),
(810,556,o),
(810,530,qs),
(810,499,o),
(803,464,o),
(793,464,qs),
(788,464,o),
(764,463,o),
(733,462,o),
(699,461,o),
(685,461,qs),
(668,461,o),
(638,463,o),
(622,464,q),
(622,737,l),
(874,737,ls),
(892,737,o),
(911,726,o),
(911,709,qs),
(911,645,ls),
(911,638,o),
(913,622,o),
(922,608,o),
(940,599,o),
(955,599,qs),
(980,599,o),
(999,632,o),
(999,651,qs),
(999,785,ls),
(999,806,o),
(985,821,o),
(971,821,qs),
(917,821,o),
(850,820,o),
(796,820,o),
(738,819,o),
(693,819,qs),
(674,819,o),
(619,820,o),
(555,820,o),
(485,821,o),
(452,821,qs),
(444,821,o),
(424,820,o),
(406,813,o),
(394,798,o),
(394,785,qs),
(394,776,o),
(403,765,o),
(416,759,o),
(430,757,o),
(434,757,qs),
(445,757,o),
(472,756,o),
(483,751,q),
(463,713,o),
(412,610,o),
(355,491,o),
(294,365,o),
(234,245,o),
(179,140,o),
(155,101,qs),
(144,83,o),
(120,65,o),
(98,63,qs),
(95,63,o),
(72,61,o),
(42,59,o),
(9,57,o),
(-3,57,qs),
(-19,57,o),
(-42,43,o),
(-42,27,qs),
(-42,12,o),
(-22,0,o),
(-5,0,qs),
(27,0,o),
(97,2,o),
(129,2,qs),
(161,2,o),
(216,0,o),
(248,0,qs),
(268,0,o),
(293,11,o),
(293,31,qs),
(293,46,o),
(280,59,o),
(270,60,qs),
(258,61,o),
(242,64,o),
(242,68,qs),
(242,71,o),
(257,102,o),
(280,145,o),
(308,193,o),
(321,214,q),
(529,214,l),
(529,186,o),
(528,135,o),
(528,96,qs),
(528,75,o),
(494,60,o),
(447,60,qs),
(427,60,o),
(408,49,o),
(408,32,qs),
(408,14,o),
(439,0,o),
(454,0,qs),
(515,0,o),
(636,2,o),
(697,2,qs),
(771,2,o),
(911,0,o),
(985,0,qs),
(1007,0,o),
(1025,16,o),
(1027,33,qs),
(1031,63,o),
(1037,141,o),
(1041,213,o),
(1043,268,o),
(1043,277,qs),
(1043,283,o),
(1040,300,o),
(1032,315,o),
(1015,326,o),
(1002,326,qs),
(976,326,o)
);
},
{
closed = 1;
nodes = (
(358,297,o),
(341,298,q),
(357,341,o),
(410,445,o),
(465,546,o),
(513,635,o),
(524,664,q),
(524,660,ls),
(524,626,o),
(526,586,o),
(528,543,o),
(530,481,o),
(530,425,qs),
(530,382,o),
(530,321,o),
(529,297,q),
(500,296,o),
(442,296,o),
(413,296,qs),
(395,296,o)
);
}
);
userData = {
assembly = "NPUSHB[ ]	/* 14 values pushed */
89 1 12 9 197 1 11 12 177 1 17 5 3 66
MPPEM[ ]	/* MeasurePixelPerEm */
PUSHB[ ]	/* 1 value pushed */
9
LT[ ]	/* LessThan */
IF[ ]	/* If */
NPUSHB[ ]	/* 95 values pushed */
0 1 0 1 106 0 0 10 0 106 0 9 10 12 12 9 96 0 11 12 14 12 11 96 19 1 2 16 18 16 2 18 104 0 14 0 15 5 14 15 91 20 1 18 0 5 17 18 5 89 0 12 12 10 84 0 10 10 12 67 0 16 16 13 83 0 13 13 23 67 0 17 17 3 84 6 1 3 3 13 67 8 7 2 4 4 3 83 6 1 3 3 13 3 68
ELSE[ ]	/* Else */
MPPEM[ ]	/* MeasurePixelPerEm */
PUSHB[ ]	/* 1 value pushed */
20
LT[ ]	/* LessThan */
IF[ ]	/* If */
NPUSHB[ ]	/* 96 values pushed */
0 1 0 1 106 0 0 10 0 106 0 9 10 12 12 9 96 0 11 12 14 12 11 14 104 19 1 2 16 18 16 2 18 104 0 14 0 15 5 14 15 91 20 1 18 0 5 17 18 5 89 0 12 12 10 84 0 10 10 12 67 0 16 16 13 83 0 13 13 23 67 0 17 17 3 84 6 1 3 3 13 67 8 7 2 4 4 3 83 6 1 3 3 13 3 68
ELSE[ ]	/* Else */
MPPEM[ ]	/* MeasurePixelPerEm */
PUSHB[ ]	/* 1 value pushed */
45
LT[ ]	/* LessThan */
IF[ ]	/* If */
NPUSHB[ ]	/* 94 values pushed */
0 1 0 1 106 0 0 10 0 106 0 9 10 12 12 9 96 0 11 12 14 12 11 14 104 19 1 2 16 18 16 2 18 104 0 13 0 16 2 13 16 91 0 14 0 15 5 14 15 91 20 1 18 0 5 17 18 5 89 0 12 12 10 84 0 10 10 12 67 0 17 17 3 84 6 1 3 3 13 67 8 7 2 4 4 3 83 6 1 3 3 13 3 68
ELSE[ ]	/* Else */
NPUSHB[ ]	/* 94 values pushed */
0 1 0 1 106 0 0 10 0 106 0 9 10 12 12 9 96 0 11 12 14 12 11 14 104 19 1 2 16 18 16 2 18 104 0 13 0 16 2 13 16 91 0 14 0 15 5 14 15 91 20 1 18 0 5 17 18 5 89 0 12 12 10 84 0 10 10 14 67 0 17 17 3 84 6 1 3 3 13 67 8 7 2 4 4 3 83 6 1 3 3 13 3 68
EIF[ ]	/* EndIf */
EIF[ ]	/* EndIf */
EIF[ ]	/* EndIf */
NPUSHB[ ]	/* 46 values pushed */
188 185 17 16 185 204 188 202 173 171 170 163 157 155 145 143 139 130 129 127 120 118 113 100 93 90 79 78 77 73 69 61 48 47 42 40 36 28 16 184 17 184 38 36 21 17
CALL[ ]	/* CallFunction */";
};
width = 1076;
},
{
layerId = "62092E79-60F6-4D0B-8A38-B9DDC6B60A9E";
shapes = (
{
closed = 1;
nodes = (
(643,972,o),
(628,972,qs),
(617,972,o),
(581,950,o),
(547,919,o),
(522,887,o),
(522,877,qs),
(522,867,o),
(535,854,o),
(546,854,qs),
(556,854,o),
(595,872,o),
(632,899,o),
(660,929,o),
(660,941,qs),
(660,955,o)
);
},
{
closed = 1;
nodes = (
(954,293,o),
(953,273,qs),
(952,255,o),
(949,207,o),
(945,157,o),
(941,115,o),
(940,103,qs),
(939,90,o),
(931,75,o),
(919,68,o),
(904,66,o),
(897,66,qs),
(598,66,l),
(598,386,l),
(619,387,o),
(661,388,o),
(682,388,qs),
(711,388,o),
(747,387,o),
(761,387,qs),
(776,387,o),
(795,371,o),
(805,347,o),
(809,320,o),
(809,309,qs),
(809,296,o),
(825,274,o),
(840,274,qs),
(856,274,o),
(871,292,o),
(871,307,qs),
(871,335,o),
(869,391,o),
(869,420,qs),
(869,449,o),
(871,504,o),
(871,533,qs),
(871,544,o),
(858,566,o),
(841,566,qs),
(826,566,o),
(807,551,o),
(807,530,qs),
(807,522,o),
(806,497,o),
(803,473,o),
(796,455,o),
(790,455,qs),
(785,455,o),
(761,454,o),
(730,453,o),
(696,452,o),
(682,452,qs),
(660,452,o),
(619,454,o),
(598,455,q),
(598,755,l),
(871,755,ls),
(876,755,o),
(889,754,o),
(900,749,o),
(908,737,o),
(908,727,qs),
(908,645,ls),
(908,638,o),
(910,623,o),
(916,610,o),
(930,601,o),
(942,601,qs),
(962,601,o),
(975,632,o),
(975,651,qs),
(975,785,ls),
(975,806,o),
(961,821,o),
(947,821,qs),
(897,821,o),
(835,820,o),
(785,820,o),
(732,819,o),
(690,819,qs),
(671,819,o),
(616,820,o),
(552,820,o),
(482,821,o),
(449,821,qs),
(441,821,o),
(424,820,o),
(408,814,o),
(398,802,o),
(398,792,qs),
(398,776,o),
(426,769,o),
(438,769,qs),
(449,769,o),
(476,768,o),
(487,763,q),
(467,725,o),
(414,618,o),
(353,494,o),
(289,362,o),
(226,238,o),
(169,129,o),
(145,89,qs),
(134,71,o),
(110,53,o),
(88,51,qs),
(84,51,o),
(61,49,o),
(32,47,o),
(2,45,o),
(-9,45,qs),
(-23,45,o),
(-41,34,o),
(-41,22,qs),
(-41,10,o),
(-25,0,o),
(-11,0,qs),
(21,0,o),
(87,2,o),
(119,2,qs),
(151,2,o),
(210,0,o),
(242,0,qs),
(262,0,o),
(284,11,o),
(284,25,qs),
(284,41,o),
(258,49,o),
(248,49,qs),
(236,50,o),
(217,51,o),
(217,65,qs),
(217,71,o),
(233,105,o),
(257,150,o),
(286,201,o),
(299,223,q),
(526,223,l),
(526,190,o),
(525,130,o),
(525,84,qs),
(525,63,o),
(491,48,o),
(444,48,qs),
(424,48,o),
(405,39,o),
(405,24,qs),
(405,10,o),
(436,0,o),
(451,0,qs),
(512,1,o),
(633,2,o),
(694,2,qs),
(763,2,o),
(892,0,o),
(961,0,qs),
(982,0,o),
(1001,13,o),
(1003,33,qs),
(1006,63,o),
(1012,141,o),
(1017,213,o),
(1019,268,o),
(1019,277,qs),
(1019,283,o),
(1018,298,o),
(1012,311,o),
(1001,320,o),
(991,320,qs),
(970,320,o)
);
},
{
closed = 1;
nodes = (
(342,289,o),
(319,289,q),
(331,318,o),
(365,391,o),
(405,469,o),
(446,547,o),
(483,619,o),
(513,678,o),
(521,698,q),
(521,694,ls),
(521,660,o),
(523,609,o),
(525,554,o),
(527,481,o),
(527,425,qs),
(527,379,o),
(527,314,o),
(526,288,q),
(497,287,o),
(439,287,o),
(410,287,qs),
(386,287,o)
);
}
);
userData = {
assembly = "NPUSHB[ ]	/* 10 values pushed */
89 1 14 11 199 1 13 14 2 66
MPPEM[ ]	/* MeasurePixelPerEm */
PUSHB[ ]	/* 1 value pushed */
20
LT[ ]	/* LessThan */
IF[ ]	/* If */
NPUSHB[ ]	/* 98 values pushed */
0 1 0 1 106 0 0 12 0 106 0 11 12 14 14 11 96 0 13 14 16 14 13 16 104 21 1 2 18 20 18 2 20 104 0 16 0 17 5 16 17 91 22 1 20 0 5 19 20 5 89 0 14 14 12 84 0 12 12 12 67 0 18 18 15 83 0 15 15 15 67 0 19 19 3 84 8 1 3 3 13 67 10 9 7 6 4 4 4 3 83 8 1 3 3 13 3 68
ELSE[ ]	/* Else */
MPPEM[ ]	/* MeasurePixelPerEm */
PUSHB[ ]	/* 1 value pushed */
45
LT[ ]	/* LessThan */
IF[ ]	/* If */
NPUSHB[ ]	/* 96 values pushed */
0 1 0 1 106 0 0 12 0 106 0 11 12 14 14 11 96 0 13 14 16 14 13 16 104 21 1 2 18 20 18 2 20 104 0 15 0 18 2 15 18 91 0 16 0 17 5 16 17 91 22 1 20 0 5 19 20 5 89 0 14 14 12 84 0 12 12 12 67 0 19 19 3 84 8 1 3 3 13 67 10 9 7 6 4 4 4 3 83 8 1 3 3 13 3 68
ELSE[ ]	/* Else */
NPUSHB[ ]	/* 96 values pushed */
0 1 0 1 106 0 0 12 0 106 0 11 12 14 14 11 96 0 13 14 16 14 13 16 104 21 1 2 18 20 18 2 20 104 0 15 0 18 2 15 18 91 0 16 0 17 5 16 17 91 22 1 20 0 5 19 20 5 89 0 14 14 12 84 0 12 12 14 67 0 19 19 3 84 8 1 3 3 13 67 10 9 7 6 4 4 4 3 83 8 1 3 3 13 3 68
EIF[ ]	/* EndIf */
EIF[ ]	/* EndIf */
NPUSHB[ ]	/* 50 values pushed */
190 187 17 16 187 208 190 206 175 173 172 165 159 157 147 145 139 130 129 127 118 116 111 98 93 90 79 78 77 73 69 61 57 56 55 54 48 47 42 40 36 28 16 186 17 186 38 36 23 17
CALL[ ]	/* CallFunction */";
};
width = 1054;
},
{
layerId = "E59D8378-1062-4241-9A8F-EEB295F00E05";
shapes = (
{
closed = 1;
nodes = (
(633,972,o),
(625,972,qs),
(618,972,o),
(586,952,o),
(554,925,o),
(530,896,o),
(530,887,qs),
(530,876,o),
(538,876,qs),
(545,876,o),
(580,893,o),
(616,917,o),
(644,942,o),
(644,950,qs),
(644,964,o)
);
},
{
closed = 1;
nodes = (
(950,293,o),
(949,273,qs),
(948,252,o),
(945,195,o),
(941,137,o),
(937,86,o),
(936,73,qs),
(935,60,o),
(927,45,o),
(915,38,o),
(900,36,o),
(893,36,qs),
(564,36,l),
(564,401,l),
(593,402,o),
(649,403,o),
(678,403,qs),
(707,403,o),
(743,402,o),
(757,402,qs),
(772,402,o),
(791,383,o),
(801,355,o),
(805,322,o),
(805,309,qs),
(805,296,o),
(815,280,o),
(822,280,qs),
(826,280,o),
(837,290,o),
(837,307,qs),
(837,335,o),
(835,391,o),
(835,420,qs),
(835,449,o),
(837,504,o),
(837,533,qs),
(837,544,o),
(832,560,o),
(820,560,qs),
(814,560,o),
(807,552,o),
(804,541,o),
(803,531,o),
(803,530,qs),
(803,521,o),
(802,490,o),
(799,461,o),
(792,440,o),
(786,440,qs),
(781,440,o),
(757,439,o),
(726,438,o),
(692,437,o),
(678,437,qs),
(649,437,o),
(593,439,o),
(564,440,q),
(564,785,l),
(867,785,ls),
(877,785,o),
(904,776,o),
(904,757,qs),
(904,645,ls),
(904,631,o),
(909,605,o),
(924,605,qs),
(935,605,o),
(941,632,o),
(941,651,qs),
(941,785,ls),
(941,806,o),
(927,821,o),
(913,821,qs),
(869,821,o),
(815,820,o),
(770,820,o),
(723,819,o),
(686,819,qs),
(667,819,o),
(612,820,o),
(548,820,o),
(478,821,o),
(445,821,qs),
(430,821,o),
(404,815,o),
(404,804,qs),
(404,793,o),
(427,789,o),
(444,789,qs),
(455,789,o),
(482,788,o),
(493,783,q),
(473,744,o),
(417,631,o),
(352,499,o),
(282,358,o),
(215,226,o),
(154,110,o),
(131,69,qs),
(120,51,o),
(96,33,o),
(74,31,qs),
(70,31,o),
(49,29,o),
(22,27,o),
(-7,25,o),
(-18,25,qs),
(-40,25,o),
(-40,14,qs),
(-40,0,o),
(-20,0,qs),
(12,1,o),
(73,2,o),
(105,2,qs),
(137,2,o),
(202,0,o),
(234,0,qs),
(254,0,o),
(271,10,o),
(271,15,qs),
(271,26,o),
(250,29,o),
(240,29,qs),
(229,29,o),
(205,29,o),
(186,32,o),
(173,38,o),
(173,45,qs),
(173,51,o),
(193,95,o),
(223,152,o),
(256,214,o),
(268,238,q),
(522,238,l),
(522,217,o),
(522,180,o),
(521,139,o),
(521,93,o),
(521,64,qs),
(521,43,o),
(487,28,o),
(440,28,qs),
(420,28,o),
(401,22,o),
(401,11,qs),
(401,3,o),
(432,0,o),
(447,0,qs),
(508,1,o),
(629,2,o),
(690,2,qs),
(751,2,o),
(866,0,o),
(927,0,qs),
(947,0,o),
(967,8,o),
(969,33,qs),
(972,63,o),
(977,141,o),
(982,213,o),
(985,268,o),
(985,277,qs),
(985,289,o),
(980,310,o),
(966,310,qs),
(961,310,o)
);
},
{
closed = 1;
nodes = (
(318,274,o),
(288,274,q),
(301,304,o),
(341,388,o),
(386,481,o),
(432,577,o),
(474,663,o),
(508,734,o),
(517,754,q),
(517,750,ls),
(517,716,o),
(519,648,o),
(521,571,o),
(523,481,o),
(523,425,qs),
(523,374,o),
(523,302,o),
(522,273,q),
(493,272,o),
(435,272,o),
(406,272,qs),
(374,272,o)
);
}
);
userData = {
assembly = "PUSHB[ ]	/* 7 values pushed */
194 88 2 12 10 1 66
MPPEM[ ]	/* MeasurePixelPerEm */
PUSHB[ ]	/* 1 value pushed */
20
LT[ ]	/* LessThan */
IF[ ]	/* If */
NPUSHB[ ]	/* 91 values pushed */
0 1 0 1 106 0 0 11 0 106 0 12 10 15 10 12 15 104 20 1 2 17 16 17 2 16 104 0 15 0 16 19 15 16 91 21 1 19 0 5 18 19 5 89 13 1 10 10 11 83 0 11 11 12 67 0 17 17 14 83 0 14 14 15 67 0 18 18 3 83 7 1 3 3 13 67 9 8 6 3 4 4 3 83 7 1 3 3 13 3 68
ELSE[ ]	/* Else */
MPPEM[ ]	/* MeasurePixelPerEm */
PUSHB[ ]	/* 1 value pushed */
45
LT[ ]	/* LessThan */
IF[ ]	/* If */
NPUSHB[ ]	/* 89 values pushed */
0 1 0 1 106 0 0 11 0 106 0 12 10 15 10 12 15 104 20 1 2 17 16 17 2 16 104 0 14 0 17 2 14 17 91 0 15 0 16 19 15 16 91 21 1 19 0 5 18 19 5 89 13 1 10 10 11 83 0 11 11 12 67 0 18 18 3 83 7 1 3 3 13 67 9 8 6 3 4 4 3 83 7 1 3 3 13 3 68
ELSE[ ]	/* Else */
NPUSHB[ ]	/* 89 values pushed */
0 1 0 1 106 0 0 11 0 106 0 12 10 15 10 12 15 104 20 1 2 17 16 17 2 16 104 0 14 0 17 2 14 17 91 0 15 0 16 19 15 16 91 21 1 19 0 5 18 19 5 89 13 1 10 10 11 83 0 11 11 14 67 0 18 18 3 83 7 1 3 3 13 67 9 8 6 3 4 4 3 83 7 1 3 3 13 3 68
EIF[ ]	/* EndIf */
EIF[ ]	/* EndIf */
NPUSHB[ ]	/* 48 values pushed */
185 182 16 15 182 203 185 201 170 168 167 160 154 152 142 140 132 123 122 120 115 113 108 96 92 89 78 77 75 72 70 62 58 55 47 46 39 37 33 25 15 181 16 181 37 36 22 17
CALL[ ]	/* CallFunction */";
};
width = 1023;
}
);
note = AEacute;
unicode = 508;
},
{
glyphname = B;
kernLeft = B;
kernRight = B;
lastChange = "2024-06-13 14:18:27 +0000";
layers = (
{
layerId = m01;
shapes = (
{
closed = 1;
nodes = (
(46,52,o),
(46,35,qs),
(46,18,o),
(68,0,o),
(94,0,qs),
(308,0,ls),
(380,0,o),
(513,23,o),
(615,75,o),
(676,159,o),
(676,220,qs),
(676,299,o),
(574,405,o),
(488,421,q),
(556,439,o),
(634,542,o),
(634,612,qs),
(634,664,o),
(590,742,o),
(517,794,o),
(420,821,o),
(367,821,qs),
(357,821,o),
(294,820,o),
(210,819,o),
(118,818,o),
(79,818,qs),
(63,818,o),
(40,796,o),
(40,780,qs),
(40,761,o),
(57,738,o),
(80,738,qs),
(109,738,o),
(128,724,o),
(130,701,qs),
(131,676,o),
(134,585,o),
(137,477,o),
(138,362,o),
(138,313,qs),
(138,275,o),
(137,164,o),
(137,100,qs),
(137,92,o),
(126,83,o),
(109,78,o),
(89,76,o),
(81,76,qs),
(62,76,o)
);
},
{
closed = 1;
nodes = (
(455,362,o),
(533,331,o),
(581,272,o),
(581,222,qs),
(581,181,o),
(536,127,o),
(447,94,o),
(316,80,o),
(229,80,q),
(229,368,l),
(249,369,o),
(279,371,o),
(308,371,qs),
(357,371,o)
);
},
{
closed = 1;
nodes = (
(434,729,o),
(500,699,o),
(541,646,o),
(541,605,qs),
(541,560,o),
(503,502,o),
(437,467,o),
(349,453,o),
(299,453,qs),
(266,453,o),
(237,454,o),
(229,456,q),
(229,737,l),
(237,738,o),
(275,741,o),
(310,741,qs),
(352,741,o)
);
}
);
userData = {
assembly = "NPUSHB[ ]	/* 12 values pushed */
68 67 13 3 7 1 35 1 4 7 2 66
MPPEM[ ]	/* MeasurePixelPerEm */
PUSHB[ ]	/* 1 value pushed */
20
LT[ ]	/* LessThan */
IF[ ]	/* If */
NPUSHB[ ]	/* 36 values pushed */
10 6 2 1 1 2 83 0 2 2 12 67 9 1 4 4 7 83 0 7 7 15 67 5 8 2 0 0 3 83 0 3 3 13 3 68
ELSE[ ]	/* Else */
MPPEM[ ]	/* MeasurePixelPerEm */
PUSHB[ ]	/* 1 value pushed */
45
LT[ ]	/* LessThan */
IF[ ]	/* If */
NPUSHB[ ]	/* 34 values pushed */
0 7 9 1 4 0 7 4 91 10 6 2 1 1 2 83 0 2 2 12 67 5 8 2 0 0 3 83 0 3 3 13 3 68
ELSE[ ]	/* Else */
NPUSHB[ ]	/* 34 values pushed */
0 7 9 1 4 0 7 4 91 10 6 2 1 1 2 83 0 2 2 14 67 5 8 2 0 0 3 83 0 3 3 13 3 68
EIF[ ]	/* EndIf */
EIF[ ]	/* EndIf */
NPUSHB[ ]	/* 30 values pushed */
65 64 53 50 1 0 72 69 64 80 65 80 55 54 50 63 53 63 45 42 28 21 17 15 0 49 1 49 11 15
CALL[ ]	/* CallFunction */";
};
width = 705;
},
{
layerId = "62092E79-60F6-4D0B-8A38-B9DDC6B60A9E";
shapes = (
{
closed = 1;
nodes = (
(38,39,o),
(38,25,qs),
(38,11,o),
(64,0,o),
(89,0,qs),
(289,0,ls),
(361,0,o),
(494,23,o),
(596,75,o),
(657,159,o),
(657,220,qs),
(657,299,o),
(555,405,o),
(469,421,q),
(537,439,o),
(615,542,o),
(615,612,qs),
(615,664,o),
(571,742,o),
(498,794,o),
(401,821,o),
(348,821,qs),
(339,821,o),
(277,820,o),
(195,819,o),
(104,818,o),
(67,818,qs),
(56,818,o),
(41,805,o),
(41,794,qs),
(41,769,o),
(67,769,qs),
(100,769,o),
(131,760,o),
(132,733,qs),
(133,707,o),
(135,608,o),
(138,489,o),
(140,364,o),
(140,313,qs),
(140,272,o),
(139,140,o),
(139,72,qs),
(139,63,o),
(124,54,o),
(102,49,o),
(77,48,o),
(67,48,qs),
(54,48,o)
);
},
{
closed = 1;
nodes = (
(448,370,o),
(531,337,o),
(583,275,o),
(583,222,qs),
(583,184,o),
(551,131,o),
(495,95,o),
(421,75,o),
(338,65,o),
(251,62,o),
(210,62,q),
(210,377,l),
(220,377,o),
(233,378,o),
(248,379,o),
(270,380,o),
(289,380,qs),
(343,380,o)
);
},
{
closed = 1;
nodes = (
(426,744,o),
(498,711,o),
(543,651,o),
(543,605,qs),
(543,546,o),
(485,482,o),
(402,451,o),
(312,444,o),
(280,444,qs),
(247,444,o),
(210,445,o),
(210,447,qs),
(210,753,l),
(220,754,o),
(233,755,qs),
(244,756,o),
(274,757,o),
(291,757,qs),
(336,757,o)
);
}
);
userData = {
assembly = "NPUSHB[ ]	/* 10 values pushed */
72 1 8 7 34 1 4 8 2 66
MPPEM[ ]	/* MeasurePixelPerEm */
PUSHB[ ]	/* 1 value pushed */
20
LT[ ]	/* LessThan */
IF[ ]	/* If */
NPUSHB[ ]	/* 49 values pushed */
0 1 2 7 7 1 96 9 1 0 6 3 6 0 96 11 1 7 7 2 84 0 2 2 12 67 5 10 2 4 4 8 83 0 8 8 15 67 0 6 6 3 83 0 3 3 13 3 68
ELSE[ ]	/* Else */
MPPEM[ ]	/* MeasurePixelPerEm */
PUSHB[ ]	/* 1 value pushed */
45
LT[ ]	/* LessThan */
IF[ ]	/* If */
NPUSHB[ ]	/* 47 values pushed */
0 1 2 7 7 1 96 9 1 0 6 3 6 0 96 0 8 5 10 2 4 6 8 4 91 11 1 7 7 2 84 0 2 2 12 67 0 6 6 3 83 0 3 3 13 3 68
ELSE[ ]	/* Else */
NPUSHB[ ]	/* 47 values pushed */
0 1 2 7 7 1 96 9 1 0 6 3 6 0 96 0 8 5 10 2 4 6 8 4 91 11 1 7 7 2 84 0 2 2 14 67 0 6 6 3 83 0 3 3 13 3 68
EIF[ ]	/* EndIf */
EIF[ ]	/* EndIf */
NPUSHB[ ]	/* 32 values pushed */
69 67 52 49 2 0 77 74 67 85 69 85 57 55 54 53 49 66 52 66 44 41 27 20 17 15 0 48 2 48 12 15
CALL[ ]	/* CallFunction */";
};
width = 689;
},
{
layerId = "E59D8378-1062-4241-9A8F-EEB295F00E05";
shapes = (
{
closed = 1;
nodes = (
(21,20,o),
(21,12,qs),
(21,3,o),
(49,0,o),
(72,0,qs),
(262,0,ls),
(334,0,o),
(467,23,o),
(569,75,o),
(630,159,o),
(630,220,qs),
(630,299,o),
(528,405,o),
(442,421,q),
(510,439,o),
(588,542,o),
(588,612,qs),
(588,664,o),
(544,742,o),
(471,794,o),
(374,821,o),
(321,821,qs),
(312,821,o),
(252,820,o),
(173,819,o),
(86,818,o),
(50,818,qs),
(39,818,o),
(24,812,o),
(24,804,qs),
(24,798,o),
(36,789,o),
(50,789,qs),
(93,789,o),
(134,779,o),
(135,753,qs),
(136,726,o),
(138,622,o),
(141,497,o),
(143,367,o),
(143,313,qs),
(143,268,o),
(142,126,o),
(142,52,qs),
(142,43,o),
(124,34,o),
(97,29,o),
(65,28,o),
(50,28,qs),
(37,28,o)
);
},
{
closed = 1;
nodes = (
(437,384,o),
(529,348,o),
(586,280,o),
(586,222,qs),
(586,177,o),
(551,114,o),
(491,72,o),
(411,47,o),
(321,35,o),
(227,32,o),
(183,32,q),
(183,392,l),
(193,392,o),
(206,393,o),
(221,394,o),
(243,395,o),
(262,395,qs),
(321,395,o)
);
},
{
closed = 1;
nodes = (
(415,772,o),
(496,731,o),
(546,660,o),
(546,605,qs),
(546,562,o),
(516,503,o),
(467,464,o),
(404,442,o),
(339,432,o),
(277,429,o),
(253,429,qs),
(220,429,o),
(183,430,o),
(183,432,qs),
(183,783,l),
(193,784,o),
(206,785,qs),
(217,786,o),
(247,787,o),
(264,787,qs),
(315,787,o)
);
}
);
userData = {
assembly = "NPUSHB[ ]	/* 10 values pushed */
73 1 8 1 35 1 4 8 2 66
MPPEM[ ]	/* MeasurePixelPerEm */
PUSHB[ ]	/* 1 value pushed */
20
LT[ ]	/* LessThan */
IF[ ]	/* If */
NPUSHB[ ]	/* 37 values pushed */
11 7 2 1 1 2 83 0 2 2 12 67 5 10 2 4 4 8 83 0 8 8 15 67 6 9 2 0 0 3 83 0 3 3 13 3 68
ELSE[ ]	/* Else */
MPPEM[ ]	/* MeasurePixelPerEm */
PUSHB[ ]	/* 1 value pushed */
45
LT[ ]	/* LessThan */
IF[ ]	/* If */
NPUSHB[ ]	/* 35 values pushed */
0 8 5 10 2 4 0 8 4 91 11 7 2 1 1 2 83 0 2 2 12 67 6 9 2 0 0 3 83 0 3 3 13 3 68
ELSE[ ]	/* Else */
NPUSHB[ ]	/* 41 values pushed */
9 1 0 6 3 6 0 96 0 8 5 10 2 4 6 8 4 91 11 7 2 1 1 2 83 0 2 2 14 67 0 6 6 3 83 0 3 3 13 3 68
EIF[ ]	/* EndIf */
EIF[ ]	/* EndIf */
NPUSHB[ ]	/* 32 values pushed */
70 68 53 50 2 0 79 75 68 88 70 88 58 56 55 54 50 67 53 67 45 42 28 21 17 15 0 49 2 49 12 15
CALL[ ]	/* CallFunction */";
};
width = 666;
}
);
note = B;
unicode = 66;
},
{
glyphname = C;
kernLeft = C;
kernRight = C;
lastChange = "2024-06-13 14:18:27 +0000";
layers = (
{
layerId = m01;
shapes = (
{
closed = 1;
nodes = (
(592,253,qs),
(573,253,o),
(555,235,o),
(546,207,qs),
(533,168,o),
(497,114,o),
(446,81,o),
(380,66,o),
(337,66,qs),
(285,66,o),
(207,120,o),
(156,212,o),
(130,335,o),
(130,404,qs),
(130,473,o),
(161,601,o),
(218,700,o),
(296,759,o),
(343,759,qs),
(391,759,o),
(458,718,o),
(501,652,o),
(521,567,o),
(522,524,qs),
(523,486,o),
(546,465,o),
(570,465,qs),
(595,465,o),
(613,489,o),
(613,513,qs),
(613,545,o),
(611,602,o),
(611,634,qs),
(611,670,o),
(615,752,o),
(615,787,qs),
(615,791,o),
(613,805,o),
(605,819,o),
(586,829,o),
(570,829,qs),
(546,829,o),
(532,807,o),
(532,793,qs),
(532,791,o),
(533,759,o),
(536,707,q),
(528,728,o),
(497,774,o),
(449,813,o),
(383,838,o),
(342,838,qs),
(279,838,o),
(167,771,o),
(83,654,o),
(34,496,o),
(34,405,qs),
(34,293,o),
(85,134,o),
(169,33,o),
(275,-14,o),
(329,-14,qs),
(410,-14,o),
(524,36,o),
(595,109,o),
(628,190,o),
(628,222,qs),
(628,253,o)
);
}
);
userData = {
assembly = "PUSHB[ ]	/* 6 values pushed */
20 1 3 4 1 66
MPPEM[ ]	/* MeasurePixelPerEm */
PUSHB[ ]	/* 1 value pushed */
27
LT[ ]	/* LessThan */
IF[ ]	/* If */
NPUSHB[ ]	/* 41 values pushed */
0 6 3 5 3 6 5 104 0 4 4 1 83 2 1 1 1 20 67 0 3 3 1 83 2 1 1 1 20 67 0 5 5 0 83 0 0 0 21 0 68
ELSE[ ]	/* Else */
MPPEM[ ]	/* MeasurePixelPerEm */
PUSHB[ ]	/* 1 value pushed */
45
LT[ ]	/* LessThan */
IF[ ]	/* If */
NPUSHB[ ]	/* 39 values pushed */
0 6 3 5 3 6 5 104 0 4 4 1 83 0 1 1 20 67 0 3 3 2 83 0 2 2 12 67 0 5 5 0 83 0 0 0 21 0 68
ELSE[ ]	/* Else */
NPUSHB[ ]	/* 35 values pushed */
0 6 3 5 3 6 5 104 0 1 0 4 3 1 4 91 0 2 0 3 6 2 3 91 0 5 5 0 83 0 0 0 21 0 68
EIF[ ]	/* EndIf */
EIF[ ]	/* EndIf */
NPUSHB[ ]	/* 9 values pushed */
38 40 38 44 41 40 36 7 22
CALL[ ]	/* CallFunction */";
};
width = 661;
},
{
layerId = "62092E79-60F6-4D0B-8A38-B9DDC6B60A9E";
shapes = (
{
closed = 1;
nodes = (
(581,249,qs),
(563,249,o),
(553,223,o),
(549,203,qs),
(543,170,o),
(509,114,o),
(456,72,o),
(384,48,o),
(340,48,qs),
(283,48,o),
(197,104,o),
(140,201,o),
(112,331,o),
(112,404,qs),
(112,476,o),
(146,611,o),
(208,715,o),
(294,777,o),
(346,777,qs),
(395,777,o),
(463,736,o),
(506,667,o),
(525,576,o),
(525,527,qs),
(525,490,o),
(543,468,o),
(561,468,qs),
(583,468,o),
(595,493,o),
(595,502,qs),
(595,534,o),
(593,602,o),
(593,634,qs),
(593,670,o),
(597,755,o),
(597,790,qs),
(597,793,o),
(595,805,o),
(588,815,o),
(573,823,o),
(561,823,qs),
(543,823,o),
(528,800,o),
(528,788,q),
(528,788,o),
(528,784,o),
(529,767,o),
(531,733,o),
(533,702,q),
(525,723,o),
(496,771,o),
(450,811,o),
(386,838,o),
(345,838,qs),
(282,838,o),
(170,771,o),
(86,654,o),
(37,496,o),
(37,405,qs),
(37,293,o),
(88,134,o),
(172,33,o),
(278,-14,o),
(332,-14,qs),
(407,-14,o),
(513,35,o),
(579,107,o),
(610,187,o),
(610,219,qs),
(610,249,o)
);
}
);
userData = {
assembly = "NPUSHB[ ]	/* 10 values pushed */
25 1 4 2 20 1 3 4 2 66
MPPEM[ ]	/* MeasurePixelPerEm */
PUSHB[ ]	/* 1 value pushed */
45
LT[ ]	/* LessThan */
IF[ ]	/* If */
NPUSHB[ ]	/* 39 values pushed */
0 6 3 5 3 6 5 104 0 4 4 1 83 0 1 1 20 67 0 3 3 2 83 0 2 2 12 67 0 5 5 0 83 0 0 0 21 0 68
ELSE[ ]	/* Else */
NPUSHB[ ]	/* 37 values pushed */
0 6 3 5 3 6 5 104 0 1 0 4 3 1 4 91 0 3 3 2 83 0 2 2 14 67 0 5 5 0 83 0 0 0 21 0 68
EIF[ ]	/* EndIf */
NPUSHB[ ]	/* 9 values pushed */
38 40 38 44 43 40 36 7 22
CALL[ ]	/* CallFunction */";
};
width = 646;
},
{
layerId = "E59D8378-1062-4241-9A8F-EEB295F00E05";
shapes = (
{
closed = 1;
nodes = (
(570,243,qs),
(565,243,o),
(559,233,o),
(556,219,o),
(554,203,o),
(553,197,qs),
(544,158,o),
(509,92,o),
(457,44,o),
(388,18,o),
(344,18,qs),
(279,18,o),
(182,79,o),
(118,184,o),
(86,325,o),
(86,404,qs),
(86,482,o),
(125,627,o),
(194,740,o),
(291,807,o),
(350,807,qs),
(399,807,o),
(467,762,o),
(510,687,o),
(529,587,o),
(529,532,qs),
(529,510,o),
(536,473,o),
(550,473,qs),
(563,473,o),
(569,493,o),
(569,507,qs),
(569,539,o),
(567,602,o),
(567,634,qs),
(567,670,o),
(571,755,o),
(571,790,qs),
(571,797,o),
(561,813,o),
(551,813,qs),
(532,813,o),
(532,788,q),
(532,788,o),
(532,784,o),
(533,767,o),
(535,733,o),
(537,702,q),
(529,723,o),
(500,771,o),
(454,811,o),
(390,838,o),
(349,838,qs),
(286,838,o),
(174,771,o),
(90,654,o),
(41,496,o),
(41,405,qs),
(41,293,o),
(92,134,o),
(176,33,o),
(282,-14,o),
(336,-14,qs),
(403,-14,o),
(497,34,o),
(557,103,o),
(584,182,o),
(584,214,qs),
(584,243,o)
);
}
);
userData = {
assembly = "PUSHB[ ]	/* 7 values pushed */
25 20 2 3 4 1 66
MPPEM[ ]	/* MeasurePixelPerEm */
PUSHB[ ]	/* 1 value pushed */
45
LT[ ]	/* LessThan */
IF[ ]	/* If */
NPUSHB[ ]	/* 39 values pushed */
0 6 3 5 3 6 5 104 0 4 4 1 83 0 1 1 20 67 0 3 3 2 83 0 2 2 14 67 0 5 5 0 83 0 0 0 21 0 68
ELSE[ ]	/* Else */
NPUSHB[ ]	/* 37 values pushed */
0 6 3 5 3 6 5 104 0 1 0 4 3 1 4 91 0 3 3 2 83 0 2 2 14 67 0 5 5 0 83 0 0 0 21 0 68
EIF[ ]	/* EndIf */
NPUSHB[ ]	/* 9 values pushed */
40 40 38 42 42 40 36 7 22
CALL[ ]	/* CallFunction */";
};
width = 625;
}
);
note = C;
unicode = 67;
},
{
glyphname = Cacute;
kernLeft = C;
kernRight = C;
lastChange = "2024-06-13 14:18:27 +0000";
layers = (
{
layerId = m01;
shapes = (
{
closed = 1;
nodes = (
(415,972,o),
(395,972,qs),
(381,972,o),
(342,948,o),
(306,916,o),
(281,881,o),
(281,871,qs),
(281,859,o),
(301,840,o),
(317,840,qs),
(330,840,o),
(370,859,o),
(408,887,o),
(436,921,o),
(436,935,qs),
(436,949,o)
);
},
{
closed = 1;
nodes = (
(592,253,qs),
(573,253,o),
(555,235,o),
(546,207,qs),
(533,168,o),
(497,114,o),
(446,81,o),
(380,66,o),
(337,66,qs),
(285,66,o),
(207,120,o),
(156,212,o),
(130,335,o),
(130,404,qs),
(130,473,o),
(161,601,o),
(218,700,o),
(296,759,o),
(343,759,qs),
(391,759,o),
(458,718,o),
(501,652,o),
(521,567,o),
(522,524,qs),
(523,486,o),
(546,465,o),
(570,465,qs),
(595,465,o),
(613,489,o),
(613,513,qs),
(613,545,o),
(611,602,o),
(611,634,qs),
(611,670,o),
(615,752,o),
(615,787,qs),
(615,791,o),
(613,805,o),
(605,819,o),
(586,829,o),
(570,829,qs),
(546,829,o),
(532,807,o),
(532,793,qs),
(532,791,o),
(533,759,o),
(536,707,q),
(528,728,o),
(497,774,o),
(449,813,o),
(383,838,o),
(342,838,qs),
(279,838,o),
(167,771,o),
(83,654,o),
(34,496,o),
(34,405,qs),
(34,293,o),
(85,134,o),
(169,33,o),
(275,-14,o),
(329,-14,qs),
(410,-14,o),
(524,36,o),
(595,109,o),
(628,190,o),
(628,222,qs),
(628,253,o)
);
}
);
userData = {
assembly = "PUSHB[ ]	/* 6 values pushed */
36 1 5 6 1 66
MPPEM[ ]	/* MeasurePixelPerEm */
PUSHB[ ]	/* 1 value pushed */
9
LT[ ]	/* LessThan */
IF[ ]	/* If */
NPUSHB[ ]	/* 52 values pushed */
0 1 0 3 1 94 0 0 3 0 106 0 8 5 7 5 8 7 104 0 6 6 3 83 4 1 3 3 20 67 0 5 5 3 83 4 1 3 3 20 67 0 7 7 2 83 0 2 2 21 2 68
ELSE[ ]	/* Else */
MPPEM[ ]	/* MeasurePixelPerEm */
PUSHB[ ]	/* 1 value pushed */
27
LT[ ]	/* LessThan */
IF[ ]	/* If */
NPUSHB[ ]	/* 51 values pushed */
0 1 0 1 106 0 0 3 0 106 0 8 5 7 5 8 7 104 0 6 6 3 83 4 1 3 3 20 67 0 5 5 3 83 4 1 3 3 20 67 0 7 7 2 83 0 2 2 21 2 68
ELSE[ ]	/* Else */
MPPEM[ ]	/* MeasurePixelPerEm */
PUSHB[ ]	/* 1 value pushed */
45
LT[ ]	/* LessThan */
IF[ ]	/* If */
NPUSHB[ ]	/* 49 values pushed */
0 1 0 1 106 0 0 3 0 106 0 8 5 7 5 8 7 104 0 6 6 3 83 0 3 3 20 67 0 5 5 4 83 0 4 4 12 67 0 7 7 2 83 0 2 2 21 2 68
ELSE[ ]	/* Else */
NPUSHB[ ]	/* 45 values pushed */
0 1 0 1 106 0 0 3 0 106 0 8 5 7 5 8 7 104 0 3 0 6 5 3 6 92 0 4 0 5 8 4 5 91 0 7 7 2 83 0 2 2 21 2 68
EIF[ ]	/* EndIf */
EIF[ ]	/* EndIf */
EIF[ ]	/* EndIf */
NPUSHB[ ]	/* 11 values pushed */
38 40 38 44 41 40 38 38 36 9 24
CALL[ ]	/* CallFunction */";
};
width = 661;
},
{
layerId = "62092E79-60F6-4D0B-8A38-B9DDC6B60A9E";
shapes = (
{
closed = 1;
nodes = (
(424,972,o),
(409,972,qs),
(398,972,o),
(362,950,o),
(328,919,o),
(303,887,o),
(303,877,qs),
(303,867,o),
(316,854,o),
(327,854,qs),
(337,854,o),
(376,872,o),
(413,899,o),
(441,929,o),
(441,941,qs),
(441,955,o)
);
},
{
closed = 1;
nodes = (
(581,249,qs),
(563,249,o),
(553,223,o),
(549,203,qs),
(543,170,o),
(509,114,o),
(456,72,o),
(384,48,o),
(340,48,qs),
(283,48,o),
(197,104,o),
(140,201,o),
(112,331,o),
(112,404,qs),
(112,476,o),
(146,611,o),
(208,715,o),
(294,777,o),
(346,777,qs),
(395,777,o),
(463,736,o),
(506,667,o),
(525,576,o),
(525,527,qs),
(525,490,o),
(543,468,o),
(561,468,qs),
(583,468,o),
(595,493,o),
(595,502,qs),
(595,534,o),
(593,602,o),
(593,634,qs),
(593,670,o),
(597,755,o),
(597,790,qs),
(597,793,o),
(595,805,o),
(588,815,o),
(573,823,o),
(561,823,qs),
(543,823,o),
(528,800,o),
(528,788,q),
(528,788,o),
(528,784,o),
(529,767,o),
(531,733,o),
(533,702,q),
(525,723,o),
(496,771,o),
(450,811,o),
(386,838,o),
(345,838,qs),
(282,838,o),
(170,771,o),
(86,654,o),
(37,496,o),
(37,405,qs),
(37,293,o),
(88,134,o),
(172,33,o),
(278,-14,o),
(332,-14,qs),
(407,-14,o),
(513,35,o),
(579,107,o),
(610,187,o),
(610,219,qs),
(610,249,o)
);
}
);
userData = {
assembly = "NPUSHB[ ]	/* 10 values pushed */
41 1 6 4 36 1 5 6 2 66
MPPEM[ ]	/* MeasurePixelPerEm */
PUSHB[ ]	/* 1 value pushed */
45
LT[ ]	/* LessThan */
IF[ ]	/* If */
NPUSHB[ ]	/* 49 values pushed */
0 1 0 1 106 0 0 3 0 106 0 8 5 7 5 8 7 104 0 6 6 3 83 0 3 3 20 67 0 5 5 4 83 0 4 4 12 67 0 7 7 2 84 0 2 2 21 2 68
ELSE[ ]	/* Else */
NPUSHB[ ]	/* 47 values pushed */
0 1 0 1 106 0 0 3 0 106 0 8 5 7 5 8 7 104 0 3 0 6 5 3 6 91 0 5 5 4 83 0 4 4 14 67 0 7 7 2 84 0 2 2 21 2 68
EIF[ ]	/* EndIf */
NPUSHB[ ]	/* 11 values pushed */
38 40 38 44 43 40 38 38 36 9 24
CALL[ ]	/* CallFunction */";
};
width = 646;
},
{
layerId = "E59D8378-1062-4241-9A8F-EEB295F00E05";
shapes = (
{
closed = 1;
nodes = (
(394,971,o),
(386,971,qs),
(379,971,o),
(347,951,o),
(315,924,o),
(291,895,o),
(291,886,qs),
(291,875,o),
(299,875,qs),
(306,875,o),
(341,892,o),
(377,916,o),
(405,941,o),
(405,949,qs),
(405,963,o)
);
},
{
closed = 1;
nodes = (
(570,243,qs),
(565,243,o),
(559,233,o),
(556,219,o),
(554,203,o),
(553,197,qs),
(544,158,o),
(509,92,o),
(457,44,o),
(388,18,o),
(344,18,qs),
(279,18,o),
(182,79,o),
(118,184,o),
(86,325,o),
(86,404,qs),
(86,482,o),
(125,627,o),
(194,740,o),
(291,807,o),
(350,807,qs),
(399,807,o),
(467,762,o),
(510,687,o),
(529,587,o),
(529,532,qs),
(529,510,o),
(536,473,o),
(550,473,qs),
(563,473,o),
(569,493,o),
(569,507,qs),
(569,539,o),
(567,602,o),
(567,634,qs),
(567,670,o),
(571,755,o),
(571,790,qs),
(571,797,o),
(561,813,o),
(551,813,qs),
(532,813,o),
(532,788,q),
(532,788,o),
(532,784,o),
(533,767,o),
(535,733,o),
(537,702,q),
(529,723,o),
(500,771,o),
(454,811,o),
(390,838,o),
(349,838,qs),
(286,838,o),
(174,771,o),
(90,654,o),
(41,496,o),
(41,405,qs),
(41,293,o),
(92,134,o),
(176,33,o),
(282,-14,o),
(336,-14,qs),
(403,-14,o),
(497,34,o),
(557,103,o),
(584,182,o),
(584,214,qs),
(584,243,o)
);
}
);
userData = {
assembly = "PUSHB[ ]	/* 7 values pushed */
40 35 2 5 6 1 66
MPPEM[ ]	/* MeasurePixelPerEm */
PUSHB[ ]	/* 1 value pushed */
9
LT[ ]	/* LessThan */
IF[ ]	/* If */
NPUSHB[ ]	/* 50 values pushed */
0 1 0 3 1 94 0 0 3 0 106 0 8 5 7 5 8 7 104 0 6 6 3 83 0 3 3 20 67 0 5 5 4 83 0 4 4 14 67 0 7 7 2 83 0 2 2 21 2 68
ELSE[ ]	/* Else */
MPPEM[ ]	/* MeasurePixelPerEm */
PUSHB[ ]	/* 1 value pushed */
45
LT[ ]	/* LessThan */
IF[ ]	/* If */
NPUSHB[ ]	/* 49 values pushed */
0 1 0 1 106 0 0 3 0 106 0 8 5 7 5 8 7 104 0 6 6 3 83 0 3 3 20 67 0 5 5 4 83 0 4 4 14 67 0 7 7 2 83 0 2 2 21 2 68
ELSE[ ]	/* Else */
NPUSHB[ ]	/* 47 values pushed */
0 1 0 1 106 0 0 3 0 106 0 8 5 7 5 8 7 104 0 3 0 6 5 3 6 92 0 5 5 4 83 0 4 4 14 67 0 7 7 2 83 0 2 2 21 2 68
EIF[ ]	/* EndIf */
EIF[ ]	/* EndIf */
NPUSHB[ ]	/* 11 values pushed */
40 40 38 42 42 40 38 37 36 9 24
CALL[ ]	/* CallFunction */";
};
width = 625;
}
);
note = Cacute;
unicode = 262;
},
{
glyphname = Ccaron;
kernLeft = C;
kernRight = C;
lastChange = "2024-06-13 14:18:27 +0000";
layers = (
{
layerId = m01;
shapes = (
{
closed = 1;
nodes = (
(592,253,qs),
(573,253,o),
(555,235,o),
(546,207,qs),
(533,168,o),
(497,114,o),
(446,81,o),
(380,66,o),
(337,66,qs),
(285,66,o),
(207,120,o),
(156,212,o),
(130,335,o),
(130,404,qs),
(130,473,o),
(161,601,o),
(218,700,o),
(296,759,o),
(343,759,qs),
(391,759,o),
(458,718,o),
(501,652,o),
(521,567,o),
(522,524,qs),
(523,486,o),
(546,465,o),
(570,465,qs),
(595,465,o),
(613,489,o),
(613,513,qs),
(613,545,o),
(611,602,o),
(611,634,qs),
(611,670,o),
(615,752,o),
(615,787,qs),
(615,791,o),
(613,805,o),
(605,819,o),
(586,829,o),
(570,829,qs),
(546,829,o),
(532,807,o),
(532,793,qs),
(532,791,o),
(533,759,o),
(536,707,q),
(529,726,o),
(501,769,o),
(458,806,o),
(401,833,o),
(365,837,q),
(380,844,o),
(419,872,o),
(454,905,o),
(478,938,o),
(478,951,qs),
(478,958,o),
(473,972,o),
(465,972,qs),
(460,972,o),
(434,965,o),
(400,951,o),
(362,933,o),
(345,922,q),
(330,933,o),
(293,951,o),
(259,965,o),
(231,972,o),
(226,972,qs),
(220,972,o),
(213,963,o),
(213,958,qs),
(213,942,o),
(238,906,o),
(273,872,o),
(312,844,o),
(326,837,q),
(266,833,o),
(159,763,o),
(80,647,o),
(34,493,o),
(34,405,qs),
(34,293,o),
(85,134,o),
(169,33,o),
(275,-14,o),
(329,-14,qs),
(410,-14,o),
(524,36,o),
(595,109,o),
(628,190,o),
(628,222,qs),
(628,253,o)
);
}
);
userData = {
assembly = "NPUSHB[ ]	/* 11 values pushed */
41 28 2 1 2 46 1 5 6 2 66
MPPEM[ ]	/* MeasurePixelPerEm */
PUSHB[ ]	/* 1 value pushed */
39
LT[ ]	/* LessThan */
IF[ ]	/* If */
NPUSHB[ ]	/* 47 values pushed */
3 1 2 1 2 106 0 8 5 7 5 8 7 104 0 6 6 1 83 4 1 1 1 20 67 0 5 5 1 83 4 1 1 1 20 67 0 7 7 0 83 0 0 0 21 0 68
ELSE[ ]	/* Else */
MPPEM[ ]	/* MeasurePixelPerEm */
PUSHB[ ]	/* 1 value pushed */
45
LT[ ]	/* LessThan */
IF[ ]	/* If */
NPUSHB[ ]	/* 45 values pushed */
3 1 2 1 2 106 0 8 5 7 5 8 7 104 0 6 6 1 83 0 1 1 20 67 0 5 5 4 83 0 4 4 12 67 0 7 7 0 83 0 0 0 21 0 68
ELSE[ ]	/* Else */
NPUSHB[ ]	/* 41 values pushed */
3 1 2 1 2 106 0 8 5 7 5 8 7 104 0 1 0 6 5 1 6 91 0 4 0 5 8 4 5 91 0 7 7 0 83 0 0 0 21 0 68
EIF[ ]	/* EndIf */
EIF[ ]	/* EndIf */
NPUSHB[ ]	/* 16 values pushed */
93 91 85 83 75 73 67 65 53 51 40 39 24 36 9 19
CALL[ ]	/* CallFunction */";
};
width = 661;
},
{
layerId = "62092E79-60F6-4D0B-8A38-B9DDC6B60A9E";
shapes = (
{
closed = 1;
nodes = (
(430,964,o),
(396,950,o),
(358,931,o),
(341,921,q),
(324,931,o),
(286,950,o),
(253,964,o),
(227,972,o),
(222,972,qs),
(211,972,o),
(211,959,qs),
(211,943,o),
(246,904,o),
(291,870,o),
(333,847,o),
(341,847,qs),
(350,847,o),
(393,871,o),
(438,904,o),
(472,941,o),
(472,955,qs),
(472,962,o),
(467,972,o),
(461,972,qs),
(456,972,o)
);
},
{
closed = 1;
nodes = (
(581,249,qs),
(563,249,o),
(553,223,o),
(549,203,qs),
(543,170,o),
(509,114,o),
(456,72,o),
(384,48,o),
(340,48,qs),
(283,48,o),
(197,104,o),
(140,201,o),
(112,331,o),
(112,404,qs),
(112,476,o),
(146,611,o),
(208,715,o),
(294,777,o),
(346,777,qs),
(395,777,o),
(463,736,o),
(506,667,o),
(525,576,o),
(525,527,qs),
(525,490,o),
(543,468,o),
(561,468,qs),
(583,468,o),
(595,493,o),
(595,502,qs),
(595,534,o),
(593,602,o),
(593,634,qs),
(593,670,o),
(597,755,o),
(597,790,qs),
(597,793,o),
(595,805,o),
(588,815,o),
(573,823,o),
(561,823,qs),
(543,823,o),
(528,800,o),
(528,788,q),
(528,788,o),
(528,784,o),
(529,767,o),
(531,733,o),
(533,702,q),
(525,723,o),
(496,771,o),
(450,811,o),
(386,838,o),
(345,838,qs),
(282,838,o),
(170,771,o),
(86,654,o),
(37,496,o),
(37,405,qs),
(37,293,o),
(88,134,o),
(172,33,o),
(278,-14,o),
(332,-14,qs),
(407,-14,o),
(513,35,o),
(579,107,o),
(610,187,o),
(610,219,qs),
(610,249,o)
);
}
);
userData = {
assembly = "NPUSHB[ ]	/* 14 values pushed */
20 1 1 0 50 1 7 5 45 1 6 7 3 66
MPPEM[ ]	/* MeasurePixelPerEm */
PUSHB[ ]	/* 1 value pushed */
45
LT[ ]	/* LessThan */
IF[ ]	/* If */
NPUSHB[ ]	/* 51 values pushed */
2 10 2 0 1 0 106 0 1 4 1 106 0 9 6 8 6 9 8 104 0 7 7 4 83 0 4 4 20 67 0 6 6 5 83 0 5 5 12 67 0 8 8 3 83 0 3 3 21 3 68
ELSE[ ]	/* Else */
NPUSHB[ ]	/* 49 values pushed */
2 10 2 0 1 0 106 0 1 4 1 106 0 9 6 8 6 9 8 104 0 4 0 7 6 4 7 91 0 6 6 5 83 0 5 5 14 67 0 8 8 3 83 0 3 3 21 3 68
EIF[ ]	/* EndIf */
NPUSHB[ ]	/* 26 values pushed */
1 0 94 92 86 84 76 74 68 66 54 52 41 39 31 29 16 14 9 7 0 24 1 24 11 15
CALL[ ]	/* CallFunction */";
};
width = 646;
},
{
layerId = "E59D8378-1062-4241-9A8F-EEB295F00E05";
shapes = (
{
closed = 1;
nodes = (
(434,962,o),
(400,947,o),
(362,929,o),
(345,920,q),
(324,929,o),
(285,947,o),
(254,962,o),
(231,972,o),
(226,972,qs),
(218,972,o),
(218,961,qs),
(218,952,o),
(251,923,o),
(295,896,o),
(336,876,o),
(345,876,qs),
(354,876,o),
(397,896,o),
(440,923,o),
(473,952,o),
(473,961,qs),
(473,972,o),
(465,972,qs),
(460,972,o)
);
},
{
closed = 1;
nodes = (
(570,243,qs),
(565,243,o),
(559,233,o),
(556,219,o),
(554,203,o),
(553,197,qs),
(544,158,o),
(509,92,o),
(457,44,o),
(388,18,o),
(344,18,qs),
(279,18,o),
(182,79,o),
(118,184,o),
(86,325,o),
(86,404,qs),
(86,482,o),
(125,627,o),
(194,740,o),
(291,807,o),
(350,807,qs),
(399,807,o),
(467,762,o),
(510,687,o),
(529,587,o),
(529,532,qs),
(529,510,o),
(536,473,o),
(550,473,qs),
(563,473,o),
(569,493,o),
(569,507,qs),
(569,539,o),
(567,602,o),
(567,634,qs),
(567,670,o),
(571,755,o),
(571,790,qs),
(571,797,o),
(561,813,o),
(551,813,qs),
(532,813,o),
(532,788,q),
(532,788,o),
(532,784,o),
(533,767,o),
(535,733,o),
(537,702,q),
(529,723,o),
(500,771,o),
(454,811,o),
(390,838,o),
(349,838,qs),
(286,838,o),
(174,771,o),
(90,654,o),
(41,496,o),
(41,405,qs),
(41,293,o),
(92,134,o),
(176,33,o),
(282,-14,o),
(336,-14,qs),
(403,-14,o),
(497,34,o),
(557,103,o),
(584,182,o),
(584,214,qs),
(584,243,o)
);
}
);
userData = {
assembly = "NPUSHB[ ]	/* 11 values pushed */
19 1 1 0 49 44 2 6 7 2 66
MPPEM[ ]	/* MeasurePixelPerEm */
PUSHB[ ]	/* 1 value pushed */
45
LT[ ]	/* LessThan */
IF[ ]	/* If */
NPUSHB[ ]	/* 51 values pushed */
2 10 2 0 1 0 106 0 1 4 1 106 0 9 6 8 6 9 8 104 0 7 7 4 83 0 4 4 20 67 0 6 6 5 83 0 5 5 14 67 0 8 8 3 83 0 3 3 21 3 68
ELSE[ ]	/* Else */
NPUSHB[ ]	/* 49 values pushed */
2 10 2 0 1 0 106 0 1 4 1 106 0 9 6 8 6 9 8 104 0 4 0 7 6 4 7 91 0 6 6 5 83 0 5 5 14 67 0 8 8 3 83 0 3 3 21 3 68
EIF[ ]	/* EndIf */
NPUSHB[ ]	/* 26 values pushed */
1 0 92 90 82 80 72 70 64 62 52 50 40 38 30 28 15 13 8 6 0 23 1 23 11 15
CALL[ ]	/* CallFunction */";
};
width = 625;
}
);
note = Ccaron;
unicode = 268;
},
{
glyphname = Ccedilla;
kernLeft = C;
kernRight = C;
lastChange = "2024-06-13 14:18:27 +0000";
layers = (
{
layerId = m01;
shapes = (
{
closed = 1;
nodes = (
(592,253,qs),
(573,253,o),
(555,235,o),
(546,207,qs),
(533,168,o),
(497,114,o),
(446,81,o),
(380,66,o),
(337,66,qs),
(285,66,o),
(207,120,o),
(156,212,o),
(130,335,o),
(130,404,qs),
(130,473,o),
(161,601,o),
(218,700,o),
(296,759,o),
(343,759,qs),
(391,759,o),
(458,718,o),
(501,652,o),
(521,567,o),
(522,524,qs),
(523,486,o),
(546,465,o),
(570,465,qs),
(595,465,o),
(613,489,o),
(613,513,qs),
(613,545,o),
(611,602,o),
(611,634,qs),
(611,670,o),
(615,752,o),
(615,787,qs),
(615,791,o),
(613,805,o),
(605,819,o),
(586,829,o),
(570,829,qs),
(546,829,o),
(532,807,o),
(532,793,qs),
(532,791,o),
(533,759,o),
(536,707,q),
(528,728,o),
(497,774,o),
(449,813,o),
(383,838,o),
(342,838,qs),
(279,838,o),
(167,771,o),
(83,654,o),
(34,496,o),
(34,405,qs),
(34,302,o),
(78,151,o),
(150,50,o),
(243,-4,o),
(293,-11,q),
(291,-24,o),
(287,-63,o),
(283,-80,qs),
(282,-84,o),
(280,-94,o),
(280,-97,qs),
(280,-108,o),
(295,-130,o),
(318,-130,qs),
(334,-130,o),
(356,-121,o),
(375,-111,o),
(394,-102,o),
(408,-102,qs),
(416,-102,o),
(431,-110,o),
(431,-118,qs),
(431,-130,o),
(413,-140,o),
(386,-140,qs),
(359,-140,o),
(329,-146,o),
(314,-155,o),
(311,-165,o),
(311,-168,qs),
(311,-181,o),
(348,-190,o),
(390,-190,qs),
(415,-190,o),
(462,-180,o),
(498,-161,o),
(519,-132,o),
(519,-112,qs),
(519,-83,o),
(475,-49,o),
(442,-49,qs),
(421,-49,o),
(386,-64,o),
(362,-78,q),
(374,-11,l),
(442,-4,o),
(539,49,o),
(600,118,o),
(628,193,o),
(628,222,qs),
(628,253,o)
);
}
);
userData = {
assembly = "NPUSHB[ ]	/* 14 values pushed */
60 1 7 8 45 1 0 9 6 1 3 0 3 66
MPPEM[ ]	/* MeasurePixelPerEm */
PUSHB[ ]	/* 1 value pushed */
20
LT[ ]	/* LessThan */
IF[ ]	/* If */
NPUSHB[ ]	/* 64 values pushed */
0 10 7 9 7 10 9 104 0 0 9 3 9 0 3 104 0 3 4 9 3 4 102 0 9 0 4 2 9 4 91 0 8 8 5 83 6 1 5 5 20 67 0 7 7 5 83 6 1 5 5 20 67 0 2 2 1 83 0 1 1 17 1 68
ELSE[ ]	/* Else */
MPPEM[ ]	/* MeasurePixelPerEm */
PUSHB[ ]	/* 1 value pushed */
27
LT[ ]	/* LessThan */
IF[ ]	/* If */
NPUSHB[ ]	/* 61 values pushed */
0 10 7 9 7 10 9 104 0 0 9 3 9 0 3 104 0 3 4 9 3 4 102 0 9 0 4 2 9 4 91 0 2 0 1 2 1 87 0 8 8 5 83 6 1 5 5 20 67 0 7 7 5 83 6 1 5 5 20 7 68
ELSE[ ]	/* Else */
MPPEM[ ]	/* MeasurePixelPerEm */
PUSHB[ ]	/* 1 value pushed */
45
LT[ ]	/* LessThan */
IF[ ]	/* If */
NPUSHB[ ]	/* 59 values pushed */
0 10 7 9 7 10 9 104 0 0 9 3 9 0 3 104 0 3 4 9 3 4 102 0 9 0 4 2 9 4 91 0 2 0 1 2 1 87 0 8 8 5 83 0 5 5 20 67 0 7 7 6 83 0 6 6 12 7 68
ELSE[ ]	/* Else */
NPUSHB[ ]	/* 63 values pushed */
0 10 7 9 7 10 9 104 0 0 9 3 9 0 3 104 0 3 4 9 3 4 102 0 5 0 8 7 5 8 91 0 6 0 7 10 6 7 91 0 9 0 4 2 9 4 91 0 2 1 1 2 79 0 2 2 1 83 0 1 2 1 71
EIF[ ]	/* EndIf */
EIF[ ]	/* EndIf */
EIF[ ]	/* EndIf */
NPUSHB[ ]	/* 19 values pushed */
107 105 99 97 89 87 81 79 67 65 56 54 35 36 38 38 40 11 20
CALL[ ]	/* CallFunction */";
};
width = 661;
},
{
layerId = "62092E79-60F6-4D0B-8A38-B9DDC6B60A9E";
shapes = (
{
alignment = -1;
pos = (37,0);
ref = .ttfautohint;
},
{
alignment = -1;
ref = C;
},
{
alignment = -1;
pos = (316,0);
ref = cedilla;
}
);
userData = {
assembly = "NPUSHB[ ]	/* 18 values pushed */
26 1 4 2 21 1 3 4 72 1 0 12 73 1 10 7 4 66
MPPEM[ ]	/* MeasurePixelPerEm */
PUSHB[ ]	/* 1 value pushed */
11
LT[ ]	/* LessThan */
IF[ ]	/* If */
NPUSHB[ ]	/* 72 values pushed */
0 6 3 5 3 6 5 104 13 1 12 5 0 5 12 96 0 11 10 9 0 11 96 0 7 0 10 11 7 10 91 0 4 4 1 83 0 1 1 20 67 0 3 3 2 83 0 2 2 12 67 0 5 5 0 83 0 0 0 21 67 0 9 9 8 83 0 8 8 17 8 68
ELSE[ ]	/* Else */
MPPEM[ ]	/* MeasurePixelPerEm */
PUSHB[ ]	/* 1 value pushed */
24
LT[ ]	/* LessThan */
IF[ ]	/* If */
NPUSHB[ ]	/* 73 values pushed */
0 6 3 5 3 6 5 104 13 1 12 5 0 5 12 96 0 11 10 9 10 11 9 104 0 7 0 10 11 7 10 91 0 4 4 1 83 0 1 1 20 67 0 3 3 2 83 0 2 2 12 67 0 5 5 0 83 0 0 0 21 67 0 9 9 8 83 0 8 8 17 8 68
ELSE[ ]	/* Else */
MPPEM[ ]	/* MeasurePixelPerEm */
PUSHB[ ]	/* 1 value pushed */
31
LT[ ]	/* LessThan */
IF[ ]	/* If */
NPUSHB[ ]	/* 70 values pushed */
0 6 3 5 3 6 5 104 13 1 12 5 0 5 12 96 0 11 10 9 10 11 9 104 0 7 0 10 11 7 10 91 0 9 0 8 9 8 87 0 4 4 1 83 0 1 1 20 67 0 3 3 2 83 0 2 2 12 67 0 5 5 0 83 0 0 0 21 0 68
ELSE[ ]	/* Else */
MPPEM[ ]	/* MeasurePixelPerEm */
PUSHB[ ]	/* 1 value pushed */
45
LT[ ]	/* LessThan */
IF[ ]	/* If */
NPUSHB[ ]	/* 71 values pushed */
0 6 3 5 3 6 5 104 13 1 12 5 0 5 12 0 104 0 11 10 9 10 11 9 104 0 7 0 10 11 7 10 91 0 9 0 8 9 8 87 0 4 4 1 83 0 1 1 20 67 0 3 3 2 83 0 2 2 12 67 0 5 5 0 83 0 0 0 21 0 68
ELSE[ ]	/* Else */
NPUSHB[ ]	/* 69 values pushed */
0 6 3 5 3 6 5 104 13 1 12 5 0 5 12 0 104 0 11 10 9 10 11 9 104 0 1 0 4 3 1 4 91 0 7 0 10 11 7 10 91 0 9 0 8 9 8 87 0 3 3 2 83 0 2 2 14 67 0 5 5 0 83 0 0 0 21 0 68
EIF[ ]	/* EndIf */
EIF[ ]	/* EndIf */
EIF[ ]	/* EndIf */
EIF[ ]	/* EndIf */
NPUSHB[ ]	/* 23 values pushed */
71 71 71 110 71 110 102 100 97 95 91 89 38 37 38 40 38 44 43 40 37 14 35
CALL[ ]	/* CallFunction */";
};
width = 646;
},
{
layerId = "E59D8378-1062-4241-9A8F-EEB295F00E05";
shapes = (
{
closed = 1;
nodes = (
(570,243,qs),
(565,243,o),
(559,233,o),
(556,219,o),
(554,203,o),
(553,197,qs),
(544,158,o),
(509,92,o),
(457,44,o),
(388,18,o),
(344,18,qs),
(279,18,o),
(182,79,o),
(118,184,o),
(86,325,o),
(86,404,qs),
(86,482,o),
(125,627,o),
(194,740,o),
(291,807,o),
(350,807,qs),
(399,807,o),
(467,762,o),
(510,687,o),
(529,587,o),
(529,532,qs),
(529,510,o),
(536,473,o),
(550,473,qs),
(563,473,o),
(569,493,o),
(569,507,qs),
(569,539,o),
(567,602,o),
(567,634,qs),
(567,670,o),
(571,755,o),
(571,790,qs),
(571,797,o),
(561,813,o),
(551,813,qs),
(532,813,o),
(532,788,q),
(532,788,o),
(532,784,o),
(533,767,o),
(535,733,o),
(537,702,q),
(529,723,o),
(500,771,o),
(454,811,o),
(390,838,o),
(349,838,qs),
(286,838,o),
(174,771,o),
(90,654,o),
(41,496,o),
(41,405,qs),
(41,296,o),
(90,139,o),
(169,38,o),
(271,-12,o),
(324,-14,q),
(322,-31,o),
(313,-80,o),
(310,-96,qs),
(309,-100,o),
(307,-110,o),
(307,-113,qs),
(307,-117,o),
(315,-125,o),
(323,-125,qs),
(330,-125,o),
(350,-116,o),
(374,-106,o),
(401,-97,o),
(415,-97,qs),
(437,-97,o),
(458,-120,o),
(458,-134,qs),
(458,-157,o),
(408,-177,o),
(362,-177,qs),
(342,-177,o),
(321,-180,o),
(321,-189,qs),
(321,-196,o),
(338,-206,o),
(366,-206,qs),
(391,-206,o),
(438,-196,o),
(474,-177,o),
(495,-148,o),
(495,-128,qs),
(495,-99,o),
(451,-65,o),
(418,-65,qs),
(397,-65,o),
(362,-80,o),
(338,-94,q),
(353,-13,l),
(415,-10,o),
(503,39,o),
(558,108,o),
(584,184,o),
(584,214,qs),
(584,243,o)
);
}
);
userData = {
assembly = "NPUSHB[ ]	/* 11 values pushed */
63 58 2 9 10 6 1 4 1 2 66
MPPEM[ ]	/* MeasurePixelPerEm */
PUSHB[ ]	/* 1 value pushed */
11
LT[ ]	/* LessThan */
IF[ ]	/* If */
NPUSHB[ ]	/* 65 values pushed */
0 12 9 11 9 12 11 104 0 5 4 3 0 5 96 0 1 0 4 5 1 4 91 0 10 10 7 83 0 7 7 20 67 0 9 9 8 83 0 8 8 14 67 0 11 11 0 83 6 1 0 0 21 67 0 3 3 2 83 0 2 2 17 2 68
ELSE[ ]	/* Else */
MPPEM[ ]	/* MeasurePixelPerEm */
PUSHB[ ]	/* 1 value pushed */
39
LT[ ]	/* LessThan */
IF[ ]	/* If */
NPUSHB[ ]	/* 66 values pushed */
0 12 9 11 9 12 11 104 0 5 4 3 4 5 3 104 0 1 0 4 5 1 4 91 0 10 10 7 83 0 7 7 20 67 0 9 9 8 83 0 8 8 14 67 0 11 11 0 83 6 1 0 0 24 67 0 3 3 2 83 0 2 2 17 2 68
ELSE[ ]	/* Else */
MPPEM[ ]	/* MeasurePixelPerEm */
PUSHB[ ]	/* 1 value pushed */
45
LT[ ]	/* LessThan */
IF[ ]	/* If */
NPUSHB[ ]	/* 63 values pushed */
0 12 9 11 9 12 11 104 0 5 4 3 4 5 3 104 0 1 0 4 5 1 4 91 0 3 0 2 3 2 87 0 10 10 7 83 0 7 7 20 67 0 9 9 8 83 0 8 8 14 67 0 11 11 0 83 6 1 0 0 24 0 68
ELSE[ ]	/* Else */
NPUSHB[ ]	/* 61 values pushed */
0 12 9 11 9 12 11 104 0 5 4 3 4 5 3 104 0 7 0 10 9 7 10 91 0 1 0 4 5 1 4 91 0 3 0 2 3 2 87 0 9 9 8 83 0 8 8 14 67 0 11 11 0 83 6 1 0 0 24 0 68
EIF[ ]	/* EndIf */
EIF[ ]	/* EndIf */
EIF[ ]	/* EndIf */
NPUSHB[ ]	/* 19 values pushed */
106 104 96 94 86 84 78 76 42 40 24 35 36 36 38 35 20 13 24
CALL[ ]	/* CallFunction */";
};
width = 625;
}
);
note = Ccedilla;
unicode = 199;
},
{
glyphname = Ccircumflex;
kernLeft = C;
kernRight = C;
lastChange = "2024-06-13 14:18:27 +0000";
layers = (
{
layerId = m01;
shapes = (
{
closed = 1;
nodes = (
(470,844,o),
(470,851,qs),
(470,867,o),
(435,908,o),
(389,946,o),
(346,972,o),
(337,972,qs),
(330,972,o),
(287,947,o),
(241,909,o),
(205,864,o),
(205,844,qs),
(205,839,o),
(211,830,o),
(218,830,qs),
(229,830,o),
(297,858,o),
(337,880,q),
(377,858,o),
(446,830,o),
(457,830,qs),
(465,830,o)
);
},
{
closed = 1;
nodes = (
(592,253,qs),
(573,253,o),
(555,235,o),
(546,207,qs),
(533,168,o),
(497,114,o),
(446,81,o),
(380,66,o),
(337,66,qs),
(285,66,o),
(207,120,o),
(156,212,o),
(130,335,o),
(130,404,qs),
(130,473,o),
(161,601,o),
(218,700,o),
(296,759,o),
(343,759,qs),
(391,759,o),
(458,718,o),
(501,652,o),
(521,567,o),
(522,524,qs),
(523,486,o),
(546,465,o),
(570,465,qs),
(595,465,o),
(613,489,o),
(613,513,qs),
(613,545,o),
(611,602,o),
(611,634,qs),
(611,670,o),
(615,752,o),
(615,787,qs),
(615,791,o),
(613,805,o),
(605,819,o),
(586,829,o),
(570,829,qs),
(546,829,o),
(532,807,o),
(532,793,qs),
(532,791,o),
(533,759,o),
(536,707,q),
(528,728,o),
(497,774,o),
(449,813,o),
(383,838,o),
(342,838,qs),
(279,838,o),
(167,771,o),
(83,654,o),
(34,496,o),
(34,405,qs),
(34,293,o),
(85,134,o),
(169,33,o),
(275,-14,o),
(329,-14,qs),
(410,-14,o),
(524,36,o),
(595,109,o),
(628,190,o),
(628,222,qs),
(628,253,o)
);
}
);
userData = {
assembly = "NPUSHB[ ]	/* 10 values pushed */
3 1 4 2 42 1 6 7 2 66
MPPEM[ ]	/* MeasurePixelPerEm */
PUSHB[ ]	/* 1 value pushed */
9
LT[ ]	/* LessThan */
IF[ ]	/* If */
NPUSHB[ ]	/* 57 values pushed */
0 2 4 4 2 94 1 10 2 0 4 7 4 0 7 104 0 9 6 8 6 9 8 104 0 7 7 4 83 5 1 4 4 20 67 0 6 6 4 83 5 1 4 4 20 67 0 8 8 3 83 0 3 3 21 3 68
ELSE[ ]	/* Else */
MPPEM[ ]	/* MeasurePixelPerEm */
PUSHB[ ]	/* 1 value pushed */
27
LT[ ]	/* LessThan */
IF[ ]	/* If */
NPUSHB[ ]	/* 56 values pushed */
0 2 4 2 106 1 10 2 0 4 7 4 0 7 104 0 9 6 8 6 9 8 104 0 7 7 4 83 5 1 4 4 20 67 0 6 6 4 83 5 1 4 4 20 67 0 8 8 3 83 0 3 3 21 3 68
ELSE[ ]	/* Else */
MPPEM[ ]	/* MeasurePixelPerEm */
PUSHB[ ]	/* 1 value pushed */
45
LT[ ]	/* LessThan */
IF[ ]	/* If */
NPUSHB[ ]	/* 54 values pushed */
0 2 4 2 106 1 10 2 0 4 5 4 0 5 104 0 9 6 8 6 9 8 104 0 7 7 4 83 0 4 4 20 67 0 6 6 5 83 0 5 5 12 67 0 8 8 3 83 0 3 3 21 3 68
ELSE[ ]	/* Else */
NPUSHB[ ]	/* 50 values pushed */
0 2 4 2 106 1 10 2 0 4 5 4 0 5 104 0 9 6 8 6 9 8 104 0 4 0 7 6 4 7 92 0 5 0 6 9 5 6 91 0 8 8 3 83 0 3 3 21 3 68
EIF[ ]	/* EndIf */
EIF[ ]	/* EndIf */
EIF[ ]	/* EndIf */
NPUSHB[ ]	/* 26 values pushed */
1 0 89 87 81 79 71 69 63 61 49 47 38 36 28 26 15 13 7 5 0 21 1 21 11 15
CALL[ ]	/* CallFunction */";
};
width = 661;
},
{
layerId = "62092E79-60F6-4D0B-8A38-B9DDC6B60A9E";
shapes = (
{
closed = 1;
nodes = (
(472,857,o),
(472,864,qs),
(472,877,o),
(438,915,o),
(393,948,o),
(350,972,o),
(341,972,qs),
(333,972,o),
(291,949,o),
(246,915,o),
(211,876,o),
(211,860,qs),
(211,847,o),
(222,847,qs),
(227,847,o),
(253,855,o),
(286,869,o),
(324,888,o),
(341,898,q),
(358,888,o),
(396,869,o),
(430,855,o),
(456,847,o),
(461,847,qs),
(467,847,o)
);
},
{
closed = 1;
nodes = (
(581,249,qs),
(563,249,o),
(553,223,o),
(549,203,qs),
(543,170,o),
(509,114,o),
(456,72,o),
(384,48,o),
(340,48,qs),
(283,48,o),
(197,104,o),
(140,201,o),
(112,331,o),
(112,404,qs),
(112,476,o),
(146,611,o),
(208,715,o),
(294,777,o),
(346,777,qs),
(395,777,o),
(463,736,o),
(506,667,o),
(525,576,o),
(525,527,qs),
(525,490,o),
(543,468,o),
(561,468,qs),
(583,468,o),
(595,493,o),
(595,502,qs),
(595,534,o),
(593,602,o),
(593,634,qs),
(593,670,o),
(597,755,o),
(597,790,qs),
(597,793,o),
(595,805,o),
(588,815,o),
(573,823,o),
(561,823,qs),
(543,823,o),
(528,800,o),
(528,788,q),
(528,788,o),
(528,784,o),
(529,767,o),
(531,733,o),
(533,702,q),
(525,723,o),
(496,771,o),
(450,811,o),
(386,838,o),
(345,838,qs),
(282,838,o),
(170,771,o),
(86,654,o),
(37,496,o),
(37,405,qs),
(37,293,o),
(88,134,o),
(172,33,o),
(278,-14,o),
(332,-14,qs),
(407,-14,o),
(513,35,o),
(579,107,o),
(610,187,o),
(610,219,qs),
(610,249,o)
);
}
);
userData = {
assembly = "NPUSHB[ ]	/* 14 values pushed */
5 1 0 2 50 1 7 5 45 1 6 7 3 66
MPPEM[ ]	/* MeasurePixelPerEm */
PUSHB[ ]	/* 1 value pushed */
9
LT[ ]	/* LessThan */
IF[ ]	/* If */
NPUSHB[ ]	/* 52 values pushed */
0 2 0 4 2 94 1 10 2 0 4 0 106 0 9 6 8 6 9 8 104 0 7 7 4 83 0 4 4 20 67 0 6 6 5 83 0 5 5 12 67 0 8 8 3 83 0 3 3 21 3 68
ELSE[ ]	/* Else */
MPPEM[ ]	/* MeasurePixelPerEm */
PUSHB[ ]	/* 1 value pushed */
45
LT[ ]	/* LessThan */
IF[ ]	/* If */
NPUSHB[ ]	/* 51 values pushed */
0 2 0 2 106 1 10 2 0 4 0 106 0 9 6 8 6 9 8 104 0 7 7 4 83 0 4 4 20 67 0 6 6 5 83 0 5 5 12 67 0 8 8 3 83 0 3 3 21 3 68
ELSE[ ]	/* Else */
NPUSHB[ ]	/* 49 values pushed */
0 2 0 2 106 1 10 2 0 4 0 106 0 9 6 8 6 9 8 104 0 4 0 7 6 4 7 92 0 6 6 5 83 0 5 5 14 67 0 8 8 3 83 0 3 3 21 3 68
EIF[ ]	/* EndIf */
EIF[ ]	/* EndIf */
NPUSHB[ ]	/* 26 values pushed */
1 0 94 92 86 84 76 74 68 66 54 52 41 39 31 29 18 16 11 9 0 24 1 24 11 15
CALL[ ]	/* CallFunction */";
};
width = 646;
},
{
layerId = "E59D8378-1062-4241-9A8F-EEB295F00E05";
shapes = (
{
closed = 1;
nodes = (
(475,886,qs),
(475,895,o),
(442,925,o),
(399,952,o),
(356,972,o),
(347,972,qs),
(338,972,o),
(297,952,o),
(253,925,o),
(220,895,o),
(220,886,qs),
(220,875,o),
(228,875,qs),
(233,875,o),
(262,885,o),
(297,901,o),
(333,919,o),
(347,928,q),
(360,919,o),
(397,901,o),
(433,885,o),
(462,875,o),
(467,875,qs),
(475,875,o)
);
},
{
closed = 1;
nodes = (
(570,243,qs),
(565,243,o),
(559,233,o),
(556,219,o),
(554,203,o),
(553,197,qs),
(544,158,o),
(509,92,o),
(457,44,o),
(388,18,o),
(344,18,qs),
(279,18,o),
(182,79,o),
(118,184,o),
(86,325,o),
(86,404,qs),
(86,482,o),
(125,627,o),
(194,740,o),
(291,807,o),
(350,807,qs),
(399,807,o),
(467,762,o),
(510,687,o),
(529,587,o),
(529,532,qs),
(529,510,o),
(536,473,o),
(550,473,qs),
(563,473,o),
(569,493,o),
(569,507,qs),
(569,539,o),
(567,602,o),
(567,634,qs),
(567,670,o),
(571,755,o),
(571,790,qs),
(571,797,o),
(561,813,o),
(551,813,qs),
(532,813,o),
(532,788,q),
(532,788,o),
(532,784,o),
(533,767,o),
(535,733,o),
(537,702,q),
(529,723,o),
(500,771,o),
(454,811,o),
(390,838,o),
(349,838,qs),
(286,838,o),
(174,771,o),
(90,654,o),
(41,496,o),
(41,405,qs),
(41,293,o),
(92,134,o),
(176,33,o),
(282,-14,o),
(336,-14,qs),
(403,-14,o),
(497,34,o),
(557,103,o),
(584,182,o),
(584,214,qs),
(584,243,o)
);
}
);
userData = {
assembly = "NPUSHB[ ]	/* 11 values pushed */
5 1 0 2 49 44 2 6 7 2 66
MPPEM[ ]	/* MeasurePixelPerEm */
PUSHB[ ]	/* 1 value pushed */
9
LT[ ]	/* LessThan */
IF[ ]	/* If */
NPUSHB[ ]	/* 52 values pushed */
0 2 0 4 2 94 1 10 2 0 4 0 106 0 9 6 8 6 9 8 104 0 7 7 4 83 0 4 4 20 67 0 6 6 5 83 0 5 5 14 67 0 8 8 3 83 0 3 3 21 3 68
ELSE[ ]	/* Else */
MPPEM[ ]	/* MeasurePixelPerEm */
PUSHB[ ]	/* 1 value pushed */
45
LT[ ]	/* LessThan */
IF[ ]	/* If */
NPUSHB[ ]	/* 51 values pushed */
0 2 0 2 106 1 10 2 0 4 0 106 0 9 6 8 6 9 8 104 0 7 7 4 83 0 4 4 20 67 0 6 6 5 83 0 5 5 14 67 0 8 8 3 83 0 3 3 21 3 68
ELSE[ ]	/* Else */
NPUSHB[ ]	/* 49 values pushed */
0 2 0 2 106 1 10 2 0 4 0 106 0 9 6 8 6 9 8 104 0 4 0 7 6 4 7 92 0 6 6 5 83 0 5 5 14 67 0 8 8 3 83 0 3 3 21 3 68
EIF[ ]	/* EndIf */
EIF[ ]	/* EndIf */
NPUSHB[ ]	/* 26 values pushed */
1 0 92 90 82 80 72 70 64 62 52 50 40 38 30 28 18 16 11 9 0 23 1 23 11 15
CALL[ ]	/* CallFunction */";
};
width = 625;
}
);
note = Ccircumflex;
unicode = 264;
},
{
glyphname = Cdotaccent;
kernLeft = C;
kernRight = C;
lastChange = "2024-06-13 14:18:27 +0000";
layers = (
{
layerId = m01;
shapes = (
{
closed = 1;
nodes = (
(592,253,qs),
(573,253,o),
(555,235,o),
(546,207,qs),
(533,168,o),
(497,114,o),
(446,81,o),
(380,66,o),
(337,66,qs),
(285,66,o),
(207,120,o),
(156,212,o),
(130,335,o),
(130,404,qs),
(130,473,o),
(161,601,o),
(218,700,o),
(296,759,o),
(343,759,qs),
(391,759,o),
(458,718,o),
(501,652,o),
(521,567,o),
(522,524,qs),
(523,486,o),
(546,465,o),
(570,465,qs),
(595,465,o),
(613,489,o),
(613,513,qs),
(613,545,o),
(611,602,o),
(611,634,qs),
(611,670,o),
(615,752,o),
(615,787,qs),
(615,791,o),
(613,805,o),
(605,819,o),
(586,829,o),
(570,829,qs),
(546,829,o),
(532,807,o),
(532,793,qs),
(532,791,o),
(533,759,o),
(536,707,q),
(528,728,o),
(497,774,o),
(449,813,o),
(383,838,o),
(342,838,qs),
(279,838,o),
(167,771,o),
(83,654,o),
(34,496,o),
(34,405,qs),
(34,293,o),
(85,134,o),
(169,33,o),
(275,-14,o),
(329,-14,qs),
(410,-14,o),
(524,36,o),
(595,109,o),
(628,190,o),
(628,222,qs),
(628,253,o)
);
},
{
closed = 1;
nodes = (
(318,840,o),
(343,840,qs),
(354,840,o),
(378,846,o),
(397,862,o),
(410,889,o),
(410,910,qs),
(410,937,o),
(374,971,o),
(350,971,qs),
(332,971,o),
(307,958,o),
(291,939,o),
(284,916,o),
(284,906,qs),
(284,874,o)
);
}
);
userData = {
assembly = "PUSHB[ ]	/* 6 values pushed */
20 1 3 4 1 66
MPPEM[ ]	/* MeasurePixelPerEm */
PUSHB[ ]	/* 1 value pushed */
27
LT[ ]	/* LessThan */
IF[ ]	/* If */
NPUSHB[ ]	/* 49 values pushed */
0 6 3 5 3 6 5 104 0 7 0 8 1 7 8 91 0 4 4 1 83 2 1 1 1 20 67 0 3 3 1 83 2 1 1 1 20 67 0 5 5 0 83 0 0 0 21 0 68
ELSE[ ]	/* Else */
MPPEM[ ]	/* MeasurePixelPerEm */
PUSHB[ ]	/* 1 value pushed */
45
LT[ ]	/* LessThan */
IF[ ]	/* If */
NPUSHB[ ]	/* 47 values pushed */
0 6 3 5 3 6 5 104 0 7 0 8 1 7 8 91 0 4 4 1 83 0 1 1 20 67 0 3 3 2 83 0 2 2 12 67 0 5 5 0 83 0 0 0 21 0 68
ELSE[ ]	/* Else */
NPUSHB[ ]	/* 43 values pushed */
0 6 3 5 3 6 5 104 0 7 0 8 1 7 8 91 0 1 0 4 3 1 4 91 0 2 0 3 6 2 3 91 0 5 5 0 83 0 0 0 21 0 68
EIF[ ]	/* EndIf */
EIF[ ]	/* EndIf */
NPUSHB[ ]	/* 11 values pushed */
38 37 38 40 38 44 41 40 36 9 24
CALL[ ]	/* CallFunction */";
};
width = 661;
},
{
layerId = "62092E79-60F6-4D0B-8A38-B9DDC6B60A9E";
shapes = (
{
alignment = -1;
pos = (37,0);
ref = .ttfautohint;
},
{
alignment = -1;
ref = C;
},
{
alignment = -1;
pos = (281,336);
ref = dotaccent;
}
);
userData = {
assembly = "NPUSHB[ ]	/* 10 values pushed */
26 1 4 2 21 1 3 4 2 66
MPPEM[ ]	/* MeasurePixelPerEm */
PUSHB[ ]	/* 1 value pushed */
45
LT[ ]	/* LessThan */
IF[ ]	/* If */
NPUSHB[ ]	/* 47 values pushed */
0 6 3 5 3 6 5 104 0 7 0 8 1 7 8 91 0 4 4 1 83 0 1 1 20 67 0 3 3 2 83 0 2 2 12 67 0 5 5 0 83 0 0 0 21 0 68
ELSE[ ]	/* Else */
NPUSHB[ ]	/* 45 values pushed */
0 6 3 5 3 6 5 104 0 7 0 8 1 7 8 91 0 1 0 4 3 1 4 91 0 3 3 2 83 0 2 2 14 67 0 5 5 0 83 0 0 0 21 0 68
EIF[ ]	/* EndIf */
NPUSHB[ ]	/* 11 values pushed */
36 37 38 40 38 44 43 40 37 9 35
CALL[ ]	/* CallFunction */";
};
width = 646;
},
{
layerId = "E59D8378-1062-4241-9A8F-EEB295F00E05";
shapes = (
{
closed = 1;
nodes = (
(570,243,qs),
(565,243,o),
(559,233,o),
(556,219,o),
(554,203,o),
(553,197,qs),
(544,158,o),
(509,92,o),
(457,44,o),
(388,18,o),
(344,18,qs),
(279,18,o),
(182,79,o),
(118,184,o),
(86,325,o),
(86,404,qs),
(86,482,o),
(125,627,o),
(194,740,o),
(291,807,o),
(350,807,qs),
(399,807,o),
(467,762,o),
(510,687,o),
(529,587,o),
(529,532,qs),
(529,510,o),
(536,473,o),
(550,473,qs),
(563,473,o),
(569,493,o),
(569,507,qs),
(569,539,o),
(567,602,o),
(567,634,qs),
(567,670,o),
(571,755,o),
(571,790,qs),
(571,797,o),
(561,813,o),
(551,813,qs),
(532,813,o),
(532,788,q),
(532,788,o),
(532,784,o),
(533,767,o),
(535,733,o),
(537,702,q),
(529,723,o),
(500,771,o),
(454,811,o),
(390,838,o),
(349,838,qs),
(286,838,o),
(174,771,o),
(90,654,o),
(41,496,o),
(41,405,qs),
(41,293,o),
(92,134,o),
(176,33,o),
(282,-14,o),
(336,-14,qs),
(403,-14,o),
(497,34,o),
(557,103,o),
(584,182,o),
(584,214,qs),
(584,243,o)
);
},
{
closed = 1;
nodes = (
(334,889,o),
(348,889,qs),
(362,889,o),
(389,908,o),
(389,935,qs),
(389,952,o),
(369,972,o),
(355,972,qs),
(344,972,o),
(329,963,o),
(319,950,o),
(314,936,o),
(314,931,qs),
(314,913,o)
);
}
);
userData = {
assembly = "PUSHB[ ]	/* 7 values pushed */
25 20 2 3 4 1 66
MPPEM[ ]	/* MeasurePixelPerEm */
PUSHB[ ]	/* 1 value pushed */
45
LT[ ]	/* LessThan */
IF[ ]	/* If */
NPUSHB[ ]	/* 47 values pushed */
0 6 3 5 3 6 5 104 0 7 0 8 1 7 8 91 0 4 4 1 83 0 1 1 20 67 0 3 3 2 83 0 2 2 14 67 0 5 5 0 83 0 0 0 21 0 68
ELSE[ ]	/* Else */
NPUSHB[ ]	/* 45 values pushed */
0 6 3 5 3 6 5 104 0 7 0 8 1 7 8 91 0 1 0 4 3 1 4 91 0 3 3 2 83 0 2 2 14 67 0 5 5 0 83 0 0 0 21 0 68
EIF[ ]	/* EndIf */
NPUSHB[ ]	/* 11 values pushed */
36 37 40 40 38 42 42 40 36 9 24
CALL[ ]	/* CallFunction */";
};
width = 625;
}
);
note = Cdotaccent;
unicode = 266;
},
{
glyphname = D;
kernLeft = B;
kernRight = D;
lastChange = "2024-06-13 14:18:27 +0000";
layers = (
{
layerId = m01;
shapes = (
{
closed = 1;
nodes = (
(78,738,qs),
(100,738,o),
(132,722,o),
(132,696,qs),
(132,673,o),
(134,600,o),
(137,523,o),
(139,455,o),
(139,437,qs),
(139,371,o),
(139,288,o),
(138,220,o),
(138,150,o),
(138,97,qs),
(138,85,o),
(111,75,o),
(83,73,qs),
(63,71,o),
(41,54,o),
(41,31,qs),
(41,0,o),
(78,0,qs),
(289,0,ls),
(387,0,o),
(535,70,o),
(633,189,o),
(682,349,o),
(682,439,qs),
(682,545,o),
(610,691,o),
(498,781,o),
(362,821,o),
(299,821,qs),
(238,821,o),
(126,820,o),
(76,818,qs),
(59,817,o),
(41,794,o),
(41,776,qs),
(41,738,o)
);
},
{
closed = 1;
nodes = (
(480,691,o),
(552,609,o),
(586,500,o),
(586,439,qs),
(586,363,o),
(552,232,o),
(481,136,o),
(370,82,o),
(293,82,qs),
(284,82,o),
(262,82,o),
(244,84,o),
(231,88,o),
(231,92,qs),
(231,734,l),
(246,735,o),
(278,738,o),
(293,738,qs),
(369,738,o)
);
}
);
userData = {
assembly = "MPPEM[ ]	/* MeasurePixelPerEm */
PUSHB[ ]	/* 1 value pushed */
45
LT[ ]	/* LessThan */
IF[ ]	/* If */
NPUSHB[ ]	/* 24 values pushed */
4 6 3 3 2 2 0 83 0 0 0 12 67 0 5 5 1 83 0 1 1 13 1 68
ELSE[ ]	/* Else */
NPUSHB[ ]	/* 24 values pushed */
4 6 3 3 2 2 0 83 0 0 0 14 67 0 5 5 1 83 0 1 1 13 1 68
EIF[ ]	/* EndIf */
NPUSHB[ ]	/* 16 values pushed */
41 40 50 47 43 42 40 58 41 58 39 37 56 82 7 17
CALL[ ]	/* CallFunction */";
};
width = 715;
},
{
layerId = "62092E79-60F6-4D0B-8A38-B9DDC6B60A9E";
shapes = (
{
closed = 1;
nodes = (
(42,802,o),
(42,794,qs),
(42,784,o),
(53,769,o),
(65,769,qs),
(78,769,o),
(103,767,o),
(122,759,o),
(133,742,o),
(133,727,qs),
(133,704,o),
(135,621,o),
(138,533,o),
(140,455,o),
(140,437,qs),
(140,369,o),
(140,279,o),
(139,203,o),
(139,127,o),
(139,72,qs),
(139,63,o),
(124,53,o),
(102,49,o),
(79,48,o),
(70,48,qs),
(53,48,o),
(39,37,o),
(39,24,qs),
(39,11,o),
(58,0,o),
(75,0,qs),
(269,0,ls),
(367,0,o),
(515,70,o),
(613,189,o),
(662,349,o),
(662,439,qs),
(662,545,o),
(590,691,o),
(478,781,o),
(342,821,o),
(279,821,qs),
(218,821,o),
(113,820,o),
(63,818,qs),
(52,817,o)
);
},
{
closed = 1;
nodes = (
(473,706,o),
(550,620,o),
(587,504,o),
(587,439,qs),
(587,359,o),
(551,222,o),
(474,121,o),
(355,64,o),
(273,64,qs),
(264,64,o),
(242,64,o),
(224,66,o),
(211,70,o),
(211,74,qs),
(211,752,l),
(226,753,o),
(258,756,o),
(273,756,qs),
(355,756,o)
);
}
);
userData = {
assembly = "MPPEM[ ]	/* MeasurePixelPerEm */
PUSHB[ ]	/* 1 value pushed */
45
LT[ ]	/* LessThan */
IF[ ]	/* If */
NPUSHB[ ]	/* 37 values pushed */
0 3 0 4 4 3 96 0 2 6 1 6 2 96 5 7 2 4 4 0 84 0 0 0 12 67 0 6 6 1 83 0 1 1 13 1 68
ELSE[ ]	/* Else */
NPUSHB[ ]	/* 37 values pushed */
0 3 0 4 4 3 96 0 2 6 1 6 2 96 5 7 2 4 4 0 84 0 0 0 14 67 0 6 6 1 83 0 1 1 13 1 68
EIF[ ]	/* EndIf */
NPUSHB[ ]	/* 17 values pushed */
47 46 56 53 49 48 46 64 47 64 41 39 52 56 64 8 18
CALL[ ]	/* CallFunction */";
};
width = 698;
},
{
layerId = "E59D8378-1062-4241-9A8F-EEB295F00E05";
shapes = (
{
closed = 1;
nodes = (
(24,805,qs),
(24,800,o),
(34,789,o),
(47,789,qs),
(68,789,o),
(100,787,o),
(123,779,o),
(135,762,o),
(135,747,qs),
(135,722,o),
(137,634,o),
(140,540,o),
(142,456,o),
(142,437,qs),
(142,365,o),
(142,270,o),
(141,190,o),
(141,110,o),
(141,52,qs),
(141,43,o),
(123,33,o),
(96,29,o),
(65,28,o),
(52,28,qs),
(35,28,o),
(21,19,o),
(21,12,qs),
(21,4,o),
(40,0,o),
(57,0,qs),
(241,0,ls),
(339,0,o),
(487,70,o),
(585,189,o),
(634,349,o),
(634,439,qs),
(634,545,o),
(562,691,o),
(450,781,o),
(314,821,o),
(251,821,qs),
(190,821,o),
(95,820,o),
(45,818,qs),
(24,817,o)
);
},
{
closed = 1;
nodes = (
(465,731,o),
(549,637,o),
(589,511,o),
(589,439,qs),
(589,353,o),
(549,205,o),
(465,96,o),
(335,34,o),
(245,34,qs),
(236,34,o),
(214,34,o),
(196,36,o),
(183,40,o),
(183,44,qs),
(183,782,l),
(198,783,o),
(230,786,o),
(245,786,qs),
(335,786,o)
);
}
);
userData = {
assembly = "MPPEM[ ]	/* MeasurePixelPerEm */
PUSHB[ ]	/* 1 value pushed */
45
LT[ ]	/* LessThan */
IF[ ]	/* If */
NPUSHB[ ]	/* 38 values pushed */
0 5 3 6 3 5 96 0 2 6 1 6 2 96 8 4 2 3 3 0 83 7 1 0 0 12 67 0 6 6 1 83 0 1 1 13 1 68
ELSE[ ]	/* Else */
NPUSHB[ ]	/* 38 values pushed */
0 5 3 6 3 5 96 0 2 6 1 6 2 96 8 4 2 3 3 0 83 7 1 0 0 14 67 0 6 6 1 83 0 1 1 13 1 68
EIF[ ]	/* EndIf */
NPUSHB[ ]	/* 24 values pushed */
46 45 4 0 55 52 48 47 45 63 46 63 41 38 22 19 15 12 0 44 4 44 9 15
CALL[ ]	/* CallFunction */";
};
width = 674;
}
);
note = D;
unicode = 68;
},
{
glyphname = Dcaron;
kernLeft = B;
kernRight = D;
lastChange = "2024-06-13 14:18:27 +0000";
layers = (
{
layerId = m01;
shapes = (
{
closed = 1;
nodes = (
(410,965,o),
(375,952,o),
(338,933,o),
(323,922,q),
(308,933,o),
(271,952,o),
(237,965,o),
(209,972,o),
(204,972,qs),
(197,972,o),
(191,963,o),
(191,958,qs),
(191,938,o),
(227,894,o),
(273,855,o),
(316,830,o),
(323,830,qs),
(332,830,o),
(375,856,o),
(421,893,o),
(456,935,o),
(456,951,qs),
(456,958,o),
(451,972,o),
(443,972,qs),
(438,972,o)
);
},
{
closed = 1;
nodes = (
(78,738,qs),
(100,738,o),
(132,722,o),
(132,696,qs),
(132,673,o),
(134,600,o),
(137,523,o),
(139,455,o),
(139,437,qs),
(139,371,o),
(139,288,o),
(138,220,o),
(138,150,o),
(138,97,qs),
(138,85,o),
(111,75,o),
(83,73,qs),
(63,71,o),
(41,54,o),
(41,31,qs),
(41,0,o),
(78,0,qs),
(289,0,ls),
(387,0,o),
(535,70,o),
(633,189,o),
(682,349,o),
(682,439,qs),
(682,545,o),
(610,691,o),
(498,781,o),
(362,821,o),
(299,821,qs),
(238,821,o),
(126,820,o),
(76,818,qs),
(59,817,o),
(41,794,o),
(41,776,qs),
(41,738,o)
);
},
{
closed = 1;
nodes = (
(480,691,o),
(552,609,o),
(586,500,o),
(586,439,qs),
(586,363,o),
(552,232,o),
(481,136,o),
(370,82,o),
(293,82,qs),
(284,82,o),
(262,82,o),
(244,84,o),
(231,88,o),
(231,92,qs),
(231,734,l),
(246,735,o),
(278,738,o),
(293,738,qs),
(369,738,o)
);
}
);
userData = {
assembly = "PUSHB[ ]	/* 6 values pushed */
21 1 1 0 1 66
MPPEM[ ]	/* MeasurePixelPerEm */
PUSHB[ ]	/* 1 value pushed */
45
LT[ ]	/* LessThan */
IF[ ]	/* If */
NPUSHB[ ]	/* 36 values pushed */
2 9 2 0 1 0 106 0 1 3 1 106 7 10 6 3 5 5 3 83 0 3 3 12 67 0 8 8 4 84 0 4 4 13 4 68
ELSE[ ]	/* Else */
NPUSHB[ ]	/* 36 values pushed */
2 9 2 0 1 0 106 0 1 3 1 106 7 10 6 3 5 5 3 83 0 3 3 14 67 0 8 8 4 84 0 4 4 13 4 68
EIF[ ]	/* EndIf */
NPUSHB[ ]	/* 28 values pushed */
67 66 1 0 76 73 69 68 66 84 67 84 65 63 44 41 33 28 17 15 9 7 0 25 1 25 11 15
CALL[ ]	/* CallFunction */";
};
width = 715;
},
{
layerId = "62092E79-60F6-4D0B-8A38-B9DDC6B60A9E";
shapes = (
{
closed = 1;
nodes = (
(392,964,o),
(358,950,o),
(320,931,o),
(303,921,q),
(286,931,o),
(248,950,o),
(215,964,o),
(189,972,o),
(184,972,qs),
(173,972,o),
(173,959,qs),
(173,943,o),
(208,904,o),
(253,870,o),
(295,847,o),
(303,847,qs),
(312,847,o),
(355,871,o),
(400,904,o),
(434,941,o),
(434,955,qs),
(434,962,o),
(429,972,o),
(423,972,qs),
(418,972,o)
);
},
{
closed = 1;
nodes = (
(42,802,o),
(42,794,qs),
(42,784,o),
(53,769,o),
(65,769,qs),
(78,769,o),
(103,767,o),
(122,759,o),
(133,742,o),
(133,727,qs),
(133,704,o),
(135,621,o),
(138,533,o),
(140,455,o),
(140,437,qs),
(140,369,o),
(140,279,o),
(139,203,o),
(139,127,o),
(139,72,qs),
(139,63,o),
(124,53,o),
(102,49,o),
(79,48,o),
(70,48,qs),
(53,48,o),
(39,37,o),
(39,24,qs),
(39,11,o),
(58,0,o),
(75,0,qs),
(269,0,ls),
(367,0,o),
(515,70,o),
(613,189,o),
(662,349,o),
(662,439,qs),
(662,545,o),
(590,691,o),
(478,781,o),
(342,821,o),
(279,821,qs),
(218,821,o),
(113,820,o),
(63,818,qs),
(52,817,o)
);
},
{
closed = 1;
nodes = (
(473,706,o),
(550,620,o),
(587,504,o),
(587,439,qs),
(587,359,o),
(551,222,o),
(474,121,o),
(355,64,o),
(273,64,qs),
(264,64,o),
(242,64,o),
(224,66,o),
(211,70,o),
(211,74,qs),
(211,752,l),
(226,753,o),
(258,756,o),
(273,756,qs),
(355,756,o)
);
}
);
userData = {
assembly = "PUSHB[ ]	/* 6 values pushed */
20 1 1 0 1 66
MPPEM[ ]	/* MeasurePixelPerEm */
PUSHB[ ]	/* 1 value pushed */
45
LT[ ]	/* LessThan */
IF[ ]	/* If */
NPUSHB[ ]	/* 49 values pushed */
2 10 2 0 1 0 106 0 1 3 1 106 0 6 3 7 7 6 96 0 5 9 4 9 5 96 8 11 2 7 7 3 84 0 3 3 12 67 0 9 9 4 84 0 4 4 13 4 68
ELSE[ ]	/* Else */
NPUSHB[ ]	/* 49 values pushed */
2 10 2 0 1 0 106 0 1 3 1 106 0 6 3 7 7 6 96 0 5 9 4 9 5 96 8 11 2 7 7 3 84 0 3 3 14 67 0 9 9 4 84 0 4 4 13 4 68
EIF[ ]	/* EndIf */
NPUSHB[ ]	/* 30 values pushed */
72 71 1 0 81 78 74 73 71 89 72 89 66 64 47 44 40 37 29 25 16 14 9 7 0 24 1 24 12 15
CALL[ ]	/* CallFunction */";
};
width = 698;
},
{
layerId = "E59D8378-1062-4241-9A8F-EEB295F00E05";
shapes = (
{
closed = 1;
nodes = (
(367,962,o),
(335,946,o),
(296,928,o),
(275,919,q),
(254,928,o),
(215,946,o),
(184,962,o),
(161,972,o),
(156,972,qs),
(148,972,o),
(148,961,qs),
(148,952,o),
(181,922,o),
(225,895,o),
(266,875,o),
(275,875,qs),
(284,875,o),
(327,895,o),
(370,922,o),
(403,952,o),
(403,961,qs),
(403,972,o),
(395,972,qs),
(390,972,o)
);
},
{
closed = 1;
nodes = (
(24,805,qs),
(24,800,o),
(34,789,o),
(47,789,qs),
(68,789,o),
(100,787,o),
(123,779,o),
(135,762,o),
(135,747,qs),
(135,722,o),
(137,634,o),
(140,540,o),
(142,456,o),
(142,437,qs),
(142,365,o),
(142,270,o),
(141,190,o),
(141,110,o),
(141,52,qs),
(141,43,o),
(123,33,o),
(96,29,o),
(65,28,o),
(52,28,qs),
(35,28,o),
(21,19,o),
(21,12,qs),
(21,4,o),
(40,0,o),
(57,0,qs),
(241,0,ls),
(339,0,o),
(487,70,o),
(585,189,o),
(634,349,o),
(634,439,qs),
(634,545,o),
(562,691,o),
(450,781,o),
(314,821,o),
(251,821,qs),
(190,821,o),
(95,820,o),
(45,818,qs),
(24,817,o)
);
},
{
closed = 1;
nodes = (
(465,731,o),
(549,637,o),
(589,511,o),
(589,439,qs),
(589,353,o),
(549,205,o),
(465,96,o),
(335,34,o),
(245,34,qs),
(236,34,o),
(214,34,o),
(196,36,o),
(183,40,o),
(183,44,qs),
(183,782,l),
(198,783,o),
(230,786,o),
(245,786,qs),
(335,786,o)
);
}
);
userData = {
assembly = "PUSHB[ ]	/* 6 values pushed */
19 1 1 0 1 66
MPPEM[ ]	/* MeasurePixelPerEm */
PUSHB[ ]	/* 1 value pushed */
45
LT[ ]	/* LessThan */
IF[ ]	/* If */
NPUSHB[ ]	/* 50 values pushed */
2 10 2 0 1 0 106 0 1 3 1 106 0 8 6 9 6 8 96 0 5 9 4 9 5 96 12 7 2 6 6 3 83 11 1 3 3 12 67 0 9 9 4 84 0 4 4 13 4 68
ELSE[ ]	/* Else */
NPUSHB[ ]	/* 50 values pushed */
2 10 2 0 1 0 106 0 1 3 1 106 0 8 6 9 6 8 96 0 5 9 4 9 5 96 12 7 2 6 6 3 83 11 1 3 3 14 67 0 9 9 4 84 0 4 4 13 4 68
EIF[ ]	/* EndIf */
NPUSHB[ ]	/* 34 values pushed */
70 69 28 24 1 0 79 76 72 71 69 87 70 87 65 62 46 43 39 36 24 68 28 68 15 13 8 6 0 23 1 23 13 15
CALL[ ]	/* CallFunction */";
};
width = 674;
}
);
note = Dcaron;
unicode = 270;
},
{
glyphname = Dcroat;
kernLeft = B;
kernRight = D;
lastChange = "2024-06-13 14:18:27 +0000";
layers = (
{
layerId = m01;
shapes = (
{
closed = 1;
nodes = (
(81,738,qs),
(103,738,o),
(135,722,o),
(135,696,qs),
(135,675,o),
(137,610,o),
(139,539,o),
(142,473,o),
(142,451,q),
(128,451,o),
(104,452,o),
(98,452,qs),
(81,452,o),
(65,422,o),
(65,409,qs),
(65,403,o),
(70,388,o),
(79,375,o),
(91,365,o),
(98,365,qs),
(142,365,l),
(142,324,o),
(142,263,o),
(141,205,o),
(141,140,o),
(141,97,qs),
(141,85,o),
(114,75,o),
(86,73,qs),
(66,71,o),
(44,54,o),
(44,31,qs),
(44,0,o),
(81,0,qs),
(292,0,ls),
(390,0,o),
(538,70,o),
(636,189,o),
(685,349,o),
(685,439,qs),
(685,545,o),
(613,691,o),
(501,781,o),
(365,821,o),
(302,821,qs),
(241,821,o),
(129,820,o),
(79,818,qs),
(62,817,o),
(44,794,o),
(44,776,qs),
(44,738,o)
);
},
{
closed = 1;
nodes = (
(483,691,o),
(555,609,o),
(589,500,o),
(589,439,qs),
(589,363,o),
(555,232,o),
(484,136,o),
(373,82,o),
(296,82,qs),
(287,82,o),
(265,82,o),
(247,84,o),
(234,88,o),
(234,92,qs),
(234,365,l),
(265,365,o),
(322,366,o),
(339,366,qs),
(350,366,o),
(364,377,o),
(372,392,o),
(375,407,o),
(375,412,qs),
(375,425,o),
(358,453,o),
(347,453,qs),
(325,453,o),
(269,450,o),
(234,450,q),
(234,734,l),
(249,735,o),
(281,738,o),
(296,738,qs),
(372,738,o)
);
}
);
userData = {
assembly = "MPPEM[ ]	/* MeasurePixelPerEm */
PUSHB[ ]	/* 1 value pushed */
20
LT[ ]	/* LessThan */
IF[ ]	/* If */
NPUSHB[ ]	/* 36 values pushed */
6 10 5 3 4 4 0 83 0 0 0 12 67 8 1 2 2 3 83 7 1 3 3 15 67 0 9 9 1 83 0 1 1 13 1 68
ELSE[ ]	/* Else */
MPPEM[ ]	/* MeasurePixelPerEm */
PUSHB[ ]	/* 1 value pushed */
45
LT[ ]	/* LessThan */
IF[ ]	/* If */
NPUSHB[ ]	/* 34 values pushed */
7 1 3 8 1 2 9 3 2 91 6 10 5 3 4 4 0 83 0 0 0 12 67 0 9 9 1 83 0 1 1 13 1 68
ELSE[ ]	/* Else */
NPUSHB[ ]	/* 34 values pushed */
7 1 3 8 1 2 9 3 2 91 6 10 5 3 4 4 0 83 0 0 0 14 67 0 9 9 1 83 0 1 1 13 1 68
EIF[ ]	/* EndIf */
EIF[ ]	/* EndIf */
NPUSHB[ ]	/* 21 values pushed */
53 52 77 74 70 66 60 56 55 54 52 85 53 85 39 70 44 56 82 11 20
CALL[ ]	/* CallFunction */";
};
width = 718;
},
{
layerId = "62092E79-60F6-4D0B-8A38-B9DDC6B60A9E";
shapes = (
{
closed = 1;
nodes = (
(240,441,o),
(198,441,qs),
(185,441,o),
(150,442,o),
(114,442,o),
(84,443,o),
(77,443,qs),
(63,443,o),
(51,419,o),
(51,409,qs),
(51,400,o),
(66,374,o),
(77,374,qs),
(95,374,o),
(159,374,o),
(231,375,o),
(298,375,o),
(318,375,qs),
(327,375,o),
(338,384,o),
(344,396,o),
(347,408,o),
(347,412,qs),
(347,422,o),
(334,444,o),
(326,444,qs),
(302,444,o)
);
},
{
closed = 1;
nodes = (
(44,802,o),
(44,794,qs),
(44,784,o),
(55,769,o),
(67,769,qs),
(80,769,o),
(105,767,o),
(124,759,o),
(135,742,o),
(135,727,qs),
(135,704,o),
(137,621,o),
(140,533,o),
(142,455,o),
(142,437,qs),
(142,369,o),
(142,279,o),
(141,203,o),
(141,127,o),
(141,72,qs),
(141,63,o),
(126,53,o),
(104,49,o),
(81,48,o),
(72,48,qs),
(55,48,o),
(41,37,o),
(41,24,qs),
(41,11,o),
(60,0,o),
(77,0,qs),
(271,0,ls),
(369,0,o),
(517,70,o),
(615,189,o),
(664,349,o),
(664,439,qs),
(664,545,o),
(592,691,o),
(480,781,o),
(344,821,o),
(281,821,qs),
(220,821,o),
(115,820,o),
(65,818,qs),
(54,817,o)
);
},
{
closed = 1;
nodes = (
(475,706,o),
(552,620,o),
(589,504,o),
(589,439,qs),
(589,359,o),
(553,222,o),
(476,121,o),
(357,64,o),
(275,64,qs),
(266,64,o),
(244,64,o),
(226,66,o),
(213,70,o),
(213,74,qs),
(213,752,l),
(228,753,o),
(260,756,o),
(275,756,qs),
(357,756,o)
);
}
);
userData = {
assembly = "MPPEM[ ]	/* MeasurePixelPerEm */
PUSHB[ ]	/* 1 value pushed */
20
LT[ ]	/* LessThan */
IF[ ]	/* If */
NPUSHB[ ]	/* 48 values pushed */
0 5 2 6 6 5 96 0 4 8 3 8 4 96 7 10 2 6 6 2 84 0 2 2 12 67 0 1 1 0 83 9 1 0 0 15 67 0 8 8 3 83 0 3 3 13 3 68
ELSE[ ]	/* Else */
MPPEM[ ]	/* MeasurePixelPerEm */
PUSHB[ ]	/* 1 value pushed */
45
LT[ ]	/* LessThan */
IF[ ]	/* If */
NPUSHB[ ]	/* 46 values pushed */
0 5 2 6 6 5 96 0 4 8 3 8 4 96 9 1 0 0 1 8 0 1 91 7 10 2 6 6 2 84 0 2 2 12 67 0 8 8 3 83 0 3 3 13 3 68
ELSE[ ]	/* Else */
NPUSHB[ ]	/* 46 values pushed */
0 5 2 6 6 5 96 0 4 8 3 8 4 96 9 1 0 0 1 8 0 1 91 7 10 2 6 6 2 84 0 2 2 14 67 0 8 8 3 83 0 3 3 13 3 68
EIF[ ]	/* EndIf */
EIF[ ]	/* EndIf */
NPUSHB[ ]	/* 28 values pushed */
74 73 1 0 83 80 76 75 73 91 74 91 68 66 49 46 42 39 31 27 14 7 0 26 1 18 11 15
CALL[ ]	/* CallFunction */";
};
width = 700;
},
{
layerId = "E59D8378-1062-4241-9A8F-EEB295F00E05";
shapes = (
{
closed = 1;
nodes = (
(24,805,qs),
(24,800,o),
(34,789,o),
(47,789,qs),
(68,789,o),
(100,787,o),
(123,779,o),
(135,762,o),
(135,747,qs),
(135,722,o),
(137,634,o),
(140,540,o),
(142,456,o),
(142,437,qs),
(142,426,l),
(116,426,o),
(58,428,o),
(47,428,qs),
(39,428,o),
(31,414,o),
(31,409,qs),
(31,404,o),
(40,389,o),
(47,389,qs),
(142,389,l),
(142,334,o),
(142,254,o),
(141,181,o),
(141,104,o),
(141,52,qs),
(141,43,o),
(123,33,o),
(96,29,o),
(65,28,o),
(52,28,qs),
(35,28,o),
(21,19,o),
(21,12,qs),
(21,4,o),
(40,0,o),
(57,0,qs),
(241,0,ls),
(339,0,o),
(487,70,o),
(585,189,o),
(634,349,o),
(634,439,qs),
(634,545,o),
(562,691,o),
(450,781,o),
(314,821,o),
(251,821,qs),
(190,821,o),
(95,820,o),
(45,818,qs),
(24,817,o)
);
},
{
closed = 1;
nodes = (
(465,731,o),
(549,637,o),
(589,511,o),
(589,439,qs),
(589,353,o),
(549,205,o),
(465,96,o),
(335,34,o),
(245,34,qs),
(236,34,o),
(214,34,o),
(196,36,o),
(183,40,o),
(183,44,qs),
(183,389,l),
(214,389,o),
(271,390,o),
(288,390,qs),
(299,390,o),
(307,407,o),
(307,412,qs),
(307,417,o),
(300,429,o),
(296,429,qs),
(274,429,o),
(218,426,o),
(183,426,q),
(183,782,l),
(198,783,o),
(230,786,o),
(245,786,qs),
(335,786,o)
);
}
);
userData = {
assembly = "MPPEM[ ]	/* MeasurePixelPerEm */
PUSHB[ ]	/* 1 value pushed */
20
LT[ ]	/* LessThan */
IF[ ]	/* If */
NPUSHB[ ]	/* 50 values pushed */
0 7 5 4 5 7 96 0 2 10 1 10 2 96 12 6 2 5 5 0 83 11 1 0 0 12 67 9 1 3 3 4 83 8 1 4 4 15 67 0 10 10 1 83 0 1 1 13 1 68
ELSE[ ]	/* Else */
MPPEM[ ]	/* MeasurePixelPerEm */
PUSHB[ ]	/* 1 value pushed */
45
LT[ ]	/* LessThan */
IF[ ]	/* If */
NPUSHB[ ]	/* 48 values pushed */
0 7 5 4 5 7 96 0 2 10 1 10 2 96 8 1 4 9 1 3 10 4 3 91 12 6 2 5 5 0 83 11 1 0 0 12 67 0 10 10 1 83 0 1 1 13 1 68
ELSE[ ]	/* Else */
NPUSHB[ ]	/* 48 values pushed */
0 7 5 4 5 7 96 0 2 10 1 10 2 96 8 1 4 9 1 3 10 4 3 91 12 6 2 5 5 0 83 11 1 0 0 14 67 0 10 10 1 83 0 1 1 13 1 68
EIF[ ]	/* EndIf */
EIF[ ]	/* EndIf */
NPUSHB[ ]	/* 32 values pushed */
57 56 4 0 79 76 72 68 64 60 59 58 56 87 57 87 52 49 40 36 32 30 22 19 15 12 0 55 4 55 13 15
CALL[ ]	/* CallFunction */";
};
width = 674;
}
);
note = Dcroat;
unicode = 272;
},
{
glyphname = Eth;
kernLeft = B;
kernRight = D;
lastChange = "2024-06-13 14:18:27 +0000";
layers = (
{
layerId = m01;
shapes = (
{
closed = 1;
nodes = (
(81,738,qs),
(103,738,o),
(135,722,o),
(135,696,qs),
(135,675,o),
(137,610,o),
(139,539,o),
(142,473,o),
(142,451,q),
(128,451,o),
(104,452,o),
(98,452,qs),
(81,452,o),
(65,422,o),
(65,409,qs),
(65,403,o),
(70,388,o),
(79,375,o),
(91,365,o),
(98,365,qs),
(142,365,l),
(142,324,o),
(142,263,o),
(141,205,o),
(141,140,o),
(141,97,qs),
(141,85,o),
(114,75,o),
(86,73,qs),
(66,71,o),
(44,54,o),
(44,31,qs),
(44,0,o),
(81,0,qs),
(292,0,ls),
(390,0,o),
(538,70,o),
(636,189,o),
(685,349,o),
(685,439,qs),
(685,545,o),
(613,691,o),
(501,781,o),
(365,821,o),
(302,821,qs),
(241,821,o),
(129,820,o),
(79,818,qs),
(62,817,o),
(44,794,o),
(44,776,qs),
(44,738,o)
);
},
{
closed = 1;
nodes = (
(483,691,o),
(555,609,o),
(589,500,o),
(589,439,qs),
(589,363,o),
(555,232,o),
(484,136,o),
(373,82,o),
(296,82,qs),
(287,82,o),
(265,82,o),
(247,84,o),
(234,88,o),
(234,92,qs),
(234,365,l),
(265,365,o),
(322,366,o),
(339,366,qs),
(350,366,o),
(364,377,o),
(372,392,o),
(375,407,o),
(375,412,qs),
(375,425,o),
(358,453,o),
(347,453,qs),
(325,453,o),
(269,450,o),
(234,450,q),
(234,734,l),
(249,735,o),
(281,738,o),
(296,738,qs),
(372,738,o)
);
}
);
userData = {
assembly = "MPPEM[ ]	/* MeasurePixelPerEm */
PUSHB[ ]	/* 1 value pushed */
20
LT[ ]	/* LessThan */
IF[ ]	/* If */
NPUSHB[ ]	/* 36 values pushed */
6 10 5 3 4 4 0 83 0 0 0 12 67 8 1 2 2 3 83 7 1 3 3 15 67 0 9 9 1 83 0 1 1 13 1 68
ELSE[ ]	/* Else */
MPPEM[ ]	/* MeasurePixelPerEm */
PUSHB[ ]	/* 1 value pushed */
45
LT[ ]	/* LessThan */
IF[ ]	/* If */
NPUSHB[ ]	/* 34 values pushed */
7 1 3 8 1 2 9 3 2 91 6 10 5 3 4 4 0 83 0 0 0 12 67 0 9 9 1 83 0 1 1 13 1 68
ELSE[ ]	/* Else */
NPUSHB[ ]	/* 34 values pushed */
7 1 3 8 1 2 9 3 2 91 6 10 5 3 4 4 0 83 0 0 0 14 67 0 9 9 1 83 0 1 1 13 1 68
EIF[ ]	/* EndIf */
EIF[ ]	/* EndIf */
NPUSHB[ ]	/* 21 values pushed */
53 52 77 74 70 66 60 56 55 54 52 85 53 85 39 70 44 56 82 11 20
CALL[ ]	/* CallFunction */";
};
width = 718;
},
{
layerId = "62092E79-60F6-4D0B-8A38-B9DDC6B60A9E";
shapes = (
{
closed = 1;
nodes = (
(240,441,o),
(198,441,qs),
(185,441,o),
(150,442,o),
(114,442,o),
(84,443,o),
(77,443,qs),
(63,443,o),
(51,419,o),
(51,409,qs),
(51,400,o),
(66,374,o),
(77,374,qs),
(95,374,o),
(159,374,o),
(231,375,o),
(298,375,o),
(318,375,qs),
(327,375,o),
(338,384,o),
(344,396,o),
(347,408,o),
(347,412,qs),
(347,422,o),
(334,444,o),
(326,444,qs),
(302,444,o)
);
},
{
closed = 1;
nodes = (
(44,802,o),
(44,794,qs),
(44,784,o),
(55,769,o),
(67,769,qs),
(80,769,o),
(105,767,o),
(124,759,o),
(135,742,o),
(135,727,qs),
(135,704,o),
(137,621,o),
(140,533,o),
(142,455,o),
(142,437,qs),
(142,369,o),
(142,279,o),
(141,203,o),
(141,127,o),
(141,72,qs),
(141,63,o),
(126,53,o),
(104,49,o),
(81,48,o),
(72,48,qs),
(55,48,o),
(41,37,o),
(41,24,qs),
(41,11,o),
(60,0,o),
(77,0,qs),
(271,0,ls),
(369,0,o),
(517,70,o),
(615,189,o),
(664,349,o),
(664,439,qs),
(664,545,o),
(592,691,o),
(480,781,o),
(344,821,o),
(281,821,qs),
(220,821,o),
(115,820,o),
(65,818,qs),
(54,817,o)
);
},
{
closed = 1;
nodes = (
(475,706,o),
(552,620,o),
(589,504,o),
(589,439,qs),
(589,359,o),
(553,222,o),
(476,121,o),
(357,64,o),
(275,64,qs),
(266,64,o),
(244,64,o),
(226,66,o),
(213,70,o),
(213,74,qs),
(213,752,l),
(228,753,o),
(260,756,o),
(275,756,qs),
(357,756,o)
);
}
);
userData = {
assembly = "MPPEM[ ]	/* MeasurePixelPerEm */
PUSHB[ ]	/* 1 value pushed */
20
LT[ ]	/* LessThan */
IF[ ]	/* If */
NPUSHB[ ]	/* 48 values pushed */
0 5 2 6 6 5 96 0 4 8 3 8 4 96 7 10 2 6 6 2 84 0 2 2 12 67 0 1 1 0 83 9 1 0 0 15 67 0 8 8 3 83 0 3 3 13 3 68
ELSE[ ]	/* Else */
MPPEM[ ]	/* MeasurePixelPerEm */
PUSHB[ ]	/* 1 value pushed */
45
LT[ ]	/* LessThan */
IF[ ]	/* If */
NPUSHB[ ]	/* 46 values pushed */
0 5 2 6 6 5 96 0 4 8 3 8 4 96 9 1 0 0 1 8 0 1 91 7 10 2 6 6 2 84 0 2 2 12 67 0 8 8 3 83 0 3 3 13 3 68
ELSE[ ]	/* Else */
NPUSHB[ ]	/* 46 values pushed */
0 5 2 6 6 5 96 0 4 8 3 8 4 96 9 1 0 0 1 8 0 1 91 7 10 2 6 6 2 84 0 2 2 14 67 0 8 8 3 83 0 3 3 13 3 68
EIF[ ]	/* EndIf */
EIF[ ]	/* EndIf */
NPUSHB[ ]	/* 28 values pushed */
74 73 1 0 83 80 76 75 73 91 74 91 68 66 49 46 42 39 31 27 14 7 0 26 1 18 11 15
CALL[ ]	/* CallFunction */";
};
width = 700;
},
{
layerId = "E59D8378-1062-4241-9A8F-EEB295F00E05";
shapes = (
{
closed = 1;
nodes = (
(24,805,qs),
(24,800,o),
(34,789,o),
(47,789,qs),
(68,789,o),
(100,787,o),
(123,779,o),
(135,762,o),
(135,747,qs),
(135,722,o),
(137,634,o),
(140,540,o),
(142,456,o),
(142,437,qs),
(142,426,l),
(116,426,o),
(58,428,o),
(47,428,qs),
(39,428,o),
(31,414,o),
(31,409,qs),
(31,404,o),
(40,389,o),
(47,389,qs),
(142,389,l),
(142,334,o),
(142,254,o),
(141,181,o),
(141,104,o),
(141,52,qs),
(141,43,o),
(123,33,o),
(96,29,o),
(65,28,o),
(52,28,qs),
(35,28,o),
(21,19,o),
(21,12,qs),
(21,4,o),
(40,0,o),
(57,0,qs),
(241,0,ls),
(339,0,o),
(487,70,o),
(585,189,o),
(634,349,o),
(634,439,qs),
(634,545,o),
(562,691,o),
(450,781,o),
(314,821,o),
(251,821,qs),
(190,821,o),
(95,820,o),
(45,818,qs),
(24,817,o)
);
},
{
closed = 1;
nodes = (
(465,731,o),
(549,637,o),
(589,511,o),
(589,439,qs),
(589,353,o),
(549,205,o),
(465,96,o),
(335,34,o),
(245,34,qs),
(236,34,o),
(214,34,o),
(196,36,o),
(183,40,o),
(183,44,qs),
(183,389,l),
(214,389,o),
(271,390,o),
(288,390,qs),
(299,390,o),
(307,407,o),
(307,412,qs),
(307,417,o),
(300,429,o),
(296,429,qs),
(274,429,o),
(218,426,o),
(183,426,q),
(183,782,l),
(198,783,o),
(230,786,o),
(245,786,qs),
(335,786,o)
);
}
);
userData = {
assembly = "MPPEM[ ]	/* MeasurePixelPerEm */
PUSHB[ ]	/* 1 value pushed */
20
LT[ ]	/* LessThan */
IF[ ]	/* If */
NPUSHB[ ]	/* 50 values pushed */
0 7 5 4 5 7 96 0 2 10 1 10 2 96 12 6 2 5 5 0 83 11 1 0 0 12 67 9 1 3 3 4 83 8 1 4 4 15 67 0 10 10 1 83 0 1 1 13 1 68
ELSE[ ]	/* Else */
MPPEM[ ]	/* MeasurePixelPerEm */
PUSHB[ ]	/* 1 value pushed */
45
LT[ ]	/* LessThan */
IF[ ]	/* If */
NPUSHB[ ]	/* 48 values pushed */
0 7 5 4 5 7 96 0 2 10 1 10 2 96 8 1 4 9 1 3 10 4 3 91 12 6 2 5 5 0 83 11 1 0 0 12 67 0 10 10 1 83 0 1 1 13 1 68
ELSE[ ]	/* Else */
NPUSHB[ ]	/* 48 values pushed */
0 7 5 4 5 7 96 0 2 10 1 10 2 96 8 1 4 9 1 3 10 4 3 91 12 6 2 5 5 0 83 11 1 0 0 14 67 0 10 10 1 83 0 1 1 13 1 68
EIF[ ]	/* EndIf */
EIF[ ]	/* EndIf */
NPUSHB[ ]	/* 32 values pushed */
57 56 4 0 79 76 72 68 64 60 59 58 56 87 57 87 52 49 40 36 32 30 22 19 15 12 0 55 4 55 13 15
CALL[ ]	/* CallFunction */";
};
width = 674;
}
);
note = Eth;
unicode = 208;
},
{
glyphname = E;
kernLeft = B;
kernRight = AE;
lastChange = "2024-06-13 14:18:27 +0000";
layers = (
{
layerId = m01;
shapes = (
{
closed = 1;
nodes = (
(565,303,o),
(564,281,qs),
(563,264,o),
(560,222,o),
(556,178,o),
(552,136,o),
(551,121,qs),
(550,108,o),
(542,93,o),
(530,86,o),
(515,84,o),
(508,84,qs),
(230,84,l),
(230,377,l),
(244,377,o),
(265,378,o),
(283,379,o),
(304,379,o),
(318,379,qs),
(338,379,o),
(364,378,o),
(372,378,qs),
(386,378,o),
(405,363,o),
(416,341,o),
(420,318,o),
(420,310,qs),
(420,297,o),
(435,275,o),
(461,275,qs),
(503,275,o),
(503,308,qs),
(503,331,o),
(501,391,o),
(501,420,qs),
(501,449,o),
(503,502,o),
(503,531,qs),
(503,555,o),
(477,570,o),
(460,570,qs),
(439,570,o),
(418,548,o),
(418,533,qs),
(418,526,o),
(417,503,o),
(414,480,o),
(407,464,o),
(401,464,qs),
(397,464,o),
(378,463,o),
(354,462,o),
(328,461,o),
(318,461,qs),
(303,461,o),
(283,461,o),
(264,462,o),
(244,463,o),
(230,464,q),
(230,737,l),
(482,737,ls),
(499,737,o),
(519,727,o),
(519,709,qs),
(519,637,ls),
(519,623,o),
(540,597,o),
(566,597,qs),
(588,597,o),
(607,616,o),
(607,643,qs),
(607,785,ls),
(607,806,o),
(593,821,o),
(579,821,qs),
(535,821,o),
(481,820,o),
(436,820,o),
(389,819,o),
(352,819,qs),
(333,819,o),
(273,820,o),
(202,820,o),
(127,821,o),
(94,821,qs),
(62,821,o),
(37,807,o),
(37,781,qs),
(37,764,o),
(68,747,o),
(93,747,qs),
(114,747,o),
(132,737,o),
(132,708,qs),
(132,678,o),
(134,620,o),
(136,554,o),
(138,476,o),
(138,425,qs),
(138,379,o),
(138,315,o),
(137,266,o),
(137,227,o),
(136,187,o),
(136,141,o),
(136,109,qs),
(136,92,o),
(118,75,o),
(89,73,qs),
(68,72,o),
(38,55,o),
(38,33,qs),
(38,16,o),
(60,0,o),
(86,0,qs),
(116,0,o),
(186,1,o),
(256,1,o),
(326,2,o),
(356,2,qs),
(417,2,o),
(532,0,o),
(593,0,qs),
(618,0,o),
(633,12,o),
(635,33,qs),
(638,63,o),
(644,143,o),
(649,218,o),
(651,276,o),
(651,285,qs),
(651,302,o),
(627,318,o),
(613,318,qs),
(595,318,o)
);
}
);
userData = {
assembly = "MPPEM[ ]	/* MeasurePixelPerEm */
PUSHB[ ]	/* 1 value pushed */
22
LT[ ]	/* LessThan */
IF[ ]	/* If */
NPUSHB[ ]	/* 10 values pushed */
75 1 7 8 127 1 2 9 2 66
ELSE[ ]	/* Else */
NPUSHB[ ]	/* 10 values pushed */
75 1 7 8 127 1 11 9 2 66
EIF[ ]	/* EndIf */
MPPEM[ ]	/* MeasurePixelPerEm */
PUSHB[ ]	/* 1 value pushed */
20
LT[ ]	/* LessThan */
IF[ ]	/* If */
NPUSHB[ ]	/* 58 values pushed */
0 5 3 8 3 5 8 104 12 1 0 10 9 10 0 9 104 0 8 0 9 2 8 9 91 6 1 3 3 4 83 0 4 4 12 67 0 10 10 7 83 0 7 7 23 67 11 1 2 2 1 84 0 1 1 13 1 68
ELSE[ ]	/* Else */
MPPEM[ ]	/* MeasurePixelPerEm */
PUSHB[ ]	/* 1 value pushed */
22
LT[ ]	/* LessThan */
IF[ ]	/* If */
NPUSHB[ ]	/* 56 values pushed */
0 5 3 8 3 5 8 104 12 1 0 10 9 10 0 9 104 0 7 0 10 0 7 10 91 0 8 0 9 2 8 9 91 6 1 3 3 4 83 0 4 4 12 67 11 1 2 2 1 84 0 1 1 13 1 68
ELSE[ ]	/* Else */
MPPEM[ ]	/* MeasurePixelPerEm */
PUSHB[ ]	/* 1 value pushed */
24
LT[ ]	/* LessThan */
IF[ ]	/* If */
NPUSHB[ ]	/* 62 values pushed */
0 5 3 8 3 5 8 104 12 1 0 10 9 10 0 9 104 0 2 11 1 11 2 96 0 7 0 10 0 7 10 91 0 8 0 9 11 8 9 91 6 1 3 3 4 83 0 4 4 12 67 0 11 11 1 84 0 1 1 13 1 68
ELSE[ ]	/* Else */
MPPEM[ ]	/* MeasurePixelPerEm */
PUSHB[ ]	/* 1 value pushed */
45
LT[ ]	/* LessThan */
IF[ ]	/* If */
NPUSHB[ ]	/* 68 values pushed */
0 3 4 6 6 3 96 0 5 6 8 6 5 8 104 12 1 0 10 9 10 0 9 104 0 2 11 1 11 2 96 0 7 0 10 0 7 10 91 0 8 0 9 11 8 9 91 0 6 6 4 84 0 4 4 12 67 0 11 11 1 84 0 1 1 13 1 68
ELSE[ ]	/* Else */
NPUSHB[ ]	/* 68 values pushed */
0 3 4 6 6 3 96 0 5 6 8 6 5 8 104 12 1 0 10 9 10 0 9 104 0 2 11 1 11 2 96 0 7 0 10 0 7 10 91 0 8 0 9 11 8 9 91 0 6 6 4 84 0 4 4 14 67 0 11 11 1 84 0 1 1 13 1 68
EIF[ ]	/* EndIf */
EIF[ ]	/* EndIf */
EIF[ ]	/* EndIf */
EIF[ ]	/* EndIf */
NPUSHB[ ]	/* 30 values pushed */
1 0 123 121 120 111 105 103 94 92 86 76 74 72 67 65 60 48 44 42 26 24 20 10 0 134 1 134 13 15
CALL[ ]	/* CallFunction */";
};
width = 684;
},
{
layerId = "62092E79-60F6-4D0B-8A38-B9DDC6B60A9E";
shapes = (
{
closed = 1;
nodes = (
(567,299,o),
(566,278,qs),
(565,260,o),
(562,210,o),
(558,159,o),
(554,115,o),
(553,103,qs),
(552,90,o),
(544,75,o),
(532,68,o),
(517,66,o),
(510,66,qs),
(211,66,l),
(211,386,l),
(240,387,o),
(281,388,o),
(310,388,qs),
(333,388,o),
(363,387,o),
(374,387,qs),
(389,387,o),
(407,370,o),
(418,345,o),
(422,317,o),
(422,306,qs),
(422,293,o),
(434,277,o),
(453,277,qs),
(466,277,o),
(484,287,o),
(484,304,qs),
(484,332,o),
(482,391,o),
(482,420,qs),
(482,449,o),
(484,506,o),
(484,535,qs),
(484,552,o),
(466,566,o),
(452,566,qs),
(434,566,o),
(420,543,o),
(420,532,qs),
(420,524,o),
(419,498,o),
(416,473,o),
(409,455,o),
(403,455,qs),
(399,455,o),
(378,454,o),
(351,453,o),
(322,452,o),
(310,452,qs),
(281,452,o),
(239,454,o),
(211,455,q),
(211,755,l),
(484,755,ls),
(489,755,o),
(502,754,o),
(513,749,o),
(521,737,o),
(521,727,qs),
(521,640,ls),
(521,626,o),
(535,600,o),
(557,600,qs),
(574,600,o),
(588,622,o),
(588,646,qs),
(588,785,ls),
(588,806,o),
(574,821,o),
(560,821,qs),
(516,821,o),
(462,820,o),
(417,820,o),
(370,819,o),
(333,819,qs),
(314,819,o),
(256,820,o),
(188,820,o),
(115,821,o),
(82,821,qs),
(67,821,o),
(41,812,o),
(41,794,qs),
(41,781,o),
(64,769,o),
(81,769,qs),
(87,769,o),
(105,768,o),
(122,760,o),
(134,745,o),
(134,730,qs),
(134,698,o),
(136,634,o),
(138,562,o),
(140,478,o),
(140,425,qs),
(140,377,o),
(140,309,o),
(139,255,o),
(139,211,o),
(138,167,o),
(138,117,o),
(138,84,qs),
(138,63,o),
(106,48,o),
(77,48,qs),
(57,48,o),
(38,37,o),
(38,21,qs),
(38,7,o),
(67,0,o),
(84,0,qs),
(145,0,o),
(276,2,o),
(337,2,qs),
(398,2,o),
(513,0,o),
(574,0,qs),
(594,0,o),
(614,8,o),
(616,33,qs),
(619,63,o),
(624,142,o),
(629,216,o),
(632,273,o),
(632,282,qs),
(632,297,o),
(616,315,o),
(602,315,qs),
(589,315,o)
);
}
);
userData = {
assembly = "MPPEM[ ]	/* MeasurePixelPerEm */
PUSHB[ ]	/* 1 value pushed */
20
LT[ ]	/* LessThan */
IF[ ]	/* If */
NPUSHB[ ]	/* 70 values pushed */
0 3 4 6 6 3 96 0 5 6 8 6 5 8 104 12 1 0 10 9 10 0 9 104 0 2 11 1 11 2 96 0 8 0 9 11 8 9 91 0 6 6 4 84 0 4 4 12 67 0 10 10 7 83 0 7 7 15 67 0 11 11 1 84 0 1 1 13 1 68
ELSE[ ]	/* Else */
MPPEM[ ]	/* MeasurePixelPerEm */
PUSHB[ ]	/* 1 value pushed */
45
LT[ ]	/* LessThan */
IF[ ]	/* If */
NPUSHB[ ]	/* 68 values pushed */
0 3 4 6 6 3 96 0 5 6 8 6 5 8 104 12 1 0 10 9 10 0 9 104 0 2 11 1 11 2 96 0 7 0 10 0 7 10 91 0 8 0 9 11 8 9 91 0 6 6 4 84 0 4 4 12 67 0 11 11 1 84 0 1 1 13 1 68
ELSE[ ]	/* Else */
NPUSHB[ ]	/* 68 values pushed */
0 3 4 6 6 3 96 0 5 6 8 6 5 8 104 12 1 0 10 9 10 0 9 104 0 2 11 1 11 2 96 0 7 0 10 0 7 10 91 0 8 0 9 11 8 9 91 0 6 6 4 84 0 4 4 14 67 0 11 11 1 84 0 1 1 13 1 68
EIF[ ]	/* EndIf */
EIF[ ]	/* EndIf */
NPUSHB[ ]	/* 30 values pushed */
1 0 122 120 119 112 106 104 94 92 86 77 76 74 67 65 60 48 44 41 24 22 18 10 0 133 1 133 13 15
CALL[ ]	/* CallFunction */";
};
width = 667;
},
{
layerId = "E59D8378-1062-4241-9A8F-EEB295F00E05";
shapes = (
{
closed = 1;
nodes = (
(570,293,o),
(569,273,qs),
(568,252,o),
(565,195,o),
(561,137,o),
(557,86,o),
(556,73,qs),
(555,60,o),
(547,45,o),
(535,38,o),
(520,36,o),
(513,36,qs),
(184,36,l),
(184,401,l),
(213,402,o),
(269,403,o),
(298,403,qs),
(327,403,o),
(363,402,o),
(377,402,qs),
(392,402,o),
(411,383,o),
(421,355,o),
(425,322,o),
(425,309,qs),
(425,296,o),
(435,280,o),
(442,280,qs),
(446,280,o),
(457,290,o),
(457,307,qs),
(457,335,o),
(455,391,o),
(455,420,qs),
(455,449,o),
(457,504,o),
(457,533,qs),
(457,544,o),
(452,560,o),
(440,560,qs),
(434,560,o),
(427,552,o),
(424,541,o),
(423,531,o),
(423,530,qs),
(423,521,o),
(422,490,o),
(419,461,o),
(412,440,o),
(406,440,qs),
(401,440,o),
(377,439,o),
(346,438,o),
(312,437,o),
(298,437,qs),
(269,437,o),
(213,439,o),
(184,440,q),
(184,785,l),
(487,785,ls),
(497,785,o),
(524,776,o),
(524,757,qs),
(524,645,ls),
(524,631,o),
(529,605,o),
(544,605,qs),
(555,605,o),
(561,632,o),
(561,651,qs),
(561,785,ls),
(561,806,o),
(547,821,o),
(533,821,qs),
(489,821,o),
(435,820,o),
(390,820,o),
(343,819,o),
(306,819,qs),
(287,819,o),
(232,820,o),
(168,820,o),
(98,821,o),
(65,821,qs),
(50,821,o),
(24,815,o),
(24,804,qs),
(24,793,o),
(47,789,o),
(64,789,qs),
(74,789,o),
(99,788,o),
(122,780,o),
(137,765,o),
(137,750,qs),
(137,716,o),
(139,648,o),
(141,571,o),
(143,481,o),
(143,425,qs),
(143,375,o),
(143,302,o),
(142,245,o),
(142,199,o),
(141,152,o),
(141,99,o),
(141,64,qs),
(141,43,o),
(107,28,o),
(60,28,qs),
(40,28,o),
(21,22,o),
(21,11,qs),
(21,3,o),
(52,0,o),
(67,0,qs),
(128,1,o),
(249,2,o),
(310,2,qs),
(371,2,o),
(486,0,o),
(547,0,qs),
(567,0,o),
(587,8,o),
(589,33,qs),
(592,63,o),
(597,141,o),
(602,213,o),
(605,268,o),
(605,277,qs),
(605,289,o),
(600,310,o),
(586,310,qs),
(581,310,o)
);
}
);
userData = {
assembly = "MPPEM[ ]	/* MeasurePixelPerEm */
PUSHB[ ]	/* 1 value pushed */
20
LT[ ]	/* LessThan */
IF[ ]	/* If */
NPUSHB[ ]	/* 64 values pushed */
0 5 3 8 3 5 8 104 12 1 0 10 9 10 0 9 104 0 2 11 1 11 2 96 0 8 0 9 11 8 9 91 6 1 3 3 4 83 0 4 4 12 67 0 10 10 7 83 0 7 7 15 67 0 11 11 1 83 0 1 1 13 1 68
ELSE[ ]	/* Else */
MPPEM[ ]	/* MeasurePixelPerEm */
PUSHB[ ]	/* 1 value pushed */
45
LT[ ]	/* LessThan */
IF[ ]	/* If */
NPUSHB[ ]	/* 62 values pushed */
0 5 3 8 3 5 8 104 12 1 0 10 9 10 0 9 104 0 2 11 1 11 2 96 0 7 0 10 0 7 10 91 0 8 0 9 11 8 9 91 6 1 3 3 4 83 0 4 4 12 67 0 11 11 1 83 0 1 1 13 1 68
ELSE[ ]	/* Else */
NPUSHB[ ]	/* 62 values pushed */
0 5 3 8 3 5 8 104 12 1 0 10 9 10 0 9 104 0 2 11 1 11 2 96 0 7 0 10 0 7 10 91 0 8 0 9 11 8 9 91 6 1 3 3 4 83 0 4 4 14 67 0 11 11 1 83 0 1 1 13 1 68
EIF[ ]	/* EndIf */
EIF[ ]	/* EndIf */
NPUSHB[ ]	/* 30 values pushed */
1 0 122 120 119 112 106 104 94 92 84 75 74 72 67 65 60 48 44 41 24 22 18 10 0 133 1 133 13 15
CALL[ ]	/* CallFunction */";
};
width = 643;
}
);
note = E;
unicode = 69;
},
{
glyphname = Eacute;
kernLeft = B;
kernRight = AE;
lastChange = "2024-06-13 14:18:27 +0000";
layers = (
{
layerId = m01;
shapes = (
{
closed = 1;
nodes = (
(441,972,o),
(421,972,qs),
(407,972,o),
(368,949,o),
(332,916,o),
(307,882,o),
(307,872,qs),
(307,860,o),
(327,841,o),
(342,841,qs),
(355,841,o),
(396,860,o),
(434,888,o),
(462,921,o),
(462,936,qs),
(462,949,o)
);
},
{
closed = 1;
nodes = (
(565,303,o),
(564,281,qs),
(563,264,o),
(560,222,o),
(556,178,o),
(552,136,o),
(551,121,qs),
(550,108,o),
(542,93,o),
(530,86,o),
(515,84,o),
(508,84,qs),
(230,84,l),
(230,377,l),
(244,377,o),
(265,378,o),
(283,379,o),
(304,379,o),
(318,379,qs),
(338,379,o),
(364,378,o),
(372,378,qs),
(386,378,o),
(405,363,o),
(416,341,o),
(420,318,o),
(420,310,qs),
(420,297,o),
(435,275,o),
(461,275,qs),
(503,275,o),
(503,308,qs),
(503,331,o),
(501,391,o),
(501,420,qs),
(501,449,o),
(503,502,o),
(503,531,qs),
(503,555,o),
(477,570,o),
(460,570,qs),
(439,570,o),
(418,548,o),
(418,533,qs),
(418,526,o),
(417,503,o),
(414,480,o),
(407,464,o),
(401,464,qs),
(397,464,o),
(378,463,o),
(354,462,o),
(328,461,o),
(318,461,qs),
(303,461,o),
(283,461,o),
(264,462,o),
(244,463,o),
(230,464,q),
(230,737,l),
(482,737,ls),
(499,737,o),
(519,727,o),
(519,709,qs),
(519,637,ls),
(519,623,o),
(540,597,o),
(566,597,qs),
(588,597,o),
(607,616,o),
(607,643,qs),
(607,785,ls),
(607,806,o),
(593,821,o),
(579,821,qs),
(535,821,o),
(481,820,o),
(436,820,o),
(389,819,o),
(352,819,qs),
(333,819,o),
(273,820,o),
(202,820,o),
(127,821,o),
(94,821,qs),
(62,821,o),
(37,807,o),
(37,781,qs),
(37,764,o),
(68,747,o),
(93,747,qs),
(114,747,o),
(132,737,o),
(132,708,qs),
(132,678,o),
(134,620,o),
(136,554,o),
(138,476,o),
(138,425,qs),
(138,379,o),
(138,315,o),
(137,266,o),
(137,227,o),
(136,187,o),
(136,141,o),
(136,109,qs),
(136,92,o),
(118,75,o),
(89,73,qs),
(68,72,o),
(38,55,o),
(38,33,qs),
(38,16,o),
(60,0,o),
(86,0,qs),
(116,0,o),
(186,1,o),
(256,1,o),
(326,2,o),
(356,2,qs),
(417,2,o),
(532,0,o),
(593,0,qs),
(618,0,o),
(633,12,o),
(635,33,qs),
(638,63,o),
(644,143,o),
(649,218,o),
(651,276,o),
(651,285,qs),
(651,302,o),
(627,318,o),
(613,318,qs),
(595,318,o)
);
}
);
userData = {
assembly = "MPPEM[ ]	/* MeasurePixelPerEm */
PUSHB[ ]	/* 1 value pushed */
22
LT[ ]	/* LessThan */
IF[ ]	/* If */
NPUSHB[ ]	/* 10 values pushed */
91 1 9 10 143 1 4 11 2 66
ELSE[ ]	/* Else */
NPUSHB[ ]	/* 10 values pushed */
91 1 9 10 143 1 13 11 2 66
EIF[ ]	/* EndIf */
MPPEM[ ]	/* MeasurePixelPerEm */
PUSHB[ ]	/* 1 value pushed */
20
LT[ ]	/* LessThan */
IF[ ]	/* If */
NPUSHB[ ]	/* 68 values pushed */
0 1 0 1 106 0 0 6 0 106 0 7 5 10 5 7 10 104 14 1 2 12 11 12 2 11 104 0 10 0 11 4 10 11 91 8 1 5 5 6 83 0 6 6 12 67 0 12 12 9 83 0 9 9 23 67 13 1 4 4 3 84 0 3 3 13 3 68
ELSE[ ]	/* Else */
MPPEM[ ]	/* MeasurePixelPerEm */
PUSHB[ ]	/* 1 value pushed */
22
LT[ ]	/* LessThan */
IF[ ]	/* If */
NPUSHB[ ]	/* 66 values pushed */
0 1 0 1 106 0 0 6 0 106 0 7 5 10 5 7 10 104 14 1 2 12 11 12 2 11 104 0 9 0 12 2 9 12 91 0 10 0 11 4 10 11 91 8 1 5 5 6 83 0 6 6 12 67 13 1 4 4 3 84 0 3 3 13 3 68
ELSE[ ]	/* Else */
MPPEM[ ]	/* MeasurePixelPerEm */
PUSHB[ ]	/* 1 value pushed */
24
LT[ ]	/* LessThan */
IF[ ]	/* If */
NPUSHB[ ]	/* 72 values pushed */
0 1 0 1 106 0 0 6 0 106 0 7 5 10 5 7 10 104 14 1 2 12 11 12 2 11 104 0 4 13 3 13 4 96 0 9 0 12 2 9 12 91 0 10 0 11 13 10 11 91 8 1 5 5 6 83 0 6 6 12 67 0 13 13 3 84 0 3 3 13 3 68
ELSE[ ]	/* Else */
MPPEM[ ]	/* MeasurePixelPerEm */
PUSHB[ ]	/* 1 value pushed */
45
LT[ ]	/* LessThan */
IF[ ]	/* If */
NPUSHB[ ]	/* 78 values pushed */
0 1 0 1 106 0 0 6 0 106 0 5 6 8 8 5 96 0 7 8 10 8 7 10 104 14 1 2 12 11 12 2 11 104 0 4 13 3 13 4 96 0 9 0 12 2 9 12 91 0 10 0 11 13 10 11 91 0 8 8 6 84 0 6 6 12 67 0 13 13 3 84 0 3 3 13 3 68
ELSE[ ]	/* Else */
NPUSHB[ ]	/* 78 values pushed */
0 1 0 1 106 0 0 6 0 106 0 5 6 8 8 5 96 0 7 8 10 8 7 10 104 14 1 2 12 11 12 2 11 104 0 4 13 3 13 4 96 0 9 0 12 2 9 12 91 0 10 0 11 13 10 11 91 0 8 8 6 84 0 6 6 14 67 0 13 13 3 84 0 3 3 13 3 68
EIF[ ]	/* EndIf */
EIF[ ]	/* EndIf */
EIF[ ]	/* EndIf */
EIF[ ]	/* EndIf */
NPUSHB[ ]	/* 32 values pushed */
17 16 139 137 136 127 121 119 110 108 102 92 90 88 83 81 76 64 60 58 42 40 36 26 16 150 17 150 38 36 15 17
CALL[ ]	/* CallFunction */";
};
width = 684;
},
{
layerId = "62092E79-60F6-4D0B-8A38-B9DDC6B60A9E";
shapes = (
{
closed = 1;
nodes = (
(412,972,o),
(397,972,qs),
(386,972,o),
(350,950,o),
(316,919,o),
(291,887,o),
(291,877,qs),
(291,867,o),
(304,854,o),
(315,854,qs),
(325,854,o),
(364,872,o),
(401,899,o),
(429,929,o),
(429,941,qs),
(429,955,o)
);
},
{
closed = 1;
nodes = (
(567,299,o),
(566,278,qs),
(565,260,o),
(562,210,o),
(558,159,o),
(554,115,o),
(553,103,qs),
(552,90,o),
(544,75,o),
(532,68,o),
(517,66,o),
(510,66,qs),
(211,66,l),
(211,386,l),
(240,387,o),
(281,388,o),
(310,388,qs),
(333,388,o),
(363,387,o),
(374,387,qs),
(389,387,o),
(407,370,o),
(418,345,o),
(422,317,o),
(422,306,qs),
(422,293,o),
(434,277,o),
(453,277,qs),
(466,277,o),
(484,287,o),
(484,304,qs),
(484,332,o),
(482,391,o),
(482,420,qs),
(482,449,o),
(484,506,o),
(484,535,qs),
(484,552,o),
(466,566,o),
(452,566,qs),
(434,566,o),
(420,543,o),
(420,532,qs),
(420,524,o),
(419,498,o),
(416,473,o),
(409,455,o),
(403,455,qs),
(399,455,o),
(378,454,o),
(351,453,o),
(322,452,o),
(310,452,qs),
(281,452,o),
(239,454,o),
(211,455,q),
(211,755,l),
(484,755,ls),
(489,755,o),
(502,754,o),
(513,749,o),
(521,737,o),
(521,727,qs),
(521,640,ls),
(521,626,o),
(535,600,o),
(557,600,qs),
(574,600,o),
(588,622,o),
(588,646,qs),
(588,785,ls),
(588,806,o),
(574,821,o),
(560,821,qs),
(516,821,o),
(462,820,o),
(417,820,o),
(370,819,o),
(333,819,qs),
(314,819,o),
(256,820,o),
(188,820,o),
(115,821,o),
(82,821,qs),
(67,821,o),
(41,812,o),
(41,794,qs),
(41,781,o),
(64,769,o),
(81,769,qs),
(87,769,o),
(105,768,o),
(122,760,o),
(134,745,o),
(134,730,qs),
(134,698,o),
(136,634,o),
(138,562,o),
(140,478,o),
(140,425,qs),
(140,377,o),
(140,309,o),
(139,255,o),
(139,211,o),
(138,167,o),
(138,117,o),
(138,84,qs),
(138,63,o),
(106,48,o),
(77,48,qs),
(57,48,o),
(38,37,o),
(38,21,qs),
(38,7,o),
(67,0,o),
(84,0,qs),
(145,0,o),
(276,2,o),
(337,2,qs),
(398,2,o),
(513,0,o),
(574,0,qs),
(594,0,o),
(614,8,o),
(616,33,qs),
(619,63,o),
(624,142,o),
(629,216,o),
(632,273,o),
(632,282,qs),
(632,297,o),
(616,315,o),
(602,315,qs),
(589,315,o)
);
}
);
userData = {
assembly = "MPPEM[ ]	/* MeasurePixelPerEm */
PUSHB[ ]	/* 1 value pushed */
20
LT[ ]	/* LessThan */
IF[ ]	/* If */
NPUSHB[ ]	/* 80 values pushed */
0 1 0 1 106 0 0 6 0 106 0 5 6 8 8 5 96 0 7 8 10 8 7 10 104 14 1 2 12 11 12 2 11 104 0 4 13 3 13 4 96 0 10 0 11 13 10 11 91 0 8 8 6 84 0 6 6 12 67 0 12 12 9 83 0 9 9 15 67 0 13 13 3 84 0 3 3 13 3 68
ELSE[ ]	/* Else */
MPPEM[ ]	/* MeasurePixelPerEm */
PUSHB[ ]	/* 1 value pushed */
45
LT[ ]	/* LessThan */
IF[ ]	/* If */
NPUSHB[ ]	/* 78 values pushed */
0 1 0 1 106 0 0 6 0 106 0 5 6 8 8 5 96 0 7 8 10 8 7 10 104 14 1 2 12 11 12 2 11 104 0 4 13 3 13 4 96 0 9 0 12 2 9 12 91 0 10 0 11 13 10 11 91 0 8 8 6 84 0 6 6 12 67 0 13 13 3 84 0 3 3 13 3 68
ELSE[ ]	/* Else */
NPUSHB[ ]	/* 78 values pushed */
0 1 0 1 106 0 0 6 0 106 0 5 6 8 8 5 96 0 7 8 10 8 7 10 104 14 1 2 12 11 12 2 11 104 0 4 13 3 13 4 96 0 9 0 12 2 9 12 91 0 10 0 11 13 10 11 91 0 8 8 6 84 0 6 6 14 67 0 13 13 3 84 0 3 3 13 3 68
EIF[ ]	/* EndIf */
EIF[ ]	/* EndIf */
NPUSHB[ ]	/* 32 values pushed */
17 16 138 136 135 128 122 120 110 108 102 93 92 90 83 81 76 64 60 57 40 38 34 26 16 149 17 149 38 36 15 17
CALL[ ]	/* CallFunction */";
};
width = 667;
},
{
layerId = "E59D8378-1062-4241-9A8F-EEB295F00E05";
shapes = (
{
closed = 1;
nodes = (
(371,972,o),
(363,972,qs),
(356,972,o),
(324,952,o),
(292,925,o),
(268,895,o),
(268,886,qs),
(268,875,o),
(276,875,qs),
(283,875,o),
(318,893,o),
(354,917,o),
(382,942,o),
(382,950,qs),
(382,964,o)
);
},
{
closed = 1;
nodes = (
(570,293,o),
(569,273,qs),
(568,252,o),
(565,195,o),
(561,137,o),
(557,86,o),
(556,73,qs),
(555,60,o),
(547,45,o),
(535,38,o),
(520,36,o),
(513,36,qs),
(184,36,l),
(184,401,l),
(213,402,o),
(269,403,o),
(298,403,qs),
(327,403,o),
(363,402,o),
(377,402,qs),
(392,402,o),
(411,383,o),
(421,355,o),
(425,322,o),
(425,309,qs),
(425,296,o),
(435,280,o),
(442,280,qs),
(446,280,o),
(457,290,o),
(457,307,qs),
(457,335,o),
(455,391,o),
(455,420,qs),
(455,449,o),
(457,504,o),
(457,533,qs),
(457,544,o),
(452,560,o),
(440,560,qs),
(434,560,o),
(427,552,o),
(424,541,o),
(423,531,o),
(423,530,qs),
(423,521,o),
(422,490,o),
(419,461,o),
(412,440,o),
(406,440,qs),
(401,440,o),
(377,439,o),
(346,438,o),
(312,437,o),
(298,437,qs),
(269,437,o),
(213,439,o),
(184,440,q),
(184,785,l),
(487,785,ls),
(497,785,o),
(524,776,o),
(524,757,qs),
(524,645,ls),
(524,631,o),
(529,605,o),
(544,605,qs),
(555,605,o),
(561,632,o),
(561,651,qs),
(561,785,ls),
(561,806,o),
(547,821,o),
(533,821,qs),
(489,821,o),
(435,820,o),
(390,820,o),
(343,819,o),
(306,819,qs),
(287,819,o),
(232,820,o),
(168,820,o),
(98,821,o),
(65,821,qs),
(50,821,o),
(24,815,o),
(24,804,qs),
(24,793,o),
(47,789,o),
(64,789,qs),
(74,789,o),
(99,788,o),
(122,780,o),
(137,765,o),
(137,750,qs),
(137,716,o),
(139,648,o),
(141,571,o),
(143,481,o),
(143,425,qs),
(143,375,o),
(143,302,o),
(142,245,o),
(142,199,o),
(141,152,o),
(141,99,o),
(141,64,qs),
(141,43,o),
(107,28,o),
(60,28,qs),
(40,28,o),
(21,22,o),
(21,11,qs),
(21,3,o),
(52,0,o),
(67,0,qs),
(128,1,o),
(249,2,o),
(310,2,qs),
(371,2,o),
(486,0,o),
(547,0,qs),
(567,0,o),
(587,8,o),
(589,33,qs),
(592,63,o),
(597,141,o),
(602,213,o),
(605,268,o),
(605,277,qs),
(605,289,o),
(600,310,o),
(586,310,qs),
(581,310,o)
);
}
);
userData = {
assembly = "MPPEM[ ]	/* MeasurePixelPerEm */
PUSHB[ ]	/* 1 value pushed */
20
LT[ ]	/* LessThan */
IF[ ]	/* If */
NPUSHB[ ]	/* 74 values pushed */
0 1 0 1 106 0 0 6 0 106 0 7 5 10 5 7 10 104 14 1 2 12 11 12 2 11 104 0 4 13 3 13 4 96 0 10 0 11 13 10 11 91 8 1 5 5 6 83 0 6 6 12 67 0 12 12 9 83 0 9 9 15 67 0 13 13 3 83 0 3 3 13 3 68
ELSE[ ]	/* Else */
MPPEM[ ]	/* MeasurePixelPerEm */
PUSHB[ ]	/* 1 value pushed */
45
LT[ ]	/* LessThan */
IF[ ]	/* If */
NPUSHB[ ]	/* 72 values pushed */
0 1 0 1 106 0 0 6 0 106 0 7 5 10 5 7 10 104 14 1 2 12 11 12 2 11 104 0 4 13 3 13 4 96 0 9 0 12 2 9 12 91 0 10 0 11 13 10 11 91 8 1 5 5 6 83 0 6 6 12 67 0 13 13 3 83 0 3 3 13 3 68
ELSE[ ]	/* Else */
NPUSHB[ ]	/* 72 values pushed */
0 1 0 1 106 0 0 6 0 106 0 7 5 10 5 7 10 104 14 1 2 12 11 12 2 11 104 0 4 13 3 13 4 96 0 9 0 12 2 9 12 91 0 10 0 11 13 10 11 91 8 1 5 5 6 83 0 6 6 14 67 0 13 13 3 83 0 3 3 13 3 68
EIF[ ]	/* EndIf */
EIF[ ]	/* EndIf */
NPUSHB[ ]	/* 32 values pushed */
16 15 137 135 134 127 121 119 109 107 99 90 89 87 82 80 75 63 59 56 39 37 33 25 15 148 16 148 37 36 15 17
CALL[ ]	/* CallFunction */";
};
width = 643;
}
);
note = Eacute;
unicode = 201;
},
{
glyphname = Ebreve;
kernLeft = B;
kernRight = AE;
lastChange = "2024-06-13 14:18:27 +0000";
layers = (
{
layerId = m01;
shapes = (
{
closed = 1;
nodes = (
(565,303,o),
(564,281,qs),
(563,264,o),
(560,222,o),
(556,178,o),
(552,136,o),
(551,121,qs),
(550,108,o),
(542,93,o),
(530,86,o),
(515,84,o),
(508,84,qs),
(230,84,l),
(230,377,l),
(244,377,o),
(265,378,o),
(283,379,o),
(304,379,o),
(318,379,qs),
(338,379,o),
(364,378,o),
(372,378,qs),
(386,378,o),
(405,363,o),
(416,341,o),
(420,318,o),
(420,310,qs),
(420,297,o),
(435,275,o),
(461,275,qs),
(503,275,o),
(503,308,qs),
(503,331,o),
(501,391,o),
(501,420,qs),
(501,449,o),
(503,502,o),
(503,531,qs),
(503,555,o),
(477,570,o),
(460,570,qs),
(439,570,o),
(418,548,o),
(418,533,qs),
(418,526,o),
(417,503,o),
(414,480,o),
(407,464,o),
(401,464,qs),
(397,464,o),
(378,463,o),
(354,462,o),
(328,461,o),
(318,461,qs),
(303,461,o),
(283,461,o),
(264,462,o),
(244,463,o),
(230,464,q),
(230,737,l),
(482,737,ls),
(499,737,o),
(519,727,o),
(519,709,qs),
(519,637,ls),
(519,623,o),
(540,597,o),
(566,597,qs),
(588,597,o),
(607,616,o),
(607,643,qs),
(607,785,ls),
(607,806,o),
(593,821,o),
(579,821,qs),
(535,821,o),
(481,820,o),
(436,820,o),
(389,819,o),
(352,819,qs),
(333,819,o),
(273,820,o),
(202,820,o),
(127,821,o),
(94,821,qs),
(62,821,o),
(37,807,o),
(37,781,qs),
(37,764,o),
(68,747,o),
(93,747,qs),
(114,747,o),
(132,737,o),
(132,708,qs),
(132,678,o),
(134,620,o),
(136,554,o),
(138,476,o),
(138,425,qs),
(138,379,o),
(138,315,o),
(137,266,o),
(137,227,o),
(136,187,o),
(136,141,o),
(136,109,qs),
(136,92,o),
(118,75,o),
(89,73,qs),
(68,72,o),
(38,55,o),
(38,33,qs),
(38,16,o),
(60,0,o),
(86,0,qs),
(116,0,o),
(186,1,o),
(256,1,o),
(326,2,o),
(356,2,qs),
(417,2,o),
(532,0,o),
(593,0,qs),
(618,0,o),
(633,12,o),
(635,33,qs),
(638,63,o),
(644,143,o),
(649,218,o),
(651,276,o),
(651,285,qs),
(651,302,o),
(627,318,o),
(613,318,qs),
(595,318,o)
);
},
{
closed = 1;
nodes = (
(477,971,o),
(462,971,qs),
(449,971,o),
(430,953,o),
(430,942,qs),
(430,934,o),
(403,919,o),
(374,919,qs),
(365,919,o),
(344,921,o),
(326,927,o),
(315,936,o),
(315,942,qs),
(315,959,o),
(296,971,o),
(279,971,qs),
(262,971,o),
(247,954,o),
(247,941,qs),
(247,909,o),
(314,862,o),
(379,862,qs),
(398,862,o),
(441,872,o),
(477,892,o),
(500,921,o),
(500,941,qs),
(500,961,o)
);
}
);
userData = {
assembly = "MPPEM[ ]	/* MeasurePixelPerEm */
PUSHB[ ]	/* 1 value pushed */
22
LT[ ]	/* LessThan */
IF[ ]	/* If */
NPUSHB[ ]	/* 10 values pushed */
75 1 7 8 127 1 2 9 2 66
ELSE[ ]	/* Else */
NPUSHB[ ]	/* 10 values pushed */
75 1 7 8 127 1 11 9 2 66
EIF[ ]	/* EndIf */
MPPEM[ ]	/* MeasurePixelPerEm */
PUSHB[ ]	/* 1 value pushed */
20
LT[ ]	/* LessThan */
IF[ ]	/* If */
NPUSHB[ ]	/* 72 values pushed */
15 1 13 14 13 106 0 5 3 8 3 5 8 104 16 1 0 10 9 10 0 9 104 0 14 0 12 4 14 12 91 0 8 0 9 2 8 9 91 6 1 3 3 4 83 0 4 4 12 67 0 10 10 7 83 0 7 7 23 67 11 1 2 2 1 84 0 1 1 13 1 68
ELSE[ ]	/* Else */
MPPEM[ ]	/* MeasurePixelPerEm */
PUSHB[ ]	/* 1 value pushed */
22
LT[ ]	/* LessThan */
IF[ ]	/* If */
NPUSHB[ ]	/* 70 values pushed */
15 1 13 14 13 106 0 5 3 8 3 5 8 104 16 1 0 10 9 10 0 9 104 0 14 0 12 4 14 12 91 0 7 0 10 0 7 10 91 0 8 0 9 2 8 9 91 6 1 3 3 4 83 0 4 4 12 67 11 1 2 2 1 84 0 1 1 13 1 68
ELSE[ ]	/* Else */
MPPEM[ ]	/* MeasurePixelPerEm */
PUSHB[ ]	/* 1 value pushed */
24
LT[ ]	/* LessThan */
IF[ ]	/* If */
NPUSHB[ ]	/* 76 values pushed */
15 1 13 14 13 106 0 5 3 8 3 5 8 104 16 1 0 10 9 10 0 9 104 0 2 11 1 11 2 96 0 14 0 12 4 14 12 91 0 7 0 10 0 7 10 91 0 8 0 9 11 8 9 91 6 1 3 3 4 83 0 4 4 12 67 0 11 11 1 84 0 1 1 13 1 68
ELSE[ ]	/* Else */
MPPEM[ ]	/* MeasurePixelPerEm */
PUSHB[ ]	/* 1 value pushed */
45
LT[ ]	/* LessThan */
IF[ ]	/* If */
NPUSHB[ ]	/* 82 values pushed */
15 1 13 14 13 106 0 3 4 6 6 3 96 0 5 6 8 6 5 8 104 16 1 0 10 9 10 0 9 104 0 2 11 1 11 2 96 0 14 0 12 4 14 12 91 0 7 0 10 0 7 10 91 0 8 0 9 11 8 9 91 0 6 6 4 84 0 4 4 12 67 0 11 11 1 84 0 1 1 13 1 68
ELSE[ ]	/* Else */
NPUSHB[ ]	/* 82 values pushed */
15 1 13 14 13 106 0 3 4 6 6 3 96 0 5 6 8 6 5 8 104 16 1 0 10 9 10 0 9 104 0 2 11 1 11 2 96 0 14 0 12 4 14 12 91 0 7 0 10 0 7 10 91 0 8 0 9 11 8 9 91 0 6 6 4 84 0 4 4 14 67 0 11 11 1 84 0 1 1 13 1 68
EIF[ ]	/* EndIf */
EIF[ ]	/* EndIf */
EIF[ ]	/* EndIf */
EIF[ ]	/* EndIf */
NPUSHB[ ]	/* 38 values pushed */
1 0 161 159 155 153 147 145 141 139 123 121 120 111 105 103 94 92 86 76 74 72 67 65 60 48 44 42 26 24 20 10 0 134 1 134 17 15
CALL[ ]	/* CallFunction */";
};
width = 684;
},
{
layerId = "62092E79-60F6-4D0B-8A38-B9DDC6B60A9E";
shapes = (
{
alignment = -1;
pos = (38,0);
ref = .ttfautohint;
},
{
alignment = -1;
ref = E;
},
{
alignment = -1;
pos = (241,355);
ref = breve;
}
);
userData = {
assembly = "MPPEM[ ]	/* MeasurePixelPerEm */
PUSHB[ ]	/* 1 value pushed */
20
LT[ ]	/* LessThan */
IF[ ]	/* If */
NPUSHB[ ]	/* 84 values pushed */
15 1 13 14 13 106 0 3 4 6 6 3 96 0 5 6 8 6 5 8 104 16 1 0 10 9 10 0 9 104 0 2 11 1 11 2 96 0 14 0 12 4 14 12 91 0 8 0 9 11 8 9 91 0 6 6 4 84 0 4 4 12 67 0 10 10 7 83 0 7 7 15 67 0 11 11 1 84 0 1 1 13 1 68
ELSE[ ]	/* Else */
MPPEM[ ]	/* MeasurePixelPerEm */
PUSHB[ ]	/* 1 value pushed */
45
LT[ ]	/* LessThan */
IF[ ]	/* If */
NPUSHB[ ]	/* 82 values pushed */
15 1 13 14 13 106 0 3 4 6 6 3 96 0 5 6 8 6 5 8 104 16 1 0 10 9 10 0 9 104 0 2 11 1 11 2 96 0 14 0 12 4 14 12 91 0 7 0 10 0 7 10 91 0 8 0 9 11 8 9 91 0 6 6 4 84 0 4 4 12 67 0 11 11 1 84 0 1 1 13 1 68
ELSE[ ]	/* Else */
NPUSHB[ ]	/* 82 values pushed */
15 1 13 14 13 106 0 3 4 6 6 3 96 0 5 6 8 6 5 8 104 16 1 0 10 9 10 0 9 104 0 2 11 1 11 2 96 0 14 0 12 4 14 12 91 0 7 0 10 0 7 10 91 0 8 0 9 11 8 9 91 0 6 6 4 84 0 4 4 14 67 0 11 11 1 84 0 1 1 13 1 68
EIF[ ]	/* EndIf */
EIF[ ]	/* EndIf */
NPUSHB[ ]	/* 38 values pushed */
2 1 160 158 154 152 146 144 141 139 123 121 120 113 107 105 95 93 87 78 77 75 68 66 61 49 45 42 25 23 19 11 1 134 2 134 17 26
CALL[ ]	/* CallFunction */";
};
width = 667;
},
{
layerId = "E59D8378-1062-4241-9A8F-EEB295F00E05";
shapes = (
{
closed = 1;
nodes = (
(428,972,o),
(420,972,qs),
(403,972,o),
(403,949,qs),
(403,939,o),
(390,921,o),
(368,908,o),
(341,900,o),
(328,900,qs),
(314,900,o),
(287,904,o),
(266,914,o),
(254,934,o),
(254,949,qs),
(254,961,o),
(248,972,o),
(237,972,qs),
(220,972,o),
(220,948,qs),
(220,918,o),
(283,875,o),
(328,875,qs),
(347,875,o),
(387,884,o),
(419,902,o),
(439,930,o),
(439,948,qs),
(439,964,o)
);
},
{
closed = 1;
nodes = (
(570,293,o),
(569,273,qs),
(568,252,o),
(565,195,o),
(561,137,o),
(557,86,o),
(556,73,qs),
(555,60,o),
(547,45,o),
(535,38,o),
(520,36,o),
(513,36,qs),
(184,36,l),
(184,401,l),
(213,402,o),
(269,403,o),
(298,403,qs),
(327,403,o),
(363,402,o),
(377,402,qs),
(392,402,o),
(411,383,o),
(421,355,o),
(425,322,o),
(425,309,qs),
(425,296,o),
(435,280,o),
(442,280,qs),
(446,280,o),
(457,290,o),
(457,307,qs),
(457,335,o),
(455,391,o),
(455,420,qs),
(455,449,o),
(457,504,o),
(457,533,qs),
(457,544,o),
(452,560,o),
(440,560,qs),
(434,560,o),
(427,552,o),
(424,541,o),
(423,531,o),
(423,530,qs),
(423,521,o),
(422,490,o),
(419,461,o),
(412,440,o),
(406,440,qs),
(401,440,o),
(377,439,o),
(346,438,o),
(312,437,o),
(298,437,qs),
(269,437,o),
(213,439,o),
(184,440,q),
(184,785,l),
(487,785,ls),
(497,785,o),
(524,776,o),
(524,757,qs),
(524,645,ls),
(524,631,o),
(529,605,o),
(544,605,qs),
(555,605,o),
(561,632,o),
(561,651,qs),
(561,785,ls),
(561,806,o),
(547,821,o),
(533,821,qs),
(489,821,o),
(435,820,o),
(390,820,o),
(343,819,o),
(306,819,qs),
(287,819,o),
(232,820,o),
(168,820,o),
(98,821,o),
(65,821,qs),
(50,821,o),
(24,815,o),
(24,804,qs),
(24,793,o),
(47,789,o),
(64,789,qs),
(74,789,o),
(99,788,o),
(122,780,o),
(137,765,o),
(137,750,qs),
(137,716,o),
(139,648,o),
(141,571,o),
(143,481,o),
(143,425,qs),
(143,375,o),
(143,302,o),
(142,245,o),
(142,199,o),
(141,152,o),
(141,99,o),
(141,64,qs),
(141,43,o),
(107,28,o),
(60,28,qs),
(40,28,o),
(21,22,o),
(21,11,qs),
(21,3,o),
(52,0,o),
(67,0,qs),
(128,1,o),
(249,2,o),
(310,2,qs),
(371,2,o),
(486,0,o),
(547,0,qs),
(567,0,o),
(587,8,o),
(589,33,qs),
(592,63,o),
(597,141,o),
(602,213,o),
(605,268,o),
(605,277,qs),
(605,289,o),
(600,310,o),
(586,310,qs),
(581,310,o)
);
}
);
userData = {
assembly = "MPPEM[ ]	/* MeasurePixelPerEm */
PUSHB[ ]	/* 1 value pushed */
20
LT[ ]	/* LessThan */
IF[ ]	/* If */
NPUSHB[ ]	/* 78 values pushed */
3 1 1 2 1 106 0 9 7 12 7 9 12 104 16 1 4 14 13 14 4 13 104 0 6 15 5 15 6 96 0 2 0 0 8 2 0 91 0 12 0 13 15 12 13 91 10 1 7 7 8 83 0 8 8 12 67 0 14 14 11 83 0 11 11 15 67 0 15 15 5 83 0 5 5 13 5 68
ELSE[ ]	/* Else */
MPPEM[ ]	/* MeasurePixelPerEm */
PUSHB[ ]	/* 1 value pushed */
45
LT[ ]	/* LessThan */
IF[ ]	/* If */
NPUSHB[ ]	/* 76 values pushed */
3 1 1 2 1 106 0 9 7 12 7 9 12 104 16 1 4 14 13 14 4 13 104 0 6 15 5 15 6 96 0 2 0 0 8 2 0 91 0 11 0 14 4 11 14 91 0 12 0 13 15 12 13 91 10 1 7 7 8 83 0 8 8 12 67 0 15 15 5 83 0 5 5 13 5 68
ELSE[ ]	/* Else */
NPUSHB[ ]	/* 76 values pushed */
3 1 1 2 1 106 0 9 7 12 7 9 12 104 16 1 4 14 13 14 4 13 104 0 6 15 5 15 6 96 0 2 0 0 8 2 0 91 0 11 0 14 4 11 14 91 0 12 0 13 15 12 13 91 10 1 7 7 8 83 0 8 8 14 67 0 15 15 5 83 0 5 5 13 5 68
EIF[ ]	/* EndIf */
EIF[ ]	/* EndIf */
NPUSHB[ ]	/* 34 values pushed */
29 28 150 148 147 140 134 132 122 120 112 103 102 100 95 93 88 76 72 69 52 50 46 38 28 161 29 161 37 38 35 36 17 19
CALL[ ]	/* CallFunction */";
};
width = 643;
}
);
note = Ebreve;
unicode = 276;
},
